SplineFontDB: 3.2
FontName: TextDropDistance
FullName: Text Drop Distance
FamilyName: Text Drop Distance
Weight: Regular
Copyright: Copyright (c) 2024, Ruggery Iury.
UComments: "2024-12-4: Created with FontForge (http://fontforge.org)"
Version: 001.000
ItalicAngle: 0
UnderlinePosition: -120
UnderlineWidth: 60
Ascent: 1400
Descent: 200
InvalidEm: 0
LayerCount: 2
Layer: 0 0 "Back" 1
Layer: 1 0 "Fore" 0
XUID: [1021 981 -2101964692 31278]
StyleMap: 0x0000
FSType: 0
OS2Version: 0
OS2_WeightWidthSlopeOnly: 0
OS2_UseTypoMetrics: 1
CreationTime: 1733284840
ModificationTime: 1743319910
OS2TypoAscent: 0
OS2TypoAOffset: 1
OS2TypoDescent: 0
OS2TypoDOffset: 1
OS2TypoLinegap: 144
OS2WinAscent: 0
OS2WinAOffset: 1
OS2WinDescent: 0
OS2WinDOffset: 1
HheadAscent: 0
HheadAOffset: 1
HheadDescent: 0
HheadDOffset: 1
MarkAttachClasses: 1
DEI: 91125
LangName: 1033
Encoding: ISO8859-1
UnicodeInterp: none
NameList: AGL For New Fonts
DisplaySize: -48
AntiAlias: 1
FitToEm: 0
WidthSeparation: 50
WinInfo: 0 38 13
BeginPrivate: 0
EndPrivate
BeginChars: 277 191

StartChar: a
Encoding: 97 97 0
Width: 700
VWidth: 1198
Flags: W
HStem: 0 100<150 531.569> 300 100<150 550> 600 100<50 550>
VStem: 50 100<100 300> 550 100<0 17 118.431 300 400 600>
CounterMasks: 1 e0
LayerCount: 2
Fore
SplineSet
575 700 m 2
 616 700 650 666 650 625 c 2
 650 400 l 1
 650 175 l 1
 650 6 l 2
 650 3 647 0 644 0 c 2
 556 0 l 2
 553 0 550 3 550 6 c 2
 550 17 l 1
 528 7 502 0 475 0 c 2
 125 0 l 2
 84 0 50 34 50 75 c 2
 50 325 l 2
 50 366 84 400 125 400 c 2
 544 400 l 2
 547 400 550 403 550 406 c 2
 550 575 l 2
 550 589 539 600 525 600 c 2
 56 600 l 2
 53 600 50 603 50 606 c 2
 50 694 l 2
 50 697 53 700 56 700 c 2
 575 700 l 2
475 100 m 2
 516 100 550 134 550 175 c 2
 550 294 l 2
 550 297 547 300 544 300 c 2
 175 300 l 2
 161 300 150 289 150 275 c 2
 150 125 l 2
 150 111 161 100 175 100 c 2
 475 100 l 2
EndSplineSet
Validated: 1
EndChar

StartChar: A
Encoding: 65 65 1
Width: 900
Flags: W
HStem: 0 21G<54.3501 145.65 754.35 845.65> 0 21G<54.3501 145.65 754.35 845.65> 450 100<150 750> 900 100<150 750>
VStem: 50 100<0 450 550 900> 750 100<0 450 550 900>
LayerCount: 2
Fore
SplineSet
775 1000 m 2xbc
 816.400390625 1000 850 966.400390625 850 925 c 2
 850 6 l 2
 850 2.7001953125 847.299804688 0 844 0 c 2
 756 0 l 2
 752.700195312 0 750 2.7001953125 750 6 c 2
 750 444 l 2
 750 447.299804688 747.299804688 450 744 450 c 2
 156 450 l 2
 152.700195312 450 150 447.299804688 150 444 c 2
 150 6 l 2
 150 2.7001953125 147.299804688 0 144 0 c 2
 56 0 l 2
 52.7001953125 0 50 2.7001953125 50 6 c 2
 50 925 l 2
 50 966.400390625 83.599609375 1000 125 1000 c 2
 775 1000 l 2xbc
150 556 m 2
 150 552.700195312 152.700195312 550 156 550 c 2
 744 550 l 2
 747.299804688 550 750 552.700195312 750 556 c 2
 750 875 l 2
 750 888.799804688 738.799804688 900 725 900 c 2
 175 900 l 2
 161.200195312 900 150 888.799804688 150 875 c 2
 150 556 l 2
EndSplineSet
Validated: 1
EndChar

StartChar: b
Encoding: 98 98 2
Width: 700
VWidth: 1198
Flags: W
HStem: 0 100<168.431 550> 600 100<168.431 550> 980 20G<54.5 145.5>
VStem: 50 100<0 17 118.431 581.569 683 1000> 550 100<100 600>
LayerCount: 2
Fore
SplineSet
575 700 m 2
 616 700 650 666 650 625 c 2
 650 75 l 2
 650 34 616 0 575 0 c 2
 225 0 l 2
 198 0 172 7 150 17 c 1
 150 6 l 2
 150 3 147 0 144 0 c 2
 56 0 l 2
 53 0 50 3 50 6 c 2
 50 175 l 1
 50 525 l 1
 50 994 l 2
 50 997 53 1000 56 1000 c 2
 144 1000 l 2
 147 1000 150 997 150 994 c 2
 150 683 l 1
 172 693 198 700 225 700 c 2
 575 700 l 2
525 100 m 2
 539 100 550 111 550 125 c 2
 550 575 l 2
 550 589 539 600 525 600 c 2
 225 600 l 2
 184 600 150 566 150 525 c 2
 150 175 l 2
 150 134 184 100 225 100 c 2
 525 100 l 2
EndSplineSet
Validated: 1
EndChar

StartChar: B
Encoding: 66 66 3
Width: 800
VWidth: 1198
Flags: W
HStem: 0 100<150 650> 450 100<150 650> 900 100<150 650>
VStem: 50 100<100 450 550 900> 650 100<100 449.33 550.67 900>
CounterMasks: 1 e0
LayerCount: 2
Fore
SplineSet
750 925 m 2
 750 575 l 2
 750 547 741 521 725 500 c 1
 741 479 750 453 750 425 c 2
 750 75 l 2
 750 34 716 0 675 0 c 2
 56 0 l 2
 53 0 50 3 50 6 c 2
 50 450 l 1
 50 550 l 1
 50 994 l 2
 50 997 53 1000 56 1000 c 2
 675 1000 l 2
 716 1000 750 966 750 925 c 2
156 900 m 2
 153 900 150 897 150 894 c 2
 150 556 l 2
 150 553 153 550 156 550 c 2
 625 550 l 2
 639 550 650 561 650 575 c 2
 650 875 l 2
 650 889 639 900 625 900 c 2
 156 900 l 2
625 100 m 2
 639 100 650 111 650 125 c 2
 650 425 l 2
 650 439 639 450 625 450 c 2
 156 450 l 2
 153 450 150 447 150 444 c 2
 150 106 l 2
 150 103 153 100 156 100 c 2
 625 100 l 2
EndSplineSet
Validated: 1
EndChar

StartChar: c
Encoding: 99 99 4
Width: 700
VWidth: 1198
Flags: W
HStem: 0 100<150 650> 600 100<150 650>
VStem: 50 100<100 600>
LayerCount: 2
Fore
SplineSet
644 0 m 2
 125 0 l 2
 84 0 50 34 50 75 c 2
 50 625 l 2
 50 666 84 700 125 700 c 2
 644 700 l 2
 647 700 650 697 650 694 c 2
 650 606 l 2
 650 603 647 600 644 600 c 2
 175 600 l 2
 161 600 150 589 150 575 c 2
 150 125 l 2
 150 111 161 100 175 100 c 2
 644 100 l 2
 647 100 650 97 650 94 c 2
 650 6 l 2
 650 3 647 0 644 0 c 2
EndSplineSet
Validated: 1
EndChar

StartChar: d
Encoding: 100 100 5
Width: 700
VWidth: 1198
Flags: W
HStem: 0 100<150 531.569> 600 100<150 531.569> 980 20G<554.5 645.5>
VStem: 50 100<100 600> 550 100<0 17 118.431 581.569 683 1000>
LayerCount: 2
Fore
SplineSet
550 994 m 2
 550 997 553 1000 556 1000 c 2
 644 1000 l 2
 647 1000 650 997 650 994 c 2
 650 525 l 1
 650 175 l 1
 650 6 l 2
 650 3 647 0 644 0 c 2
 556 0 l 2
 553 0 550 3 550 6 c 2
 550 17 l 1
 528 7 502 0 475 0 c 2
 125 0 l 2
 84 0 50 34 50 75 c 2
 50 625 l 2
 50 666 84 700 125 700 c 2
 475 700 l 2
 502 700 528 693 550 683 c 1
 550 994 l 2
475 100 m 2
 516 100 550 134 550 175 c 2
 550 525 l 2
 550 566 516 600 475 600 c 2
 175 600 l 2
 161 600 150 589 150 575 c 2
 150 125 l 2
 150 111 161 100 175 100 c 2
 475 100 l 2
EndSplineSet
Validated: 1
EndChar

StartChar: g
Encoding: 103 103 6
Width: 700
VWidth: 1198
Flags: W
HStem: -200 100<100 550> 25 100<150 531.569> 600 100<150 531.569>
VStem: 50 100<125 600> 550 100<-100 42 143.431 581.569 683 700>
LayerCount: 2
Fore
SplineSet
550 694 m 2
 550 697 553 700 556 700 c 2
 644 700 l 2
 647 700 650 697 650 694 c 2
 650 525 l 1
 650 200 l 1
 650 -125 l 2
 650 -166 616 -200 575 -200 c 2
 106 -200 l 2
 103 -200 100 -197 100 -194 c 2
 100 -106 l 2
 100 -103 103 -100 106 -100 c 2
 525 -100 l 2
 539 -100 550 -89 550 -75 c 2
 550 42 l 1
 528 32 502 25 475 25 c 2
 125 25 l 2
 84 25 50 59 50 100 c 2
 50 625 l 2
 50 666 84 700 125 700 c 2
 475 700 l 2
 502 700 528 693 550 683 c 1
 550 694 l 2
475 125 m 2
 516 125 550 159 550 200 c 2
 550 525 l 2
 550 566 516 600 475 600 c 2
 175 600 l 2
 161 600 150 589 150 575 c 2
 150 150 l 2
 150 136 161 125 175 125 c 2
 475 125 l 2
EndSplineSet
Validated: 1
EndChar

StartChar: f
Encoding: 102 102 7
Width: 500
VWidth: 1198
Flags: W
HStem: 0 21G<154.5 245.5> 0 21G<154.5 245.5> 600 100<50 150 250 450> 900 100<250 450>
VStem: 150 100<0 600 700 900>
LayerCount: 2
Fore
SplineSet
450 906 m 2xb8
 450 903 447 900 444 900 c 2
 275 900 l 2
 261 900 250 889 250 875 c 2
 250 706 l 2
 250 703 253 700 256 700 c 2
 444 700 l 2
 447 700 450 697 450 694 c 2
 450 606 l 2
 450 603 447 600 444 600 c 2
 256 600 l 2
 253 600 250 597 250 594 c 2
 250 6 l 2
 250 3 247 0 244 0 c 2
 156 0 l 2
 153 0 150 3 150 6 c 2
 150 594 l 2
 150 597 147 600 144 600 c 2
 56 600 l 2
 53 600 50 603 50 606 c 2
 50 694 l 2
 50 697 53 700 56 700 c 2
 144 700 l 2
 147 700 150 703 150 706 c 2
 150 925 l 2
 150 966 184 1000 225 1000 c 2
 444 1000 l 2
 447 1000 450 997 450 994 c 2
 450 906 l 2xb8
EndSplineSet
Validated: 1
EndChar

StartChar: e
Encoding: 101 101 8
Width: 700
VWidth: 1198
Flags: W
HStem: 0 100<150 600> 300 100<150 550> 600 100<150 550>
VStem: 50 100<100 300 400 600> 550 100<400 600>
CounterMasks: 1 e0
LayerCount: 2
Fore
SplineSet
594 0 m 2
 125 0 l 2
 84 0 50 34 50 75 c 2
 50 625 l 2
 50 666 84 700 125 700 c 2
 575 700 l 2
 616 700 650 666 650 625 c 2
 650 306 l 2
 650 303 647 300 644 300 c 2
 156 300 l 2
 153 300 150 297 150 294 c 2
 150 125 l 2
 150 111 161 100 175 100 c 2
 594 100 l 2
 597 100 600 97 600 94 c 2
 600 6 l 2
 600 3 597 0 594 0 c 2
156 400 m 2
 544 400 l 2
 547 400 550 403 550 406 c 2
 550 575 l 2
 550 589 539 600 525 600 c 2
 175 600 l 2
 161 600 150 589 150 575 c 2
 150 406 l 2
 150 403 153 400 156 400 c 2
EndSplineSet
Validated: 1
EndChar

StartChar: h
Encoding: 104 104 9
Width: 700
VWidth: 1198
Flags: W
HStem: 0 21G<54.5 145.5 554.5 645.5> 0 21G<54.5 145.5 554.5 645.5> 600 100<150 550> 980 20G<54.5 145.5>
VStem: 50 100<0 600 700 1000> 550 100<0 600>
LayerCount: 2
Fore
SplineSet
575 700 m 2xbc
 616 700 650 666 650 625 c 2
 650 6 l 2
 650 3 647 0 644 0 c 2
 556 0 l 2
 553 0 550 3 550 6 c 2
 550 575 l 2
 550 589 539 600 525 600 c 2
 156 600 l 2
 153 600 150 597 150 594 c 2
 150 6 l 2
 150 3 147 0 144 0 c 2
 56 0 l 2
 53 0 50 3 50 6 c 2
 50 994 l 2
 50 997 53 1000 56 1000 c 2
 144 1000 l 2
 147 1000 150 997 150 994 c 2
 150 706 l 2
 150 703 153 700 156 700 c 2
 575 700 l 2xbc
EndSplineSet
Validated: 1
EndChar

StartChar: i
Encoding: 105 105 10
Width: 300
VWidth: 1198
Flags: W
HStem: 0 21G<104.5 195.5> 0 21G<104.5 195.5> 680 20G<104.5 195.5> 875 125<100 200>
VStem: 100 100<0 700 875 1000>
LayerCount: 2
Fore
SplineSet
194 0 m 2xb8
 106 0 l 2
 103 0 100 3 100 6 c 2
 100 694 l 2
 100 697 103 700 106 700 c 2
 194 700 l 2
 197 700 200 697 200 694 c 2
 200 6 l 2
 200 3 197 0 194 0 c 2xb8
194 875 m 2
 106 875 l 2
 103 875 100 878 100 881 c 2
 100 994 l 2
 100 997 103 1000 106 1000 c 2
 194 1000 l 2
 197 1000 200 997 200 994 c 2
 200 881 l 2
 200 878 197 875 194 875 c 2
EndSplineSet
Validated: 1
EndChar

StartChar: j
Encoding: 106 106 11
Width: 450
VWidth: 1198
Flags: W
HStem: -200 100<50 300> 680 20G<304.5 395.5> 875 125<300 400>
VStem: 300 100<-100 700 875 1000>
LayerCount: 2
Fore
SplineSet
325 -200 m 2
 56 -200 l 2
 53 -200 50 -197 50 -194 c 2
 50 -106 l 2
 50 -103 53 -100 56 -100 c 2
 275 -100 l 2
 289 -100 300 -89 300 -75 c 2
 300 694 l 2
 300 697 303 700 306 700 c 2
 394 700 l 2
 397 700 400 697 400 694 c 2
 400 -125 l 2
 400 -166 366 -200 325 -200 c 2
394 875 m 2
 306 875 l 2
 303 875 300 878 300 881 c 2
 300 994 l 2
 300 997 303 1000 306 1000 c 2
 394 1000 l 2
 397 1000 400 997 400 994 c 2
 400 881 l 2
 400 878 397 875 394 875 c 2
EndSplineSet
Validated: 1
EndChar

StartChar: k
Encoding: 107 107 12
Width: 593
VWidth: 1198
Flags: W
HStem: 0 21G<54.5 145.5 425 540.5> 0 21G<54.5 145.5 425 540.5> 300 100<150 209.891> 680 20G<425 540.5> 980 20G<54.5 145.5>
VStem: 50 100<0 300 400 1000>
LayerCount: 2
Fore
SplineSet
538 700 m 2xbc
 543 700 545 694 542 690 c 2
 281 354 l 2
 279 352 279 348 281 346 c 2
 542 10 l 2
 545 6 543 0 538 0 c 2
 426 0 l 2
 424 0 422 0 421 2 c 2
 192 298 l 2
 191 300 189 300 187 300 c 2
 156 300 l 2
 153 300 150 297 150 294 c 2
 150 6 l 2
 150 3 147 0 144 0 c 2
 56 0 l 2
 53 0 50 3 50 6 c 2
 50 994 l 2
 50 997 53 1000 56 1000 c 2
 144 1000 l 2
 147 1000 150 997 150 994 c 2
 150 406 l 2
 150 403 153 400 156 400 c 2
 187 400 l 2
 189 400 191 400 192 402 c 2
 421 698 l 2
 422 700 424 700 426 700 c 2
 538 700 l 2xbc
EndSplineSet
Validated: 1
EndChar

StartChar: l
Encoding: 108 108 13
Width: 300
VWidth: 1198
Flags: W
HStem: 0 21G<104.5 195.5> 0 21G<104.5 195.5> 980 20G<104.5 195.5>
VStem: 100 100<0 1000>
LayerCount: 2
Fore
SplineSet
194 0 m 2xb0
 106 0 l 2
 103 0 100 3 100 6 c 2
 100 994 l 2
 100 997 103 1000 106 1000 c 2
 194 1000 l 2
 197 1000 200 997 200 994 c 2
 200 6 l 2
 200 3 197 0 194 0 c 2xb0
EndSplineSet
Validated: 1
EndChar

StartChar: m
Encoding: 109 109 14
Width: 800
VWidth: 1198
Flags: W
HStem: 0 21G<54.5 145.5 354.5 445.5 654.5 745.5> 0 21G<54.5 145.5 354.5 445.5 654.5 745.5> 600 100<168.431 349.33 450.67 650>
VStem: 50 100<0 581.569 683 700> 350 100<0 600> 650 100<0 600>
CounterMasks: 1 1c
LayerCount: 2
Fore
SplineSet
675 700 m 2xbc
 716 700 750 666 750 625 c 2
 750 6 l 2
 750 3 747 0 744 0 c 2
 656 0 l 2
 653 0 650 3 650 6 c 2
 650 575 l 2
 650 589 639 600 625 600 c 2
 475 600 l 2
 461 600 450 589 450 575 c 2
 450 6 l 2
 450 3 447 0 444 0 c 2
 356 0 l 2
 353 0 350 3 350 6 c 2
 350 575 l 2
 350 589 339 600 325 600 c 2
 225 600 l 2
 184 600 150 566 150 525 c 2
 150 6 l 2
 150 3 147 0 144 0 c 2
 56 0 l 2
 53 0 50 3 50 6 c 2
 50 525 l 1
 50 694 l 2
 50 697 53 700 56 700 c 2
 144 700 l 2
 147 700 150 697 150 694 c 2
 150 683 l 1
 172 693 198 700 225 700 c 2
 325 700 l 2
 353 700 379 691 400 675 c 1
 421 691 447 700 475 700 c 2
 675 700 l 2xbc
EndSplineSet
Validated: 1
EndChar

StartChar: n
Encoding: 110 110 15
Width: 700
VWidth: 1198
Flags: W
HStem: 0 21G<54.5 145.5 554.5 645.5> 0 21G<54.5 145.5 554.5 645.5> 600 100<168.431 550>
VStem: 50 100<0 581.569 683 700> 550 100<0 600>
LayerCount: 2
Fore
SplineSet
575 700 m 2xb8
 616 700 650 666 650 625 c 2
 650 6 l 2
 650 3 647 0 644 0 c 2
 556 0 l 2
 553 0 550 3 550 6 c 2
 550 575 l 2
 550 589 539 600 525 600 c 2
 225 600 l 2
 184 600 150 566 150 525 c 2
 150 6 l 2
 150 3 147 0 144 0 c 2
 56 0 l 2
 53 0 50 3 50 6 c 2
 50 525 l 1
 50 694 l 2
 50 697 53 700 56 700 c 2
 144 700 l 2
 147 700 150 697 150 694 c 2
 150 683 l 1
 172 693 198 700 225 700 c 2
 575 700 l 2xb8
EndSplineSet
Validated: 1
EndChar

StartChar: o
Encoding: 111 111 16
Width: 700
VWidth: 1198
Flags: W
HStem: 0 100<150 550> 600 100<150 550>
VStem: 50 100<100 600> 550 100<100 600>
LayerCount: 2
Fore
SplineSet
575 0 m 2
 125 0 l 2
 84 0 50 34 50 75 c 2
 50 625 l 2
 50 666 84 700 125 700 c 2
 575 700 l 2
 616 700 650 666 650 625 c 2
 650 75 l 2
 650 34 616 0 575 0 c 2
175 100 m 2
 525 100 l 2
 539 100 550 111 550 125 c 2
 550 575 l 2
 550 589 539 600 525 600 c 2
 175 600 l 2
 161 600 150 589 150 575 c 2
 150 125 l 2
 150 111 161 100 175 100 c 2
EndSplineSet
Validated: 1
EndChar

StartChar: p
Encoding: 112 112 17
Width: 700
VWidth: 1198
Flags: W
HStem: 0 100<168.431 550> 600 100<168.431 550>
VStem: 50 100<-200 17 118.431 581.569 683 700> 550 100<100 600>
LayerCount: 2
Fore
SplineSet
575 700 m 2
 616 700 650 666 650 625 c 2
 650 75 l 2
 650 34 616 0 575 0 c 2
 225 0 l 2
 198 0 172 7 150 17 c 1
 150 -194 l 2
 150 -197 147 -200 144 -200 c 2
 56 -200 l 2
 53 -200 50 -197 50 -194 c 2
 50 175 l 1
 50 525 l 1
 50 694 l 2
 50 697 53 700 56 700 c 2
 144 700 l 2
 147 700 150 697 150 694 c 2
 150 683 l 1
 172 693 198 700 225 700 c 2
 575 700 l 2
525 100 m 2
 539 100 550 111 550 125 c 2
 550 575 l 2
 550 589 539 600 525 600 c 2
 225 600 l 2
 184 600 150 566 150 525 c 2
 150 175 l 2
 150 134 184 100 225 100 c 2
 525 100 l 2
EndSplineSet
Validated: 1
EndChar

StartChar: r
Encoding: 114 114 18
Width: 600
VWidth: 1198
Flags: W
HStem: 0 21G<54.5 145.5> 0 21G<54.5 145.5> 600 100<168.431 450>
VStem: 50 100<0 581.569 683 700> 450 100<450 600>
LayerCount: 2
Fore
SplineSet
475 700 m 2xb8
 516 700 550 666 550 625 c 2
 550 456 l 2
 550 453 547 450 544 450 c 2
 456 450 l 2
 453 450 450 453 450 456 c 2
 450 575 l 2
 450 589 439 600 425 600 c 2
 225 600 l 2
 184 600 150 566 150 525 c 2
 150 6 l 2
 150 3 147 0 144 0 c 2
 56 0 l 2
 53 0 50 3 50 6 c 2
 50 525 l 1
 50 694 l 2
 50 697 53 700 56 700 c 2
 144 700 l 2
 147 700 150 697 150 694 c 2
 150 683 l 1
 172 693 198 700 225 700 c 2
 475 700 l 2xb8
EndSplineSet
Validated: 1
EndChar

StartChar: q
Encoding: 113 113 19
Width: 700
VWidth: 1198
Flags: W
HStem: 0 100<150 531.569> 600 100<150 531.569>
VStem: 50 100<100 600> 550 100<-200 17 118.431 581.569 683 700>
LayerCount: 2
Fore
SplineSet
550 694 m 2
 550 697 553 700 556 700 c 2
 644 700 l 2
 647 700 650 697 650 694 c 2
 650 525 l 1
 650 175 l 1
 650 -194 l 2
 650 -197 647 -200 644 -200 c 2
 556 -200 l 2
 553 -200 550 -197 550 -194 c 2
 550 17 l 1
 528 7 502 0 475 0 c 2
 125 0 l 2
 84 0 50 34 50 75 c 2
 50 625 l 2
 50 666 84 700 125 700 c 2
 475 700 l 2
 502 700 528 693 550 683 c 1
 550 694 l 2
475 100 m 2
 516 100 550 134 550 175 c 2
 550 525 l 2
 550 566 516 600 475 600 c 2
 175 600 l 2
 161 600 150 589 150 575 c 2
 150 125 l 2
 150 111 161 100 175 100 c 2
 475 100 l 2
EndSplineSet
Validated: 1
EndChar

StartChar: s
Encoding: 115 115 20
Width: 700
VWidth: 1198
Flags: W
HStem: 0 100<50 550> 300 100<150 550> 600 100<150 650>
VStem: 50 100<400 600> 550 100<100 300>
CounterMasks: 1 e0
LayerCount: 2
Fore
SplineSet
575 0 m 2
 56 0 l 2
 53 0 50 3 50 6 c 2
 50 94 l 2
 50 97 53 100 56 100 c 2
 525 100 l 2
 539 100 550 111 550 125 c 2
 550 275 l 2
 550 289 539 300 525 300 c 2
 125 300 l 2
 84 300 50 334 50 375 c 2
 50 625 l 2
 50 666 84 700 125 700 c 2
 644 700 l 2
 647 700 650 697 650 694 c 2
 650 606 l 2
 650 603 647 600 644 600 c 2
 175 600 l 2
 161 600 150 589 150 575 c 2
 150 425 l 2
 150 411 161 400 175 400 c 2
 575 400 l 2
 616 400 650 366 650 325 c 2
 650 75 l 2
 650 34 616 0 575 0 c 2
EndSplineSet
Validated: 1
EndChar

StartChar: t
Encoding: 116 116 21
Width: 700
VWidth: 1198
Flags: W
HStem: 0 100<350 650> 600 100<50 250 350 650> 980 20G<254.5 345.5>
VStem: 250 100<100 600 700 1000>
LayerCount: 2
Fore
SplineSet
650 606 m 2
 650 603 647 600 644 600 c 2
 356 600 l 2
 353 600 350 597 350 594 c 2
 350 125 l 2
 350 111 361 100 375 100 c 2
 644 100 l 2
 647 100 650 97 650 94 c 2
 650 6 l 2
 650 3 647 0 644 0 c 2
 325 0 l 2
 284 0 250 34 250 75 c 2
 250 594 l 2
 250 597 247 600 244 600 c 2
 56 600 l 2
 53 600 50 603 50 606 c 2
 50 694 l 2
 50 697 53 700 56 700 c 2
 244 700 l 2
 247 700 250 703 250 706 c 2
 250 994 l 2
 250 997 253 1000 256 1000 c 2
 344 1000 l 2
 347 1000 350 997 350 994 c 2
 350 706 l 2
 350 703 353 700 356 700 c 2
 644 700 l 2
 647 700 650 697 650 694 c 2
 650 606 l 2
EndSplineSet
Validated: 1
EndChar

StartChar: u
Encoding: 117 117 22
Width: 700
VWidth: 1198
Flags: W
HStem: 0 100<150 531.569> 680 20G<54.5 145.5 554.5 645.5>
VStem: 50 100<100 700> 550 100<0 17 118.431 700>
LayerCount: 2
Fore
SplineSet
550 694 m 2
 550 697 553 700 556 700 c 2
 644 700 l 2
 647 700 650 697 650 694 c 2
 650 175 l 1
 650 6 l 2
 650 3 647 0 644 0 c 2
 556 0 l 2
 553 0 550 3 550 6 c 2
 550 17 l 1
 528 7 502 0 475 0 c 2
 125 0 l 2
 84 0 50 34 50 75 c 2
 50 694 l 2
 50 697 53 700 56 700 c 2
 144 700 l 2
 147 700 150 697 150 694 c 2
 150 125 l 2
 150 111 161 100 175 100 c 2
 475 100 l 2
 516 100 550 134 550 175 c 2
 550 694 l 2
EndSplineSet
Validated: 1
EndChar

StartChar: v
Encoding: 118 118 23
Width: 735
VWidth: 1198
Flags: W
HStem: 0 21G<342.532 392.532> 0 21G<342.532 392.532> 680 20G<29.5322 128.532 606.532 705.532>
LayerCount: 2
Fore
SplineSet
601.532226562 697 m 2xa0
 602.532226562 699 605.532226562 700 607.532226562 700 c 2
 703.532226562 700 l 2
 707.532226562 700 711.532226562 696 709.532226562 692 c 2
 422.532226562 60 l 1
 397.532226562 4 l 2
 396.532226562 2 393.532226562 0 391.532226562 0 c 2
 343.532226562 0 l 2
 341.532226562 0 339.532226562 2 338.532226562 4 c 2
 312.532226562 60 l 1
 25.5322265625 692 l 2
 23.5322265625 696 27.5322265625 700 31.5322265625 700 c 2
 127.532226562 700 l 2
 129.532226562 700 132.532226562 699 133.532226562 697 c 2
 361.532226562 193 l 2
 363.532226562 189 371.532226562 189 373.532226562 193 c 2
 601.532226562 697 l 2xa0
EndSplineSet
Validated: 1
EndChar

StartChar: w
Encoding: 119 119 24
Width: 942
VWidth: 1198
Flags: W
HStem: 0 21G<232.693 309.693 632.693 709.693> 0 21G<232.693 309.693 632.693 709.693> 680 20G<29.1934 124.693 417.693 524.693 818.193 913.193>
LayerCount: 2
Fore
SplineSet
813.193359375 696 m 2xa0
 814.193359375 698 817.193359375 700 819.193359375 700 c 2
 911.193359375 700 l 2
 915.193359375 700 918.193359375 696 917.193359375 692 c 2
 723.193359375 35 l 1
 714.193359375 4 l 2
 713.193359375 2 711.193359375 0 708.193359375 0 c 2
 634.193359375 0 l 2
 631.193359375 0 629.193359375 2 628.193359375 4 c 2
 619.193359375 35 l 1
 477.193359375 518 l 2
 475.193359375 524 467.193359375 524 465.193359375 518 c 2
 323.193359375 35 l 1
 314.193359375 4 l 2
 313.193359375 2 311.193359375 0 308.193359375 0 c 2
 234.193359375 0 l 2
 231.193359375 0 229.193359375 2 228.193359375 4 c 2
 219.193359375 35 l 1
 25.193359375 692 l 2
 24.193359375 696 27.193359375 700 31.193359375 700 c 2
 123.193359375 700 l 2
 126.193359375 700 128.193359375 698 129.193359375 696 c 2
 265.193359375 232 l 2
 267.193359375 226 275.193359375 226 277.193359375 232 c 2
 413.193359375 696 l 2
 414.193359375 698 416.193359375 700 419.193359375 700 c 2
 523.193359375 700 l 2
 526.193359375 700 528.193359375 698 529.193359375 696 c 2
 665.193359375 232 l 2
 667.193359375 226 675.193359375 226 677.193359375 232 c 2
 813.193359375 696 l 2xa0
EndSplineSet
Validated: 1
EndChar

StartChar: y
Encoding: 121 121 25
Width: 728
VWidth: 1198
Flags: W
HStem: -200 100<64.5322 306.484> 680 20G<29.5322 126.532 602.532 698.532>
LayerCount: 2
Fore
SplineSet
598.532226562 696 m 2
 599.532226562 698 601.532226562 700 603.532226562 700 c 2
 696.532226562 700 l 2
 700.532226562 700 704.532226562 696 702.532226562 692 c 2
 418.532226562 -82 l 1
 392.532226562 -151 l 2
 387.532226562 -166 377.532226562 -179 364.532226562 -187 c 0
 352.532226562 -195 338.532226562 -200 322.532226562 -200 c 2
 70.5322265625 -200 l 2
 67.5322265625 -200 64.5322265625 -197 64.5322265625 -194 c 2
 64.5322265625 -106 l 2
 64.5322265625 -103 67.5322265625 -100 70.5322265625 -100 c 2
 300.532226562 -100 l 2
 302.532226562 -100 305.532226562 -98 306.532226562 -96 c 2
 310.532226562 -84 l 2
 311.532226562 -82 311.532226562 -82 310.532226562 -80 c 2
 25.5322265625 692 l 2
 23.5322265625 696 27.5322265625 700 31.5322265625 700 c 2
 125.532226562 700 l 2
 127.532226562 700 129.532226562 698 130.532226562 696 c 2
 352.532226562 94 l 2
 356.532226562 83 372.532226562 83 376.532226562 94 c 2
 598.532226562 696 l 2
EndSplineSet
Validated: 1
EndChar

StartChar: x
Encoding: 120 120 26
Width: 736
VWidth: 1198
Flags: W
HStem: 0 21G<29.5332 145.033 591.033 707.533> 0 21G<29.5332 145.033 591.033 707.533> 680 20G<43.5332 159.033 577.033 692.533>
LayerCount: 2
Fore
SplineSet
690.033203125 700 m 2xa0
 695.033203125 700 697.033203125 694 694.033203125 690 c 2
 435.033203125 363 l 2
 433.033203125 361 433.033203125 358 435.033203125 356 c 2
 710.033203125 10 l 2
 713.033203125 6 710.033203125 0 705.033203125 0 c 2
 592.033203125 0 l 2
 590.033203125 0 588.033203125 0 587.033203125 2 c 2
 373.033203125 273 l 2
 371.033203125 276 365.033203125 276 363.033203125 273 c 2
 148.033203125 2 l 2
 147.033203125 0 146.033203125 0 144.033203125 0 c 2
 32.033203125 0 l 2
 27.033203125 0 23.033203125 6 26.033203125 10 c 2
 302.033203125 356 l 2
 304.033203125 358 304.033203125 361 302.033203125 363 c 2
 41.033203125 690 l 2
 38.033203125 694 41.033203125 700 46.033203125 700 c 2
 158.033203125 700 l 2
 160.033203125 700 162.033203125 700 163.033203125 698 c 2
 363.033203125 446 l 2
 365.033203125 443 371.033203125 443 373.033203125 446 c 2
 573.033203125 698 l 2
 574.033203125 700 576.033203125 700 578.033203125 700 c 2
 690.033203125 700 l 2xa0
EndSplineSet
Validated: 1
EndChar

StartChar: z
Encoding: 122 122 27
Width: 800
VWidth: 1198
Flags: W
HStem: 0 100<230.818 750> 600 100<50 569.182>
LayerCount: 2
Fore
SplineSet
722 602 m 1
 721 600 l 1
 231 110 l 2
 227 106 231 100 236 100 c 2
 744 100 l 2
 747 100 750 97 750 94 c 2
 750 6 l 2
 750 3 747 0 744 0 c 2
 118 0 l 1
 56 0 l 2
 53 0 50 3 50 6 c 2
 50 68 l 2
 50 70 51 72 52 73 c 2
 77 98 l 1
 569 590 l 2
 573 594 570 600 565 600 c 2
 56 600 l 2
 53 600 50 603 50 606 c 2
 50 694 l 2
 50 697 53 700 56 700 c 2
 682 700 l 1
 744 700 l 2
 747 700 750 697 750 694 c 2
 750 632 l 2
 750 630 749 629 748 628 c 2
 722 602 l 1
EndSplineSet
Validated: 1
EndChar

StartChar: R
Encoding: 82 82 28
Width: 800
VWidth: 1198
Flags: W
HStem: 0 21G<54.5 145.5 654.5 745.5> 0 21G<54.5 145.5 654.5 745.5> 450 100<150 650> 900 100<150 650>
VStem: 50 100<0 450 550 900> 650 100<0 449.33 550.67 900>
LayerCount: 2
Fore
SplineSet
750 925 m 2xbc
 750 575 l 2
 750 547 741 521 725 500 c 1
 741 479 750 453 750 425 c 2
 750 6 l 2
 750 3 747 0 744 0 c 2
 656 0 l 2
 653 0 650 3 650 6 c 2
 650 425 l 2
 650 439 639 450 625 450 c 2
 156 450 l 2
 153 450 150 447 150 444 c 2
 150 6 l 2
 150 3 147 0 144 0 c 2
 56 0 l 2
 53 0 50 3 50 6 c 2
 50 1000 l 1
 675 1000 l 2
 716 1000 750 966 750 925 c 2xbc
150 556 m 2
 150 553 153 550 156 550 c 2
 625 550 l 2
 639 550 650 561 650 575 c 2
 650 875 l 2
 650 889 639 900 625 900 c 2
 156 900 l 2
 153 900 150 897 150 894 c 2
 150 556 l 2
EndSplineSet
Validated: 1
EndChar

StartChar: U
Encoding: 85 85 29
Width: 800
VWidth: 1198
Flags: W
HStem: 0 100<150 650> 980 20G<54.5 145.5 654.5 745.5>
VStem: 50 100<100 1000> 650 100<100 1000>
LayerCount: 2
Fore
SplineSet
675 0 m 2
 125 0 l 2
 84 0 50 34 50 75 c 2
 50 994 l 2
 50 997 53 1000 56 1000 c 2
 144 1000 l 2
 147 1000 150 997 150 994 c 2
 150 125 l 2
 150 111 161 100 175 100 c 2
 625 100 l 2
 639 100 650 111 650 125 c 2
 650 994 l 2
 650 997 653 1000 656 1000 c 2
 744 1000 l 2
 747 1000 750 997 750 994 c 2
 750 75 l 2
 750 34 716 0 675 0 c 2
EndSplineSet
Validated: 1
EndChar

StartChar: G
Encoding: 71 71 30
Width: 800
VWidth: 1198
Flags: W
HStem: 0 100<150 650> 449 101<325 650> 900 100<150 750>
VStem: 50 100<100 900> 650 100<100 449>
LayerCount: 2
Fore
SplineSet
675 0 m 2
 125 0 l 2
 84 0 50 34 50 75 c 2
 50 925 l 2
 50 966 84 1000 125 1000 c 2
 744 1000 l 2
 747 1000 750 997 750 994 c 2
 750 906 l 2
 750 903 747 900 744 900 c 2
 175 900 l 2
 161 900 150 889 150 875 c 2
 150 125 l 2
 150 111 161 100 175 100 c 2
 625 100 l 2
 639 100 650 111 650 125 c 2
 650 443 l 2
 650 446 647 449 644 449 c 2
 331 449 l 2
 328 449 325 452 325 455 c 2
 325 544 l 2
 325 547 328 550 331 550 c 2
 744 550 l 2
 747 550 750 547 750 544 c 2
 750 75 l 2
 750 34 716 0 675 0 c 2
EndSplineSet
Validated: 1
EndChar

StartChar: C
Encoding: 67 67 32
Width: 800
VWidth: 1198
Flags: W
HStem: 0 100<150 750> 900 100<150 750>
VStem: 50 100<100 900>
LayerCount: 2
Fore
SplineSet
744 0 m 2
 125 0 l 2
 84 0 50 34 50 75 c 2
 50 925 l 2
 50 966 84 1000 125 1000 c 2
 744 1000 l 2
 747 1000 750 997 750 994 c 2
 750 906 l 2
 750 903 747 900 744 900 c 2
 175 900 l 2
 161 900 150 889 150 875 c 2
 150 125 l 2
 150 111 161 100 175 100 c 2
 744 100 l 2
 747 100 750 97 750 94 c 2
 750 6 l 2
 750 3 747 0 744 0 c 2
EndSplineSet
Validated: 1
EndChar

StartChar: D
Encoding: 68 68 33
Width: 800
VWidth: 1198
Flags: W
HStem: 0 100<150 650> 900 100<150 501.125>
VStem: 50 100<100 900> 650 100<100 742.453>
LayerCount: 2
Fore
SplineSet
650 0 m 2
 56 0 l 2
 53 0 50 3 50 6 c 2
 50 994 l 2
 50 997 53 1000 56 1000 c 2
 489 1000 l 2
 510 1000 530 991 544 976 c 2
 730 776 l 2
 743 762 750 744 750 725 c 2
 750 100 l 2
 750 44 706 0 650 0 c 2
156 100 m 2
 625 100 l 2
 639 100 650 111 650 125 c 2
 650 713 l 2
 650 715 650 716 649 717 c 2
 480 898 l 2
 479 900 478 900 476 900 c 2
 156 900 l 2
 153 900 150 897 150 894 c 2
 150 106 l 2
 150 103 153 100 156 100 c 2
EndSplineSet
Validated: 1
EndChar

StartChar: E
Encoding: 69 69 34
Width: 800
VWidth: 1198
Flags: W
HStem: 0 100<150 750> 450 100<150 700> 900 100<150 750>
VStem: 50 100<100 450 550 900>
CounterMasks: 1 e0
LayerCount: 2
Fore
SplineSet
750 906 m 2
 750 903 747 900 744 900 c 2
 156 900 l 2
 153 900 150 897 150 894 c 2
 150 556 l 2
 150 553 153 550 156 550 c 2
 694 550 l 2
 697 550 700 547 700 544 c 2
 700 456 l 2
 700 453 697 450 694 450 c 2
 156 450 l 2
 153 450 150 447 150 444 c 2
 150 125 l 2
 150 111 161 100 175 100 c 2
 744 100 l 2
 747 100 750 97 750 94 c 2
 750 6 l 2
 750 3 747 0 744 0 c 2
 125 0 l 2
 84 0 50 34 50 75 c 2
 50 994 l 2
 50 997 53 1000 56 1000 c 2
 744 1000 l 2
 747 1000 750 997 750 994 c 2
 750 906 l 2
EndSplineSet
Validated: 1
EndChar

StartChar: F
Encoding: 70 70 35
Width: 800
VWidth: 1198
Flags: W
HStem: 0 21G<54.5 145.5> 0 21G<54.5 145.5> 450 100<150 700> 900 100<150 750>
VStem: 50 100<0 450 550 900>
LayerCount: 2
Fore
SplineSet
750 906 m 2xb8
 750 903 747 900 744 900 c 2
 175 900 l 2
 161 900 150 889 150 875 c 2
 150 556 l 2
 150 553 153 550 156 550 c 2
 694 550 l 2
 697 550 700 547 700 544 c 2
 700 456 l 2
 700 453 697 450 694 450 c 2
 156 450 l 2
 153 450 150 447 150 444 c 2
 150 6 l 2
 150 3 147 0 144 0 c 2
 56 0 l 2
 53 0 50 3 50 6 c 2
 50 925 l 2
 50 966 84 1000 125 1000 c 2
 744 1000 l 2
 747 1000 750 997 750 994 c 2
 750 906 l 2xb8
EndSplineSet
Validated: 1
EndChar

StartChar: H
Encoding: 72 72 36
Width: 800
VWidth: 1198
Flags: W
HStem: 0 21G<54.5 145.5 654.5 745.5> 0 21G<54.5 145.5 654.5 745.5> 450 100<150 650> 980 20G<54.5 145.5 654.5 745.5>
VStem: 50 100<0 450 550 1000> 650 100<0 450 550 1000>
LayerCount: 2
Fore
SplineSet
650 994 m 2xbc
 650 997 653 1000 656 1000 c 2
 744 1000 l 2
 747 1000 750 997 750 994 c 2
 750 6 l 2
 750 3 747 0 744 0 c 2
 656 0 l 2
 653 0 650 3 650 6 c 2
 650 444 l 2
 650 447 647 450 644 450 c 2
 156 450 l 2
 153 450 150 447 150 444 c 2
 150 6 l 2
 150 3 147 0 144 0 c 2
 56 0 l 2
 53 0 50 3 50 6 c 2
 50 994 l 2
 50 997 53 1000 56 1000 c 2
 144 1000 l 2
 147 1000 150 997 150 994 c 2
 150 556 l 2
 150 553 153 550 156 550 c 2
 644 550 l 2
 647 550 650 553 650 556 c 2
 650 994 l 2xbc
EndSplineSet
Validated: 1
EndChar

StartChar: I
Encoding: 73 73 37
Width: 400
VWidth: 1198
Flags: W
HStem: 0 100<50 151 250 350> 900 100<50 151 250 350>
VStem: 50 300<0 100 900 1000> 151 99<100 900>
LayerCount: 2
Fore
SplineSet
350 906 m 2xe0
 350 903 347 900 344 900 c 2
 256 900 l 2
 253 900 250 897 250 894 c 2
 250 106 l 2xd0
 250 103 253 100 256 100 c 2
 344 100 l 2
 347 100 350 97 350 94 c 2
 350 6 l 2
 350 3 347 0 344 0 c 2
 56 0 l 2
 53 0 50 3 50 6 c 2
 50 94 l 2xe0
 50 97 53 100 56 100 c 2
 145 100 l 2
 148 100 151 103 151 106 c 2
 151 894 l 2xd0
 151 897 148 900 145 900 c 2
 56 900 l 2
 53 900 50 903 50 906 c 2
 50 994 l 2
 50 997 53 1000 56 1000 c 2
 344 1000 l 2
 347 1000 350 997 350 994 c 2
 350 906 l 2xe0
EndSplineSet
Validated: 1
EndChar

StartChar: J
Encoding: 74 74 38
Width: 800
VWidth: 1198
Flags: W
HStem: 0 100<150 650> 980 20G<654.5 745.5>
VStem: 50 100<100 400> 650 100<100 1000>
LayerCount: 2
Fore
SplineSet
675 0 m 2
 125 0 l 2
 84 0 50 34 50 75 c 2
 50 394 l 2
 50 397 53 400 56 400 c 2
 144 400 l 2
 147 400 150 397 150 394 c 2
 150 125 l 2
 150 111 161 100 175 100 c 2
 625 100 l 2
 639 100 650 111 650 125 c 2
 650 994 l 2
 650 997 653 1000 656 1000 c 2
 744 1000 l 2
 747 1000 750 997 750 994 c 2
 750 75 l 2
 750 34 716 0 675 0 c 2
EndSplineSet
Validated: 1
EndChar

StartChar: K
Encoding: 75 75 39
Width: 800
VWidth: 1198
Flags: W
HStem: 0 100<650.484 750> 450 100<150 201.016> 980 20G<54.5 145.5 610 736.5>
VStem: 50 100<0 450 550 1000>
LayerCount: 2
Fore
SplineSet
274 505 m 2
 272 503 272 498 274 496 c 2
 669 102 l 2
 670 100 672 100 674 100 c 2
 744 100 l 2
 747 100 750 97 750 94 c 2
 750 6 l 2
 750 3 747 0 744 0 c 2
 632 0 l 2
 630 0 629 1 628 2 c 2
 181 448 l 2
 180 450 179 450 177 450 c 2
 156 450 l 2
 153 450 150 447 150 444 c 2
 150 6 l 2
 150 3 147 0 144 0 c 2
 56 0 l 2
 53 0 50 3 50 6 c 2
 50 994 l 2
 50 997 53 1000 56 1000 c 2
 144 1000 l 2
 147 1000 150 997 150 994 c 2
 150 556 l 2
 150 553 153 550 156 550 c 2
 176 550 l 2
 178 550 180 550 181 552 c 2
 608 998 l 2
 609 1000 609 1000 611 1000 c 2
 734 1000 l 2
 739 1000 742 994 738 990 c 2
 274 505 l 2
EndSplineSet
Validated: 1
EndChar

StartChar: L
Encoding: 76 76 40
Width: 800
VWidth: 1198
Flags: W
HStem: 0 100<150 750> 980 20G<54.5 145.5>
VStem: 50 100<100 1000>
LayerCount: 2
Fore
SplineSet
744 0 m 2
 125 0 l 2
 84 0 50 34 50 75 c 2
 50 994 l 2
 50 997 53 1000 56 1000 c 2
 144 1000 l 2
 147 1000 150 997 150 994 c 2
 150 125 l 2
 150 111 161 100 175 100 c 2
 744 100 l 2
 747 100 750 97 750 94 c 2
 750 6 l 2
 750 3 747 0 744 0 c 2
EndSplineSet
Validated: 1
EndChar

StartChar: M
Encoding: 77 77 41
Width: 800
VWidth: 1198
Flags: W
HStem: 0 21G<54.5 145.5 371.5 429.5 654.5 745.5> 0 21G<54.5 145.5 371.5 429.5 654.5 745.5> 980 20G<54.5 171.5 627.5 745.5>
VStem: 50 100<0 694.322> 650 100<0 694.322>
LayerCount: 2
Fore
SplineSet
623 996 m 2xb8
 624 998 626 1000 629 1000 c 2
 730 1000 l 1
 744 1000 l 2
 747 1000 750 997 750 994 c 2
 750 6 l 2
 750 3 747 0 744 0 c 2
 656 0 l 2
 653 0 650 3 650 6 c 2
 650 692 l 2
 650 699 640 701 638 694 c 2
 433 4 l 2
 432 2 431 0 428 0 c 2
 373 0 l 2
 370 0 368 2 367 4 c 2
 162 694 l 2
 160 701 150 699 150 692 c 2
 150 6 l 2
 150 3 147 0 144 0 c 2
 56 0 l 2
 53 0 50 3 50 6 c 2
 50 994 l 2
 50 997 53 1000 56 1000 c 2
 70 1000 l 1
 170 1000 l 2
 173 1000 175 998 176 996 c 2
 394 263 l 2
 396 257 404 257 406 263 c 2
 623 996 l 2xb8
EndSplineSet
Validated: 1
EndChar

StartChar: N
Encoding: 78 78 42
Width: 800
VWidth: 1198
Flags: W
HStem: 0 21G<54.5 145.5 627 745.5> 0 21G<54.5 145.5 627 745.5> 980 20G<54.5 177 654.5 745.5>
VStem: 50 100<0 828.229> 650 100<177.771 1000>
LayerCount: 2
Fore
SplineSet
622 3 m 2xb8
 161 828 l 2
 158 833 150 831 150 825 c 2
 150 6 l 2
 150 3 147 0 144 0 c 2
 56 0 l 2
 53 0 50 3 50 6 c 2
 50 994 l 2
 50 997 53 1000 56 1000 c 2
 65 1000 l 1
 176 1000 l 2
 178 1000 181 999 182 997 c 2
 639 178 l 2
 642 173 650 176 650 182 c 2
 650 994 l 2
 650 997 653 1000 656 1000 c 2
 744 1000 l 2
 747 1000 750 997 750 994 c 2
 750 6 l 2
 750 3 747 0 744 0 c 2
 739 0 l 1
 628 0 l 2
 626 0 623 1 622 3 c 2xb8
EndSplineSet
Validated: 1
EndChar

StartChar: O
Encoding: 79 79 43
Width: 800
VWidth: 1198
Flags: W
HStem: 0 100<150 650> 900 100<150 650>
VStem: 50 100<100 900> 650 100<100 900>
LayerCount: 2
Fore
SplineSet
675 0 m 2
 125 0 l 2
 84 0 50 34 50 75 c 2
 50 925 l 2
 50 966 84 1000 125 1000 c 2
 675 1000 l 2
 716 1000 750 966 750 925 c 2
 750 75 l 2
 750 34 716 0 675 0 c 2
175 100 m 2
 625 100 l 2
 639 100 650 111 650 125 c 2
 650 875 l 2
 650 889 639 900 625 900 c 2
 175 900 l 2
 161 900 150 889 150 875 c 2
 150 125 l 2
 150 111 161 100 175 100 c 2
EndSplineSet
Validated: 1
EndChar

StartChar: P
Encoding: 80 80 44
Width: 800
VWidth: 1198
Flags: W
HStem: 0 21G<54.5 145.5> 0 21G<54.5 145.5> 450 100<150 650> 900 100<150 650>
VStem: 50 100<0 450 550 900> 650 100<550 900>
LayerCount: 2
Fore
SplineSet
144 0 m 2xbc
 56 0 l 2
 53 0 50 3 50 6 c 2
 50 994 l 2
 50 997 53 1000 56 1000 c 2
 675 1000 l 2
 716 1000 750 966 750 925 c 2
 750 525 l 2
 750 484 716 450 675 450 c 2
 156 450 l 2
 153 450 150 447 150 444 c 2
 150 6 l 2
 150 3 147 0 144 0 c 2xbc
156 550 m 2
 625 550 l 2
 639 550 650 561 650 575 c 2
 650 875 l 2
 650 889 639 900 625 900 c 2
 156 900 l 2
 153 900 150 897 150 894 c 2
 150 556 l 2
 150 553 153 550 156 550 c 2
EndSplineSet
Validated: 1
EndChar

StartChar: Q
Encoding: 81 81 45
Width: 900
VWidth: 1198
Flags: W
HStem: 0 100<150 549.703 700.297 850> 900 100<150 650>
VStem: 50 100<100 900> 650 100<200.297 900>
LayerCount: 2
Fore
SplineSet
719 102 m 2
 720 100 721 100 723 100 c 2
 844 100 l 2
 847 100 850 97 850 94 c 2
 850 6 l 2
 850 3 847 0 844 0 c 2
 710 0 l 2
 690 0 671 8 657 22 c 2
 625 54 l 1
 592 22 l 2
 578 8 559 0 539 0 c 2
 125 0 l 2
 84 0 50 34 50 75 c 2
 50 925 l 2
 50 966 84 1000 125 1000 c 2
 675 1000 l 2
 716 1000 750 966 750 925 c 2
 750 211 l 2
 750 191 742 172 728 158 c 2
 700 129 l 2
 698 127 698 123 700 121 c 2
 719 102 l 2
526 100 m 2
 528 100 530 101 531 102 c 2
 550 121 l 2
 552 123 552 127 550 129 c 2
 384 296 l 2
 382 298 382 302 384 304 c 2
 446 366 l 2
 448 368 452 368 454 366 c 2
 621 200 l 2
 623 198 627 198 629 200 c 2
 648 219 l 2
 650 220 650 222 650 224 c 2
 650 875 l 2
 650 889 639 900 625 900 c 2
 175 900 l 2
 161 900 150 889 150 875 c 2
 150 125 l 2
 150 111 161 100 175 100 c 2
 526 100 l 2
EndSplineSet
Validated: 1
EndChar

StartChar: S
Encoding: 83 83 46
Width: 800
VWidth: 1198
Flags: W
HStem: 0 100<50 650> 450 100<150 650> 900 100<150 750>
VStem: 50 100<550 900> 650 100<100 450>
CounterMasks: 1 e0
LayerCount: 2
Fore
SplineSet
675 0 m 2
 56 0 l 2
 53 0 50 3 50 6 c 2
 50 94 l 2
 50 97 53 100 56 100 c 2
 625 100 l 2
 639 100 650 111 650 125 c 2
 650 425 l 2
 650 439 639 450 625 450 c 2
 125 450 l 2
 84 450 50 484 50 525 c 2
 50 925 l 2
 50 966 84 1000 125 1000 c 2
 744 1000 l 2
 747 1000 750 997 750 994 c 2
 750 906 l 2
 750 903 747 900 744 900 c 2
 175 900 l 2
 161 900 150 889 150 875 c 2
 150 575 l 2
 150 561 161 550 175 550 c 2
 675 550 l 2
 716 550 750 516 750 475 c 2
 750 75 l 2
 750 34 716 0 675 0 c 2
EndSplineSet
Validated: 1
EndChar

StartChar: T
Encoding: 84 84 47
Width: 800
VWidth: 1198
Flags: W
HStem: 0 21G<354.5 446.5> 0 21G<354.5 446.5> 900 100<50 350 450.002 750>
VStem: 350 101<0 900>
LayerCount: 2
Fore
SplineSet
744 1000 m 2xb0
 747 1000 750 997 750 994 c 2
 750 906 l 2
 750 903 747 900 744 900 c 2
 456 900 l 2
 453 900 450 897 450 894 c 2
 451 6 l 2
 451 3 448 0 445 0 c 2
 356 0 l 2
 353 0 350 3 350 6 c 2
 350 894 l 2
 350 897 347 900 344 900 c 2
 56 900 l 2
 53 900 50 903 50 906 c 2
 50 994 l 2
 50 997 53 1000 56 1000 c 2
 744 1000 l 2xb0
EndSplineSet
Validated: 1
EndChar

StartChar: V
Encoding: 86 86 48
Width: 797
VWidth: 1198
Flags: W
HStem: 0 21G<368.532 428.532> 0 21G<368.532 428.532> 980 20G<54.5322 150.532 647.032 742.532>
LayerCount: 2
Fore
SplineSet
642.532226562 996 m 2xa0
 643.532226562 998 645.532226562 1000 648.532226562 1000 c 2
 740.532226562 1000 l 2
 744.532226562 1000 748.532226562 996 746.532226562 992 c 2
 433.532226562 4 l 2
 432.532226562 2 429.532226562 0 427.532226562 0 c 2
 369.532226562 0 l 2
 367.532226562 0 364.532226562 2 363.532226562 4 c 2
 50.5322265625 992 l 2
 48.5322265625 996 52.5322265625 1000 56.5322265625 1000 c 2
 149.532226562 1000 l 2
 151.532226562 1000 153.532226562 998 154.532226562 996 c 2
 392.532226562 244 l 2
 394.532226562 239 402.532226562 239 404.532226562 244 c 2
 642.532226562 996 l 2xa0
EndSplineSet
Validated: 1
EndChar

StartChar: W
Encoding: 87 87 49
Width: 997
VWidth: 1198
Flags: W
HStem: 0 21G<264.693 333.693 661.693 730.693> 0 21G<264.693 333.693 661.693 730.693> 980 20G<54.1934 147.693 454.693 542.693 849.693 943.193>
VStem: 260.193 78<0 44.6> 657.193 78<0 44.6>
LayerCount: 2
Fore
SplineSet
845.193359375 995 m 2xb8
 846.193359375 998 848.193359375 1000 851.193359375 1000 c 2
 941.193359375 1000 l 2
 945.193359375 1000 948.193359375 997 947.193359375 993 c 2
 747.193359375 62 l 1
 735.193359375 4 l 2
 734.193359375 1 732.193359375 0 729.193359375 0 c 2
 663.193359375 0 l 2
 660.193359375 0 658.193359375 1 657.193359375 4 c 2
 645.193359375 62 l 1
 504.193359375 719 l 2
 502.193359375 725 494.193359375 725 492.193359375 719 c 2
 350.193359375 62 l 1
 338.193359375 4 l 2
 337.193359375 1 335.193359375 0 332.193359375 0 c 2
 266.193359375 0 l 2
 263.193359375 0 261.193359375 1 260.193359375 4 c 2
 248.193359375 62 l 1
 50.193359375 993 l 2
 49.193359375 997 52.193359375 1000 56.193359375 1000 c 2
 146.193359375 1000 l 2
 149.193359375 1000 151.193359375 998 152.193359375 995 c 2
 294.193359375 328 l 2
 296.193359375 322 304.193359375 322 306.193359375 328 c 2
 450.193359375 995 l 2
 451.193359375 998 453.193359375 1000 456.193359375 1000 c 2
 541.193359375 1000 l 2
 544.193359375 1000 546.193359375 998 547.193359375 995 c 2
 690.193359375 328 l 2
 692.193359375 322 700.193359375 322 702.193359375 328 c 2
 845.193359375 995 l 2xb8
EndSplineSet
Validated: 1
EndChar

StartChar: X
Encoding: 88 88 50
Width: 790
VWidth: 1198
Flags: W
HStem: 0 21G<53.6367 158.637 631.637 735.637> 0 21G<53.6367 158.637 631.637 735.637> 980 20G<53.6367 158.637 631.637 736.637>
LayerCount: 2
Fore
SplineSet
734.63671875 1000 m 2xa0
 738.63671875 1000 741.63671875 995 739.63671875 991 c 2
 454.63671875 502 l 2
 453.63671875 500 453.63671875 498 454.63671875 496 c 2
 738.63671875 9 l 2
 740.63671875 5 737.63671875 0 733.63671875 0 c 2
 632.63671875 0 l 2
 630.63671875 0 627.63671875 1 626.63671875 3 c 2
 399.63671875 392 l 2
 397.63671875 396 391.63671875 396 389.63671875 392 c 2
 162.63671875 3 l 2
 161.63671875 1 159.63671875 0 157.63671875 0 c 2
 55.63671875 0 l 2
 51.63671875 0 48.63671875 5 50.63671875 9 c 2
 334.63671875 496 l 2
 335.63671875 498 335.63671875 500 334.63671875 502 c 2
 50.63671875 991 l 2
 48.63671875 995 51.63671875 1000 55.63671875 1000 c 2
 157.63671875 1000 l 2
 159.63671875 1000 161.63671875 999 162.63671875 997 c 2
 389.63671875 608 l 2
 391.63671875 604 398.63671875 604 400.63671875 608 c 2
 627.63671875 997 l 2
 628.63671875 999 630.63671875 1000 632.63671875 1000 c 2
 734.63671875 1000 l 2xa0
EndSplineSet
Validated: 1
EndChar

StartChar: Y
Encoding: 89 89 51
Width: 789
VWidth: 1198
Flags: W
HStem: 0 21G<349.137 440.137> 0 21G<349.137 440.137> 980 20G<53.6367 158.637 630.637 735.637>
VStem: 344.637 100<0 527.297>
LayerCount: 2
Fore
SplineSet
626.63671875 997 m 2xb0
 627.63671875 999 629.63671875 1000 631.63671875 1000 c 2
 733.63671875 1000 l 2
 737.63671875 1000 740.63671875 995 738.63671875 991 c 2
 445.63671875 488 l 2
 444.63671875 487 444.63671875 486 444.63671875 485 c 2
 444.63671875 6 l 2
 444.63671875 3 441.63671875 0 438.63671875 0 c 2
 350.63671875 0 l 2
 347.63671875 0 344.63671875 3 344.63671875 6 c 2
 344.63671875 485 l 2
 344.63671875 486 345.63671875 487 344.63671875 488 c 2
 50.63671875 991 l 2
 48.63671875 995 51.63671875 1000 55.63671875 1000 c 2
 157.63671875 1000 l 2
 159.63671875 1000 161.63671875 999 162.63671875 997 c 2
 388.63671875 608 l 2
 390.63671875 604 397.63671875 604 399.63671875 608 c 2
 626.63671875 997 l 2xb0
EndSplineSet
Validated: 1
EndChar

StartChar: Z
Encoding: 90 90 52
Width: 800
VWidth: 1198
Flags: W
HStem: 0 100<204.91 750> 900 100<50 602.09>
LayerCount: 2
Fore
SplineSet
750 935 m 2
 750 933 750 933 749 932 c 2
 205 110 l 2
 203 106 206 100 210 100 c 2
 744 100 l 2
 747 100 750 97 750 94 c 2
 750 6 l 2
 750 3 747 0 744 0 c 2
 133 0 l 1
 56 0 l 2
 53 0 50 3 50 6 c 2
 50 55 l 2
 50 57 50 57 51 58 c 2
 602 891 l 2
 604 895 601 900 597 900 c 2
 56 900 l 2
 53 900 50 903 50 906 c 2
 50 994 l 2
 50 997 53 1000 56 1000 c 2
 674 1000 l 1
 744 1000 l 2
 747 1000 750 997 750 994 c 2
 750 935 l 2
EndSplineSet
Validated: 1
EndChar

StartChar: zero
Encoding: 48 48 53
Width: 800
VWidth: 1198
Flags: W
HStem: 0 100<150 650> 900 100<150 650>
VStem: 50 100<100 900> 650 100<100 900>
LayerCount: 2
Fore
SplineSet
675 0 m 2
 125 0 l 2
 84 0 50 34 50 75 c 2
 50 925 l 2
 50 966 84 1000 125 1000 c 2
 675 1000 l 2
 716 1000 750 966 750 925 c 2
 750 75 l 2
 750 34 716 0 675 0 c 2
175 100 m 2
 625 100 l 2
 639 100 650 111 650 125 c 2
 650 875 l 2
 650 889 639 900 625 900 c 2
 175 900 l 2
 161 900 150 889 150 875 c 2
 150 125 l 2
 150 111 161 100 175 100 c 2
EndSplineSet
Validated: 1
EndChar

StartChar: one
Encoding: 49 49 54
Width: 600
VWidth: 1198
Flags: W
HStem: 0 100<50 250 350 550> 900 100<50 250>
VStem: 250 100<100 900>
LayerCount: 2
Fore
SplineSet
350 106 m 2
 350 103 353 100 356 100 c 2
 544 100 l 2
 547 100 550 97 550 94 c 2
 550 6 l 2
 550 3 547 0 544 0 c 2
 56 0 l 2
 53 0 50 3 50 6 c 2
 50 94 l 2
 50 97 53 100 56 100 c 2
 244 100 l 2
 247 100 250 103 250 106 c 2
 250 894 l 2
 250 897 247 900 244 900 c 2
 56 900 l 2
 53 900 50 903 50 906 c 2
 50 994 l 2
 50 997 53 1000 56 1000 c 2
 344 1000 l 2
 347 1000 350 997 350 994 c 2
 350 106 l 2
EndSplineSet
Validated: 1
EndChar

StartChar: two
Encoding: 50 50 55
Width: 800
VWidth: 1198
Flags: W
HStem: 0 100<150 750> 900 100<50 650>
VStem: 50 100<100 255.938> 650 100<744.062 900>
LayerCount: 2
Fore
SplineSet
744 0 m 2
 125 0 l 2
 84 0 50 34 50 75 c 2
 50 253 l 2
 50 276 61 298 79 312 c 2
 648 758 l 2
 650 759 650 761 650 763 c 2
 650 875 l 2
 650 889 639 900 625 900 c 2
 56 900 l 2
 53 900 50 903 50 906 c 2
 50 994 l 2
 50 997 53 1000 56 1000 c 2
 675 1000 l 2
 716 1000 750 966 750 925 c 2
 750 748 l 2
 750 725 740 702 721 688 c 2
 152 242 l 2
 150 241 150 240 150 238 c 2
 150 125 l 2
 150 111 161 100 175 100 c 2
 744 100 l 2
 747 100 750 97 750 94 c 2
 750 6 l 2
 750 3 747 0 744 0 c 2
EndSplineSet
Validated: 1
EndChar

StartChar: three
Encoding: 51 51 56
Width: 800
VWidth: 1198
Flags: W
HStem: 0 100<50 650> 450 100<150 650> 900 100<50 650>
VStem: 650 100<100 449.33 550.67 900>
CounterMasks: 1 e0
LayerCount: 2
Fore
SplineSet
750 925 m 2
 750 575 l 2
 750 547 741 521 725 500 c 1
 741 479 750 453 750 425 c 2
 750 75 l 2
 750 34 716 0 675 0 c 2
 56 0 l 2
 53 0 50 3 50 6 c 2
 50 94 l 2
 50 97 53 100 56 100 c 2
 650 100 l 1
 650 425 l 2
 650 439 639 450 625 450 c 2
 156 450 l 2
 153 450 150 453 150 456 c 2
 150 544 l 2
 150 547 153 550 156 550 c 2
 625 550 l 2
 639 550 650 561 650 575 c 2
 650 900 l 1
 56 900 l 2
 53 900 50 903 50 906 c 2
 50 994 l 2
 50 997 53 1000 56 1000 c 2
 675 1000 l 2
 716 1000 750 966 750 925 c 2
EndSplineSet
Validated: 1
EndChar

StartChar: four
Encoding: 52 52 57
Width: 800
VWidth: 1198
Flags: W
HStem: 0 21G<554.5 645.5> 0 21G<554.5 645.5> 200 100<150 550 650 750> 980 20G<579 645.5>
VStem: 50 100<300 369.844> 550 100<0 200 300 814>
LayerCount: 2
Fore
SplineSet
644 1000 m 2xbc
 647 1000 650 997 650 994 c 2
 650 300 l 1
 744 300 l 2
 747 300 750 297 750 294 c 2
 750 206 l 2
 750 203 747 200 744 200 c 2
 650 200 l 1
 650 6 l 2
 650 3 647 0 644 0 c 2
 556 0 l 2
 553 0 550 3 550 6 c 2
 550 200 l 1
 119 200 l 2
 81 200 50 231 50 269 c 2
 50 356 l 2
 50 374 57 390 68 404 c 2
 575 998 l 2
 577 1000 578 1000 580 1000 c 2
 644 1000 l 2xbc
550 300 m 1
 550 814 l 1
 152 348 l 2
 151 347 150 346 150 344 c 2
 150 325 l 2
 150 311 161 300 175 300 c 2
 550 300 l 1
EndSplineSet
Validated: 1
EndChar

StartChar: five
Encoding: 53 53 58
Width: 800
VWidth: 1198
Flags: W
HStem: 0 100<50 650> 450 100<150 650> 900 100<150 750>
VStem: 50 100<550 900> 650 100<100 450>
CounterMasks: 1 e0
LayerCount: 2
Fore
SplineSet
675 0 m 2
 56 0 l 2
 53 0 50 3 50 6 c 2
 50 94 l 2
 50 97 53 100 56 100 c 2
 625 100 l 2
 639 100 650 111 650 125 c 2
 650 425 l 2
 650 439 639 450 625 450 c 2
 125 450 l 2
 84 450 50 484 50 525 c 2
 50 925 l 2
 50 966 84 1000 125 1000 c 2
 744 1000 l 2
 747 1000 750 997 750 994 c 2
 750 906 l 2
 750 903 747 900 744 900 c 2
 175 900 l 2
 161 900 150 889 150 875 c 2
 150 575 l 2
 150 561 161 550 175 550 c 2
 675 550 l 2
 716 550 750 516 750 475 c 2
 750 75 l 2
 750 34 716 0 675 0 c 2
EndSplineSet
Validated: 1
EndChar

StartChar: six
Encoding: 54 54 59
Width: 800
VWidth: 1198
Flags: W
HStem: 0 100<150 650> 449 101<150 650> 900 100<150 750>
VStem: 50 100<100 449 550 900> 650 100<100 450>
LayerCount: 2
Fore
SplineSet
675 0 m 2
 125 0 l 2
 84 0 50 34 50 75 c 2
 50 925 l 2
 50 966 84 1000 125 1000 c 2
 744 1000 l 2
 747 1000 750 997 750 994 c 2
 750 906 l 2
 750 903 747 900 744 900 c 2
 175 900 l 2
 161 900 150 889 150 875 c 2
 150 550 l 1
 675 550 l 1
 695 550 714 542 728 528 c 0
 742 514 750 495 750 475 c 2
 750 75 l 2
 750 34 716 0 675 0 c 2
175 100 m 2
 625 100 l 2
 639 100 650 111 650 125 c 2
 650 425 l 2
 650 439 639 450 625 450 c 2
 150 449 l 1
 150 125 l 2
 150 111 161 100 175 100 c 2
EndSplineSet
Validated: 1
EndChar

StartChar: seven
Encoding: 55 55 60
Width: 800
VWidth: 1198
Flags: W
HStem: 0 21G<235.438 335> 0 21G<235.438 335> 900 100<50 630.518>
VStem: 630.526 119.474<846.562 900>
LayerCount: 2
Fore
SplineSet
675 1000 m 6xb0
 716 1000 750 966 750 925 c 6
 750 890 l 6
 750 889 750 889 749 888 c 6
 339 4 l 6
 338 2 336 0 334 0 c 6
 237 0 l 6
 233.876894374 0 231.363400546 2.43844718719 231.363400546 5.41145952955 c 0
 231.363400546 6.24621125124 231.561552813 7.12310562562 232 8 c 6
 628 865 l 6
 629.731107001 868.462214002 630.525735424 872.06489979 630.525735424 875.58514998 c 0
 630.525735424 888.333103605 620.105009248 900 606 900 c 6
 56 900 l 6
 53 900 50 903 50 906 c 6
 50 994 l 6
 50 997 53 1000 56 1000 c 6
 675 1000 l 6xb0
EndSplineSet
Validated: 1
EndChar

StartChar: eight
Encoding: 56 56 61
Width: 800
VWidth: 1198
Flags: W
HStem: 0 100<150 650> 450 100<150 650> 900 100<150 650>
VStem: 50 100<100 449.33 550.67 900> 650 100<100 449.33 550.67 900>
CounterMasks: 1 e0
LayerCount: 2
Fore
SplineSet
750 925 m 2
 750 575 l 2
 750 547 741 521 725 500 c 1
 741 479 750 453 750 425 c 2
 750 75 l 2
 750 34 716 0 675 0 c 2
 125 0 l 2
 84 0 50 34 50 75 c 2
 50 425 l 2
 50 453 59 479 75 500 c 1
 59 521 50 547 50 575 c 2
 50 925 l 2
 50 966 84 1000 125 1000 c 2
 675 1000 l 2
 716 1000 750 966 750 925 c 2
150 900 m 1
 150 575 l 2
 150 561 161 550 175 550 c 2
 625 550 l 2
 639 550 650 561 650 575 c 2
 650 900 l 1
 150 900 l 1
650 100 m 1
 650 425 l 2
 650 439 639 450 625 450 c 2
 175 450 l 2
 161 450 150 439 150 425 c 2
 150 100 l 1
 650 100 l 1
EndSplineSet
Validated: 1
EndChar

StartChar: nine
Encoding: 57 57 62
Width: 800
VWidth: 1198
Flags: W
HStem: 0 100<50 650> 450 100<150 650> 900 100<150 650>
VStem: 50 100<550 900> 650 100<100 450 550 900>
CounterMasks: 1 e0
LayerCount: 2
Fore
SplineSet
675 0 m 2
 50 0 l 1
 50 100 l 1
 650 100 l 1
 650 450 l 1
 125 450 l 2
 84 450 50 484 50 525 c 2
 50 925 l 2
 50 966 84 1000 125 1000 c 2
 675 1000 l 2
 716 1000 750 966 750 925 c 2
 750 75 l 2
 750 34 716 0 675 0 c 2
150 550 m 1
 650 550 l 1
 650 900 l 1
 150 900 l 1
 150 550 l 1
EndSplineSet
Validated: 1
EndChar

StartChar: exclam
Encoding: 33 33 63
Width: 199
VWidth: 1198
Flags: W
HStem: 0 139<50 150> 980 20G<54.5 145.5>
VStem: 50 100<0 139 360 1000>
LayerCount: 2
Fore
SplineSet
144 360 m 2
 56 360 l 2
 53 360 50 363 50 366 c 2
 50 994 l 2
 50 997 53 1000 56 1000 c 2
 144 1000 l 2
 147 1000 150 997 150 994 c 2
 150 366 l 2
 150 363 147 360 144 360 c 2
144 0 m 2
 56 0 l 2
 53 0 50 3 50 6 c 2
 50 133 l 2
 50 136 53 139 56 139 c 2
 144 139 l 2
 147 139 150 136 150 133 c 2
 150 6 l 2
 150 3 147 0 144 0 c 2
EndSplineSet
Validated: 1
EndChar

StartChar: Agrave
Encoding: 192 192 64
Width: 800
VWidth: 1200
Flags: W
HStem: 0 21G<54.3501 145.65 654.35 745.65> 0 21G<54.3501 145.65 654.35 745.65> 450 100<150 650> 900 100<150 650>
VStem: 50 100<0 450 550 900> 650 100<0 450 550 900>
LayerCount: 2
Fore
SplineSet
675 1000 m 6xbc
 716.400390625 1000 750 966.400390625 750 925 c 6
 750 6 l 6
 750 2.7001953125 747.299804688 0 744 0 c 6
 656 0 l 6
 652.700195312 0 650 2.7001953125 650 6 c 6
 650 444 l 6
 650 447.299804688 647.299804688 450 644 450 c 6
 156 450 l 6
 152.700195312 450 150 447.299804688 150 444 c 6
 150 6 l 6
 150 2.7001953125 147.299804688 0 144 0 c 6
 56 0 l 6
 52.7001953125 0 50 2.7001953125 50 6 c 6
 50 925 l 6
 50 966.400390625 83.599609375 1000 125 1000 c 6
 675 1000 l 6xbc
150 556 m 6
 150 552.700195312 152.700195312 550 156 550 c 6
 644 550 l 6
 647.299804688 550 650 552.700195312 650 556 c 6
 650 875 l 6
 650 888.799804688 638.799804688 900 625 900 c 6
 175 900 l 6
 161.200195312 900 150 888.799804688 150 875 c 6
 150 556 l 6
353.700195312 1106.90039062 m 6
 215.099609375 1381.90039062 l 6
 210.900390625 1390.20019531 217 1400 226.299804688 1400 c 6
 346.900390625 1400 l 6
 352.299804688 1400 357.099609375 1396.5 358.799804688 1391.40039062 c 6
 448.799804688 1116.40039062 l 6
 451.400390625 1108.29980469 445.400390625 1100 436.900390625 1100 c 6
 364.799804688 1100 l 6
 360.099609375 1100 355.799804688 1102.70019531 353.700195312 1106.90039062 c 6
EndSplineSet
Validated: 1
EndChar

StartChar: Egrave
Encoding: 200 200 65
Width: 800
VWidth: 1200
Flags: W
HStem: 0 100<150 750> 450 100<150 700> 900 100<150 750>
VStem: 50 100<100 450 550 900>
CounterMasks: 1 e0
LayerCount: 2
Fore
SplineSet
750 906 m 6
 750 902.700195312 747.299804688 900 744 900 c 6
 156 900 l 6
 152.700195312 900 150 897.299804688 150 894 c 6
 150 556 l 6
 150 552.700195312 152.700195312 550 156 550 c 6
 694 550 l 6
 697.299804688 550 700 547.299804688 700 544 c 6
 700 456 l 6
 700 452.700195312 697.299804688 450 694 450 c 6
 156 450 l 6
 152.700195312 450 150 447.299804688 150 444 c 6
 150 125 l 6
 150 111.200195312 161.200195312 100 175 100 c 6
 744 100 l 6
 747.299804688 100 750 97.2998046875 750 94 c 6
 750 6 l 6
 750 2.7001953125 747.299804688 0 744 0 c 6
 125 0 l 6
 83.599609375 0 50 33.599609375 50 75 c 6
 50 994 l 6
 50 997.299804688 52.7001953125 1000 56 1000 c 6
 744 1000 l 6
 747.299804688 1000 750 997.299804688 750 994 c 6
 750 906 l 6
353.700195312 1106.90039062 m 6
 215.099609375 1381.90039062 l 6
 210.900390625 1390.20019531 217 1400 226.299804688 1400 c 6
 346.900390625 1400 l 6
 352.299804688 1400 357.099609375 1396.5 358.799804688 1391.40039062 c 6
 448.799804688 1116.40039062 l 6
 451.400390625 1108.29980469 445.400390625 1100 436.900390625 1100 c 6
 364.799804688 1100 l 6
 360.099609375 1100 355.799804688 1102.70019531 353.700195312 1106.90039062 c 6
EndSplineSet
Validated: 1
EndChar

StartChar: Igrave
Encoding: 204 204 66
Width: 436
VWidth: 1200
Flags: W
HStem: 0 100<61.1641 161.664 261.664 361.164> 900 100<61.1641 161.664 261.664 361.164>
VStem: 61.1641 300<0 100 900 1000> 161.664 100<100 900>
LayerCount: 2
Fore
SplineSet
361.1640625 906 m 6xe0
 361.1640625 902.700195312 358.463867188 900 355.1640625 900 c 6
 267.6640625 900 l 6
 264.364257812 900 261.6640625 897.299804688 261.6640625 894 c 6
 261.6640625 106 l 6xd0
 261.6640625 102.700195312 264.364257812 100 267.6640625 100 c 6
 355.1640625 100 l 6
 358.463867188 100 361.1640625 97.2998046875 361.1640625 94 c 6
 361.1640625 6 l 6
 361.1640625 2.7001953125 358.463867188 0 355.1640625 0 c 6
 67.1640625 0 l 6
 63.8642578125 0 61.1640625 2.7001953125 61.1640625 6 c 6
 61.1640625 94 l 6xe0
 61.1640625 97.2998046875 63.8642578125 100 67.1640625 100 c 6
 155.6640625 100 l 6
 158.963867188 100 161.6640625 102.700195312 161.6640625 106 c 6
 161.6640625 894 l 6xd0
 161.6640625 897.299804688 158.963867188 900 155.6640625 900 c 6
 67.1640625 900 l 6
 63.8642578125 900 61.1640625 902.700195312 61.1640625 906 c 6
 61.1640625 994 l 6
 61.1640625 997.299804688 63.8642578125 1000 67.1640625 1000 c 6
 355.1640625 1000 l 6
 358.463867188 1000 361.1640625 997.299804688 361.1640625 994 c 6
 361.1640625 906 l 6xe0
164.864257812 1106.90039062 m 6
 26.3642578125 1381.90039062 l 6
 22.1640625 1390.20019531 28.1640625 1400 37.4638671875 1400 c 6
 158.063476562 1400 l 6
 163.463867188 1400 168.263671875 1396.5 169.963867188 1391.40039062 c 6
 259.963867188 1116.40039062 l 6
 262.563476562 1108.29980469 256.563476562 1100 248.063476562 1100 c 6
 175.963867188 1100 l 6
 171.263671875 1100 166.963867188 1102.70019531 164.864257812 1106.90039062 c 6
EndSplineSet
Validated: 1
EndChar

StartChar: Ograve
Encoding: 210 210 67
Width: 800
VWidth: 1200
Flags: W
HStem: 0 100<150 650> 900 100<150 650>
VStem: 50 100<100 900> 650 100<100 900>
LayerCount: 2
Fore
SplineSet
675 0 m 6
 125 0 l 6
 83.599609375 0 50 33.599609375 50 75 c 6
 50 925 l 6
 50 966.400390625 83.599609375 1000 125 1000 c 6
 675 1000 l 6
 716.400390625 1000 750 966.400390625 750 925 c 6
 750 75 l 6
 750 33.599609375 716.400390625 0 675 0 c 6
175 100 m 6
 625 100 l 6
 638.799804688 100 650 111.200195312 650 125 c 6
 650 875 l 6
 650 888.799804688 638.799804688 900 625 900 c 6
 175 900 l 6
 161.200195312 900 150 888.799804688 150 875 c 6
 150 125 l 6
 150 111.200195312 161.200195312 100 175 100 c 6
353.700195312 1106.90039062 m 6
 215.099609375 1381.90039062 l 6
 210.900390625 1390.20019531 217 1400 226.299804688 1400 c 6
 346.900390625 1400 l 6
 352.299804688 1400 357.099609375 1396.5 358.799804688 1391.40039062 c 6
 448.799804688 1116.40039062 l 6
 451.400390625 1108.29980469 445.400390625 1100 436.900390625 1100 c 6
 364.799804688 1100 l 6
 360.099609375 1100 355.799804688 1102.70019531 353.700195312 1106.90039062 c 6
EndSplineSet
Validated: 1
EndChar

StartChar: Ugrave
Encoding: 217 217 68
Width: 800
VWidth: 1200
Flags: W
HStem: 0 100<150 650> 980 20G<54.3501 145.65 654.35 745.65>
VStem: 50 100<100 1000> 650 100<100 1000>
LayerCount: 2
Fore
SplineSet
675 0 m 6
 125 0 l 6
 83.599609375 0 50 33.599609375 50 75 c 6
 50 994 l 6
 50 997.299804688 52.7001953125 1000 56 1000 c 6
 144 1000 l 6
 147.299804688 1000 150 997.299804688 150 994 c 6
 150 125 l 6
 150 111.200195312 161.200195312 100 175 100 c 6
 625 100 l 6
 638.799804688 100 650 111.200195312 650 125 c 6
 650 994 l 6
 650 997.299804688 652.700195312 1000 656 1000 c 6
 744 1000 l 6
 747.299804688 1000 750 997.299804688 750 994 c 6
 750 75 l 6
 750 33.599609375 716.400390625 0 675 0 c 6
353.700195312 1106.90039062 m 6
 215.099609375 1381.90039062 l 6
 210.900390625 1390.20019531 217 1400 226.299804688 1400 c 6
 346.900390625 1400 l 6
 352.299804688 1400 357.099609375 1396.5 358.799804688 1391.40039062 c 6
 448.799804688 1116.40039062 l 6
 451.400390625 1108.29980469 445.400390625 1100 436.900390625 1100 c 6
 364.799804688 1100 l 6
 360.099609375 1100 355.799804688 1102.70019531 353.700195312 1106.90039062 c 6
EndSplineSet
Validated: 1
EndChar

StartChar: Aacute
Encoding: 193 193 69
Width: 800
VWidth: 1200
Flags: W
HStem: 0 21G<54.3501 145.65 654.35 745.65> 0 21G<54.3501 145.65 654.35 745.65> 450 100<150 650> 900 100<150 650>
VStem: 50 100<0 450 550 900> 650 100<0 450 550 900>
LayerCount: 2
Fore
SplineSet
675 1000 m 6xbc
 716.400390625 1000 750 966.400390625 750 925 c 6
 750 6 l 6
 750 2.7001953125 747.299804688 0 744 0 c 6
 656 0 l 6
 652.700195312 0 650 2.7001953125 650 6 c 6
 650 444 l 6
 650 447.299804688 647.299804688 450 644 450 c 6
 156 450 l 6
 152.700195312 450 150 447.299804688 150 444 c 6
 150 6 l 6
 150 2.7001953125 147.299804688 0 144 0 c 6
 56 0 l 6
 52.7001953125 0 50 2.7001953125 50 6 c 6
 50 925 l 6
 50 966.400390625 83.599609375 1000 125 1000 c 6
 675 1000 l 6xbc
150 556 m 6
 150 552.700195312 152.700195312 550 156 550 c 6
 644 550 l 6
 647.299804688 550 650 552.700195312 650 556 c 6
 650 875 l 6
 650 888.799804688 638.799804688 900 625 900 c 6
 175 900 l 6
 161.200195312 900 150 888.799804688 150 875 c 6
 150 556 l 6
445.900390625 1106.90039062 m 6
 443.799804688 1102.70019531 439.5 1100 434.799804688 1100 c 6
 362.700195312 1100 l 6
 354.200195312 1100 348.200195312 1108.29980469 350.799804688 1116.40039062 c 6
 440.799804688 1391.40039062 l 6
 442.5 1396.5 447.299804688 1400 452.700195312 1400 c 6
 573.299804688 1400 l 6
 582.599609375 1400 588.700195312 1390.20019531 584.5 1381.90039062 c 6
 445.900390625 1106.90039062 l 6
EndSplineSet
Validated: 1
EndChar

StartChar: Eacute
Encoding: 201 201 70
Width: 800
VWidth: 1200
Flags: W
HStem: 0 100<150 750> 450 100<150 700> 900 100<150 750>
VStem: 50 100<100 450 550 900>
CounterMasks: 1 e0
LayerCount: 2
Fore
SplineSet
750 906 m 6
 750 902.700195312 747.299804688 900 744 900 c 6
 156 900 l 6
 152.700195312 900 150 897.299804688 150 894 c 6
 150 556 l 6
 150 552.700195312 152.700195312 550 156 550 c 6
 694 550 l 6
 697.299804688 550 700 547.299804688 700 544 c 6
 700 456 l 6
 700 452.700195312 697.299804688 450 694 450 c 6
 156 450 l 6
 152.700195312 450 150 447.299804688 150 444 c 6
 150 125 l 6
 150 111.200195312 161.200195312 100 175 100 c 6
 744 100 l 6
 747.299804688 100 750 97.2998046875 750 94 c 6
 750 6 l 6
 750 2.7001953125 747.299804688 0 744 0 c 6
 125 0 l 6
 83.599609375 0 50 33.599609375 50 75 c 6
 50 994 l 6
 50 997.299804688 52.7001953125 1000 56 1000 c 6
 744 1000 l 6
 747.299804688 1000 750 997.299804688 750 994 c 6
 750 906 l 6
445.900390625 1106.90039062 m 6
 443.799804688 1102.70019531 439.5 1100 434.799804688 1100 c 6
 362.700195312 1100 l 6
 354.200195312 1100 348.200195312 1108.29980469 350.799804688 1116.40039062 c 6
 440.799804688 1391.40039062 l 6
 442.5 1396.5 447.299804688 1400 452.700195312 1400 c 6
 573.299804688 1400 l 6
 582.599609375 1400 588.700195312 1390.20019531 584.5 1381.90039062 c 6
 445.900390625 1106.90039062 l 6
EndSplineSet
Validated: 1
EndChar

StartChar: Iacute
Encoding: 205 205 71
Width: 410
VWidth: 1200
Flags: W
HStem: 0 100<50 150.5 250.5 350> 900 100<50 150.5 250.5 350>
VStem: 50 300<0 100 900 1000> 150.5 100<100 900>
LayerCount: 2
Fore
SplineSet
350 906 m 6xe0
 350 902.700195312 347.299804688 900 344 900 c 6
 256.5 900 l 6
 253.200195312 900 250.5 897.299804688 250.5 894 c 6
 250.5 106 l 6xd0
 250.5 102.700195312 253.200195312 100 256.5 100 c 6
 344 100 l 6
 347.299804688 100 350 97.2998046875 350 94 c 6
 350 6 l 6
 350 2.7001953125 347.299804688 0 344 0 c 6
 56 0 l 6
 52.7001953125 0 50 2.7001953125 50 6 c 6
 50 94 l 6xe0
 50 97.2998046875 52.7001953125 100 56 100 c 6
 144.5 100 l 6
 147.799804688 100 150.5 102.700195312 150.5 106 c 6
 150.5 894 l 6xd0
 150.5 897.299804688 147.799804688 900 144.5 900 c 6
 56 900 l 6
 52.7001953125 900 50 902.700195312 50 906 c 6
 50 994 l 6
 50 997.299804688 52.7001953125 1000 56 1000 c 6
 344 1000 l 6
 347.299804688 1000 350 997.299804688 350 994 c 6
 350 906 l 6xe0
245.900390625 1106.90039062 m 6
 243.799804688 1102.70019531 239.5 1100 234.799804688 1100 c 6
 162.700195312 1100 l 6
 154.200195312 1100 148.200195312 1108.29980469 150.799804688 1116.40039062 c 6
 240.799804688 1391.40039062 l 6
 242.5 1396.5 247.299804688 1400 252.700195312 1400 c 6
 373.299804688 1400 l 6
 382.599609375 1400 388.700195312 1390.20019531 384.5 1381.90039062 c 6
 245.900390625 1106.90039062 l 6
EndSplineSet
Validated: 1
EndChar

StartChar: Oacute
Encoding: 211 211 72
Width: 800
VWidth: 1200
Flags: W
HStem: 0 100<150 650> 900 100<150 650>
VStem: 50 100<100 900> 650 100<100 900>
LayerCount: 2
Fore
SplineSet
675 0 m 6
 125 0 l 6
 83.599609375 0 50 33.599609375 50 75 c 6
 50 925 l 6
 50 966.400390625 83.599609375 1000 125 1000 c 6
 675 1000 l 6
 716.400390625 1000 750 966.400390625 750 925 c 6
 750 75 l 6
 750 33.599609375 716.400390625 0 675 0 c 6
175 100 m 6
 625 100 l 6
 638.799804688 100 650 111.200195312 650 125 c 6
 650 875 l 6
 650 888.799804688 638.799804688 900 625 900 c 6
 175 900 l 6
 161.200195312 900 150 888.799804688 150 875 c 6
 150 125 l 6
 150 111.200195312 161.200195312 100 175 100 c 6
445.900390625 1106.90039062 m 6
 443.799804688 1102.70019531 439.5 1100 434.799804688 1100 c 6
 362.700195312 1100 l 6
 354.200195312 1100 348.200195312 1108.29980469 350.799804688 1116.40039062 c 6
 440.799804688 1391.40039062 l 6
 442.5 1396.5 447.299804688 1400 452.700195312 1400 c 6
 573.299804688 1400 l 6
 582.599609375 1400 588.700195312 1390.20019531 584.5 1381.90039062 c 6
 445.900390625 1106.90039062 l 6
EndSplineSet
Validated: 1
EndChar

StartChar: Uacute
Encoding: 218 218 73
Width: 800
VWidth: 1200
Flags: W
HStem: 0 100<150 650> 980 20G<54.3501 145.65 654.35 745.65>
VStem: 50 100<100 1000> 650 100<100 1000>
LayerCount: 2
Fore
SplineSet
675 0 m 6
 125 0 l 6
 83.599609375 0 50 33.599609375 50 75 c 6
 50 994 l 6
 50 997.299804688 52.7001953125 1000 56 1000 c 6
 144 1000 l 6
 147.299804688 1000 150 997.299804688 150 994 c 6
 150 125 l 6
 150 111.200195312 161.200195312 100 175 100 c 6
 625 100 l 6
 638.799804688 100 650 111.200195312 650 125 c 6
 650 994 l 6
 650 997.299804688 652.700195312 1000 656 1000 c 6
 744 1000 l 6
 747.299804688 1000 750 997.299804688 750 994 c 6
 750 75 l 6
 750 33.599609375 716.400390625 0 675 0 c 6
445.900390625 1106.90039062 m 6
 443.799804688 1102.70019531 439.5 1100 434.799804688 1100 c 6
 362.700195312 1100 l 6
 354.200195312 1100 348.200195312 1108.29980469 350.799804688 1116.40039062 c 6
 440.799804688 1391.40039062 l 6
 442.5 1396.5 447.299804688 1400 452.700195312 1400 c 6
 573.299804688 1400 l 6
 582.599609375 1400 588.700195312 1390.20019531 584.5 1381.90039062 c 6
 445.900390625 1106.90039062 l 6
EndSplineSet
Validated: 1
EndChar

StartChar: agrave
Encoding: 224 224 74
Width: 700
Flags: W
HStem: 0 100<150 538.055> 300 100<150 550> 600 100<50 550>
VStem: 50 100<100 300> 550 100<0 16.9004 111.821 300 400 600>
CounterMasks: 1 e0
LayerCount: 2
Fore
SplineSet
575 700 m 2
 616.400390625 700 650 666.400390625 650 625 c 2
 650 400 l 1
 650 175 l 1
 650 6 l 2
 650 2.7001953125 647.299804688 0 644 0 c 2
 556 0 l 2
 552.700195312 0 550 2.7001953125 550 6 c 2
 550 16.900390625 l 1
 527.299804688 6.099609375 501.799804688 0 475 0 c 2
 125 0 l 2
 83.599609375 0 50 33.599609375 50 75 c 2
 50 325 l 2
 50 366.400390625 83.599609375 400 125 400 c 2
 544 400 l 2
 547.299804688 400 550 402.700195312 550 406 c 2
 550 575 l 2
 550 588.799804688 538.799804688 600 525 600 c 2
 56 600 l 2
 52.7001953125 600 50 602.700195312 50 606 c 2
 50 694 l 2
 50 697.299804688 52.7001953125 700 56 700 c 2
 575 700 l 2
475 100 m 2
 516.400390625 100 550 133.599609375 550 175 c 2
 550 294 l 2
 550 297.299804688 547.299804688 300 544 300 c 2
 175 300 l 2
 161.200195312 300 150 288.799804688 150 275 c 2
 150 125 l 2
 150 111.200195312 161.200195312 100 175 100 c 2
 475 100 l 2
303.700195312 806.900390625 m 2
 165.099609375 1081.90039062 l 2
 160.900390625 1090.20019531 167 1100 176.299804688 1100 c 2
 296.900390625 1100 l 2
 302.299804688 1100 307.099609375 1096.5 308.799804688 1091.40039062 c 2
 398.799804688 816.400390625 l 2
 401.400390625 808.299804688 395.400390625 800 386.900390625 800 c 2
 314.799804688 800 l 2
 310.099609375 800 305.799804688 802.700195312 303.700195312 806.900390625 c 2
EndSplineSet
Validated: 1
EndChar

StartChar: aacute
Encoding: 225 225 75
Width: 700
Flags: W
HStem: 0 100<150 538.055> 300 100<150 550> 600 100<50 550>
VStem: 50 100<100 300> 550 100<0 16.9004 111.821 300 400 600>
CounterMasks: 1 e0
LayerCount: 2
Fore
SplineSet
575 700 m 2
 616.400390625 700 650 666.400390625 650 625 c 2
 650 400 l 1
 650 175 l 1
 650 6 l 2
 650 2.7001953125 647.299804688 0 644 0 c 2
 556 0 l 2
 552.700195312 0 550 2.7001953125 550 6 c 2
 550 16.900390625 l 1
 527.299804688 6.099609375 501.799804688 0 475 0 c 2
 125 0 l 2
 83.599609375 0 50 33.599609375 50 75 c 2
 50 325 l 2
 50 366.400390625 83.599609375 400 125 400 c 2
 544 400 l 2
 547.299804688 400 550 402.700195312 550 406 c 2
 550 575 l 2
 550 588.799804688 538.799804688 600 525 600 c 2
 56 600 l 2
 52.7001953125 600 50 602.700195312 50 606 c 2
 50 694 l 2
 50 697.299804688 52.7001953125 700 56 700 c 2
 575 700 l 2
475 100 m 2
 516.400390625 100 550 133.599609375 550 175 c 2
 550 294 l 2
 550 297.299804688 547.299804688 300 544 300 c 2
 175 300 l 2
 161.200195312 300 150 288.799804688 150 275 c 2
 150 125 l 2
 150 111.200195312 161.200195312 100 175 100 c 2
 475 100 l 2
395.900390625 806.900390625 m 2
 393.799804688 802.700195312 389.5 800 384.799804688 800 c 2
 312.700195312 800 l 2
 304.200195312 800 298.200195312 808.299804688 300.799804688 816.400390625 c 2
 390.799804688 1091.40039062 l 2
 392.5 1096.5 397.299804688 1100 402.700195312 1100 c 2
 523.299804688 1100 l 2
 532.599609375 1100 538.700195312 1090.20019531 534.5 1081.90039062 c 2
 395.900390625 806.900390625 l 2
EndSplineSet
Validated: 1
EndChar

StartChar: egrave
Encoding: 232 232 76
Width: 700
Flags: W
HStem: 0 100<150 600> 300 100<150 550> 600 100<150 550>
VStem: 50 100<100 300 400 600> 550 100<400 600>
CounterMasks: 1 e0
LayerCount: 2
Fore
SplineSet
594 0 m 2
 125 0 l 2
 83.599609375 0 50 33.599609375 50 75 c 2
 50 625 l 2
 50 666.400390625 83.599609375 700 125 700 c 2
 575 700 l 2
 616.400390625 700 650 666.400390625 650 625 c 2
 650 306 l 2
 650 302.700195312 647.299804688 300 644 300 c 2
 156 300 l 2
 152.700195312 300 150 297.299804688 150 294 c 2
 150 125 l 2
 150 111.200195312 161.200195312 100 175 100 c 2
 594 100 l 2
 597.299804688 100 600 97.2998046875 600 94 c 2
 600 6 l 2
 600 2.7001953125 597.299804688 0 594 0 c 2
156 400 m 2
 544 400 l 2
 547.299804688 400 550 402.700195312 550 406 c 2
 550 575 l 2
 550 588.799804688 538.799804688 600 525 600 c 2
 175 600 l 2
 161.200195312 600 150 588.799804688 150 575 c 2
 150 406 l 2
 150 402.700195312 152.700195312 400 156 400 c 2
303.700195312 806.900390625 m 2
 165.099609375 1081.90039062 l 2
 160.900390625 1090.20019531 167 1100 176.299804688 1100 c 2
 296.900390625 1100 l 2
 302.299804688 1100 307.099609375 1096.5 308.799804688 1091.40039062 c 2
 398.799804688 816.400390625 l 2
 401.400390625 808.299804688 395.400390625 800 386.900390625 800 c 2
 314.799804688 800 l 2
 310.099609375 800 305.799804688 802.700195312 303.700195312 806.900390625 c 2
EndSplineSet
Validated: 1
EndChar

StartChar: eacute
Encoding: 233 233 77
Width: 700
Flags: W
HStem: 0 100<150 600> 300 100<150 550> 600 100<150 550>
VStem: 50 100<100 300 400 600> 550 100<400 600>
CounterMasks: 1 e0
LayerCount: 2
Fore
SplineSet
594 0 m 2
 125 0 l 2
 83.599609375 0 50 33.599609375 50 75 c 2
 50 625 l 2
 50 666.400390625 83.599609375 700 125 700 c 2
 575 700 l 2
 616.400390625 700 650 666.400390625 650 625 c 2
 650 306 l 2
 650 302.700195312 647.299804688 300 644 300 c 2
 156 300 l 2
 152.700195312 300 150 297.299804688 150 294 c 2
 150 125 l 2
 150 111.200195312 161.200195312 100 175 100 c 2
 594 100 l 2
 597.299804688 100 600 97.2998046875 600 94 c 2
 600 6 l 2
 600 2.7001953125 597.299804688 0 594 0 c 2
156 400 m 2
 544 400 l 2
 547.299804688 400 550 402.700195312 550 406 c 2
 550 575 l 2
 550 588.799804688 538.799804688 600 525 600 c 2
 175 600 l 2
 161.200195312 600 150 588.799804688 150 575 c 2
 150 406 l 2
 150 402.700195312 152.700195312 400 156 400 c 2
395.900390625 806.900390625 m 2
 393.799804688 802.700195312 389.5 800 384.799804688 800 c 2
 312.700195312 800 l 2
 304.200195312 800 298.200195312 808.299804688 300.799804688 816.400390625 c 2
 390.799804688 1091.40039062 l 2
 392.5 1096.5 397.299804688 1100 402.700195312 1100 c 2
 523.299804688 1100 l 2
 532.599609375 1100 538.700195312 1090.20019531 534.5 1081.90039062 c 2
 395.900390625 806.900390625 l 2
EndSplineSet
Validated: 1
EndChar

StartChar: igrave
Encoding: 236 236 78
Width: 386
Flags: W
HStem: 0 21G<190.502 281.802> 0 21G<190.502 281.802> 680 20G<190.502 281.802>
VStem: 186.152 100<0 700>
LayerCount: 2
Fore
SplineSet
280.15234375 0 m 2xb0
 192.15234375 0 l 2
 188.852539062 0 186.15234375 2.7001953125 186.15234375 6 c 2
 186.15234375 694 l 2
 186.15234375 697.299804688 188.852539062 700 192.15234375 700 c 2
 280.15234375 700 l 2
 283.452148438 700 286.15234375 697.299804688 286.15234375 694 c 2
 286.15234375 6 l 2
 286.15234375 2.7001953125 283.452148438 0 280.15234375 0 c 2xb0
189.852539062 806.900390625 m 2
 51.3525390625 1081.90039062 l 2
 47.15234375 1090.20019531 53.251953125 1100 62.5517578125 1100 c 2
 183.15234375 1100 l 2
 188.551757812 1100 193.352539062 1096.5 195.051757812 1091.40039062 c 2
 285.051757812 816.400390625 l 2
 287.65234375 808.299804688 281.65234375 800 273.15234375 800 c 2
 201.051757812 800 l 2
 196.251953125 800 191.952148438 802.700195312 189.852539062 806.900390625 c 2
EndSplineSet
Validated: 1
EndChar

StartChar: iacute
Encoding: 237 237 79
Width: 385
Flags: W
HStem: 0 21G<104.35 195.65> 0 21G<104.35 195.65> 680 20G<104.35 195.65>
VStem: 100 100<0 700>
LayerCount: 2
Fore
SplineSet
194 0 m 2xb0
 106 0 l 2
 102.700195312 0 100 2.7001953125 100 6 c 2
 100 694 l 2
 100 697.299804688 102.700195312 700 106 700 c 2
 194 700 l 2
 197.299804688 700 200 697.299804688 200 694 c 2
 200 6 l 2
 200 2.7001953125 197.299804688 0 194 0 c 2xb0
195.900390625 806.900390625 m 2
 193.799804688 802.700195312 189.5 800 184.799804688 800 c 2
 112.700195312 800 l 2
 104.200195312 800 98.2001953125 808.299804688 100.799804688 816.400390625 c 2
 190.799804688 1091.40039062 l 2
 192.5 1096.5 197.299804688 1100 202.700195312 1100 c 2
 323.299804688 1100 l 2
 332.599609375 1100 338.700195312 1090.20019531 334.5 1081.90039062 c 2
 195.900390625 806.900390625 l 2
EndSplineSet
Validated: 1
EndChar

StartChar: ograve
Encoding: 242 242 80
Width: 700
Flags: W
HStem: 0 100<150 550> 600 100<150 550>
VStem: 50 100<100 600> 550 100<100 600>
LayerCount: 2
Fore
SplineSet
575 0 m 2
 125 0 l 2
 83.599609375 0 50 33.599609375 50 75 c 2
 50 625 l 2
 50 666.400390625 83.599609375 700 125 700 c 2
 575 700 l 2
 616.400390625 700 650 666.400390625 650 625 c 2
 650 75 l 2
 650 33.599609375 616.400390625 0 575 0 c 2
175 100 m 2
 525 100 l 2
 538.799804688 100 550 111.200195312 550 125 c 2
 550 575 l 2
 550 588.799804688 538.799804688 600 525 600 c 2
 175 600 l 2
 161.200195312 600 150 588.799804688 150 575 c 2
 150 125 l 2
 150 111.200195312 161.200195312 100 175 100 c 2
303.700195312 806.900390625 m 2
 165.099609375 1081.90039062 l 2
 160.900390625 1090.20019531 167 1100 176.299804688 1100 c 2
 296.900390625 1100 l 2
 302.299804688 1100 307.099609375 1096.5 308.799804688 1091.40039062 c 2
 398.799804688 816.400390625 l 2
 401.400390625 808.299804688 395.400390625 800 386.900390625 800 c 2
 314.799804688 800 l 2
 310.099609375 800 305.799804688 802.700195312 303.700195312 806.900390625 c 2
EndSplineSet
Validated: 1
EndChar

StartChar: oacute
Encoding: 243 243 81
Width: 700
Flags: W
HStem: 0 100<150 550> 600 100<150 550> 1375 25<337.5 362.5>
VStem: 50 100<100 600> 337.5 25<1375 1400> 550 100<100 600>
CounterMasks: 1 1c
LayerCount: 2
Fore
SplineSet
575 0 m 2
 125 0 l 2
 83.599609375 0 50 33.599609375 50 75 c 2
 50 625 l 2
 50 666.400390625 83.599609375 700 125 700 c 2
 575 700 l 2
 616.400390625 700 650 666.400390625 650 625 c 2
 650 75 l 2
 650 33.599609375 616.400390625 0 575 0 c 2
175 100 m 2
 525 100 l 2
 538.799804688 100 550 111.200195312 550 125 c 2
 550 575 l 2
 550 588.799804688 538.799804688 600 525 600 c 2
 175 600 l 2
 161.200195312 600 150 588.799804688 150 575 c 2
 150 125 l 2
 150 111.200195312 161.200195312 100 175 100 c 2
395.900390625 806.900390625 m 2
 393.799804688 802.700195312 389.5 800 384.799804688 800 c 2
 312.700195312 800 l 2
 304.200195312 800 298.200195312 808.299804688 300.799804688 816.400390625 c 2
 390.799804688 1091.40039062 l 2
 392.5 1096.5 397.299804688 1100 402.700195312 1100 c 2
 523.299804688 1100 l 2
 532.599609375 1100 538.700195312 1090.20019531 534.5 1081.90039062 c 2
 395.900390625 806.900390625 l 2
337.5 1375 m 1
 337.5 1400 l 1
 362.5 1400 l 1
 362.5 1375 l 1
 337.5 1375 l 1
EndSplineSet
Validated: 1
EndChar

StartChar: ugrave
Encoding: 249 249 82
Width: 700
Flags: W
HStem: 0 100<150 538.055> 680 20G<54.3501 145.65 554.35 645.65>
VStem: 50 100<100 700> 550 100<0 16.9004 111.821 700>
LayerCount: 2
Fore
SplineSet
550 694 m 2
 550 697.299804688 552.700195312 700 556 700 c 2
 644 700 l 2
 647.299804688 700 650 697.299804688 650 694 c 2
 650 175 l 1
 650 6 l 2
 650 2.7001953125 647.299804688 0 644 0 c 2
 556 0 l 2
 552.700195312 0 550 2.7001953125 550 6 c 2
 550 16.900390625 l 1
 527.299804688 6.099609375 501.799804688 0 475 0 c 2
 125 0 l 2
 83.599609375 0 50 33.599609375 50 75 c 2
 50 694 l 2
 50 697.299804688 52.7001953125 700 56 700 c 2
 144 700 l 2
 147.299804688 700 150 697.299804688 150 694 c 2
 150 125 l 2
 150 111.200195312 161.200195312 100 175 100 c 2
 475 100 l 2
 516.400390625 100 550 133.599609375 550 175 c 2
 550 694 l 2
303.700195312 806.900390625 m 2
 165.099609375 1081.90039062 l 2
 160.900390625 1090.20019531 167 1100 176.299804688 1100 c 2
 296.900390625 1100 l 2
 302.299804688 1100 307.099609375 1096.5 308.799804688 1091.40039062 c 2
 398.799804688 816.400390625 l 2
 401.400390625 808.299804688 395.400390625 800 386.900390625 800 c 2
 314.799804688 800 l 2
 310.099609375 800 305.799804688 802.700195312 303.700195312 806.900390625 c 2
EndSplineSet
Validated: 1
EndChar

StartChar: uacute
Encoding: 250 250 83
Width: 700
Flags: W
HStem: 0 100<150 538.055> 680 20G<54.3501 145.65 554.35 645.65>
VStem: 50 100<100 700> 550 100<0 16.9004 111.821 700>
LayerCount: 2
Fore
SplineSet
550 694 m 2
 550 697.299804688 552.700195312 700 556 700 c 2
 644 700 l 2
 647.299804688 700 650 697.299804688 650 694 c 2
 650 175 l 1
 650 6 l 2
 650 2.7001953125 647.299804688 0 644 0 c 2
 556 0 l 2
 552.700195312 0 550 2.7001953125 550 6 c 2
 550 16.900390625 l 1
 527.299804688 6.099609375 501.799804688 0 475 0 c 2
 125 0 l 2
 83.599609375 0 50 33.599609375 50 75 c 2
 50 694 l 2
 50 697.299804688 52.7001953125 700 56 700 c 2
 144 700 l 2
 147.299804688 700 150 697.299804688 150 694 c 2
 150 125 l 2
 150 111.200195312 161.200195312 100 175 100 c 2
 475 100 l 2
 516.400390625 100 550 133.599609375 550 175 c 2
 550 694 l 2
395.900390625 806.900390625 m 2
 393.799804688 802.700195312 389.5 800 384.799804688 800 c 2
 312.700195312 800 l 2
 304.200195312 800 298.200195312 808.299804688 300.799804688 816.400390625 c 2
 390.799804688 1091.40039062 l 2
 392.5 1096.5 397.299804688 1100 402.700195312 1100 c 2
 523.299804688 1100 l 2
 532.599609375 1100 538.700195312 1090.20019531 534.5 1081.90039062 c 2
 395.900390625 806.900390625 l 2
EndSplineSet
Validated: 1
EndChar

StartChar: backslash
Encoding: 92 92 84
Width: 693
Flags: W
HStem: 0 21G<537.843 639.193> 0 21G<537.843 639.193> 980 20G<53.793 155.143>
LayerCount: 2
Fore
SplineSet
533.592773438 3.400390625 m 2xa0
 50.5927734375 991.400390625 l 2
 48.693359375 995.400390625 51.5927734375 1000 55.9931640625 1000 c 2
 153.993164062 1000 l 2
 156.29296875 1000 158.393554688 998.700195312 159.393554688 996.599609375 c 2
 642.393554688 8.599609375 l 2
 644.29296875 4.599609375 641.393554688 0 636.993164062 0 c 2
 538.993164062 0 l 2
 536.693359375 0 534.592773438 1.2998046875 533.592773438 3.400390625 c 2xa0
EndSplineSet
Validated: 1
EndChar

StartChar: quotedbl
Encoding: 34 34 85
Width: 500
Flags: W
HStem: 701.3 50<50 142.476 250 343.463> 800 200<50 149.671 192.803 250 275 349.867 392.855 450>
VStem: 50 200<800.229 1000> 275 175<800 1000>
LayerCount: 2
Fore
SplineSet
250 806 m 2
 250 802.700195312 247.299804688 800 244 800.200195312 c 2
 210.900390625 800.200195312 l 2
 208.400390625 800.200195312 206.200195312 798.700195312 205.299804688 796.400390625 c 2
 179.5 732.599609375 l 2
 171.799804688 713.700195312 153.5 701.299804688 133.099609375 701.299804688 c 2
 56 701.299804688 l 2
 52.7001953125 701.299804688 50 704 50 707.299804688 c 2
 50 745.299804688 l 2
 50 748.599609375 52.7001953125 751.299804688 56 751.299804688 c 2
 116.299804688 751.299804688 l 2
 126.5 751.299804688 135.700195312 757.400390625 139.5 766.900390625 c 2
 149.599609375 791.799804688 l 2
 151.200195312 795.700195312 148.299804688 800 144 800 c 2
 56 800 l 2
 52.7001953125 800 50 802.700195312 50 806 c 2
 50 994 l 2
 50 997.299804688 52.7001953125 1000 56 1000 c 2
 244 1000 l 2
 247.299804688 1000 250 997.299804688 250 994 c 2
 250 806 l 2
444 1000 m 2
 447.299804688 1000 450 997.299804688 450 994 c 2
 450 806 l 2
 450 802.700195312 447.299804688 800 444 800 c 2
 411 800 l 2
 408.5 800 406.299804688 798.5 405.400390625 796.200195312 c 2
 379.5 731.400390625 l 2
 371.900390625 712.299804688 353.700195312 700 333.099609375 700 c 2
 256 700 l 2
 252.700195312 700 250 702.700195312 250 706 c 2
 250 744 l 2
 250 747.299804688 252.700195312 750 256 750 c 2
 316.200195312 750 l 2
 326.400390625 750 335.599609375 756.200195312 339.400390625 765.700195312 c 2
 349.799804688 791.799804688 l 2
 351.299804688 795.700195312 348.400390625 800 344.200195312 800 c 2
 281 800 l 2
 277.700195312 800 275 802.700195312 275 806 c 2
 275 994 l 2
 275 997.299804688 277.700195312 1000 281 1000 c 2
 444 1000 l 2
EndSplineSet
Validated: 1
EndChar

StartChar: numbersign
Encoding: 35 35 86
Width: 900
Flags: W
HStem: -0.299805 21.2002G<209.2 300.95 509.3 601.05> -0.299805 21.2002G<209.2 300.95 509.3 601.05> 249.8 100.2<50 226.512 337.088 526.611 637.088 800.2> 600 99.7998<100 258.312 368.988 558.312 668.988 850> 979.7 20G<299.15 390.9 599.15 690.9>
LayerCount: 2
Fore
SplineSet
844 700 m 2xb8
 847.299804688 700 850 697.299804688 850 694 c 2
 850 606 l 2
 850 602.700195312 847.299804688 600 844 600 c 2
 664.700195312 600 l 2
 661.599609375 600 659 597.599609375 658.700195312 594.5 c 2
 637.099609375 356.5 l 2
 636.799804688 353 639.599609375 350 643.099609375 350 c 2
 794.200195312 350 l 2
 797.5 350 800.200195312 347.299804688 800.200195312 344 c 2
 800.200195312 256 l 2
 800.200195312 252.700195312 797.5 250 794.200195312 250 c 2
 633.200195312 250 l 2
 630.099609375 250 627.5 247.599609375 627.200195312 244.5 c 2
 605.5 5.400390625 l 2
 605.200195312 2.2998046875 602.599609375 -0.099609375 599.5 -0.099609375 c 2
 511.099609375 -0.099609375 l 2
 507.5 -0.099609375 504.799804688 2.900390625 505.099609375 6.400390625 c 2
 526.599609375 243.299804688 l 2
 526.900390625 246.799804688 524.099609375 249.799804688 520.599609375 249.799804688 c 2
 333.099609375 249.799804688 l 2
 330 249.799804688 327.400390625 247.400390625 327.099609375 244.299804688 c 2
 305.400390625 5.2001953125 l 2
 305.099609375 2.099609375 302.5 -0.2998046875 299.400390625 -0.2998046875 c 2
 211 -0.2998046875 l 2
 207.400390625 -0.2998046875 204.700195312 2.7001953125 205 6.2001953125 c 2
 226.5 243.099609375 l 2
 226.799804688 246.599609375 224 249.599609375 220.5 249.599609375 c 2
 56 249.599609375 l 2
 52.7001953125 249.599609375 50 252.299804688 50 255.599609375 c 2
 50 343.599609375 l 2
 50 346.900390625 52.7001953125 349.599609375 56 349.599609375 c 2
 230.700195312 349.599609375 l 2
 233.799804688 349.599609375 236.400390625 352 236.700195312 355.099609375 c 2
 258.299804688 593.099609375 l 2
 258.599609375 596.599609375 255.799804688 599.599609375 252.299804688 599.599609375 c 2
 106 599.599609375 l 2
 102.700195312 599.599609375 100 602.299804688 100 605.599609375 c 2
 100 693.599609375 l 2
 100 696.900390625 102.700195312 699.599609375 106 699.599609375 c 2
 262.400390625 699.599609375 l 2
 265.5 699.599609375 268.099609375 702 268.400390625 705.099609375 c 2
 294.700195312 994.200195312 l 2
 295 997.299804688 297.599609375 999.700195312 300.700195312 999.700195312 c 2
 389.099609375 999.700195312 l 2
 392.700195312 999.700195312 395.400390625 996.700195312 395.099609375 993.200195312 c 2
 369 706.299804688 l 2
 368.700195312 702.799804688 371.5 699.799804688 375 699.799804688 c 2
 562.400390625 699.799804688 l 2
 565.5 699.799804688 568.099609375 702.200195312 568.400390625 705.299804688 c 2
 594.700195312 994.400390625 l 2
 595 997.5 597.599609375 999.900390625 600.700195312 999.900390625 c 2
 689.099609375 999.900390625 l 2
 692.700195312 999.900390625 695.400390625 996.900390625 695.099609375 993.400390625 c 2
 669 706.5 l 2
 668.700195312 703 671.5 700 675 700 c 2
 844 700 l 2xb8
558.299804688 593.5 m 2
 558.599609375 597 555.799804688 600 552.200195312 600 c 2
 364.700195312 600 l 2
 361.599609375 600 359 597.599609375 358.700195312 594.5 c 2
 337.099609375 356.5 l 2
 336.799804688 353 339.599609375 350 343.099609375 350 c 2
 530.700195312 350 l 2
 533.799804688 350 536.400390625 352.400390625 536.700195312 355.5 c 2
 558.299804688 593.5 l 2
EndSplineSet
Validated: 1
EndChar

StartChar: slash
Encoding: 47 47 87
Width: 693
Flags: W
HStem: 0 21G<53.793 155.143> 0 21G<53.793 155.143> 980 20G<537.843 639.193>
LayerCount: 2
Fore
SplineSet
159.393554688 3.400390625 m 2xa0
 158.29296875 1.2998046875 156.29296875 0 153.993164062 0 c 2
 55.9931640625 0 l 2
 51.5927734375 0 48.693359375 4.599609375 50.5927734375 8.599609375 c 2
 533.592773438 996.599609375 l 2
 534.592773438 998.700195312 536.693359375 1000 538.993164062 1000 c 2
 636.993164062 1000 l 2
 641.393554688 1000 644.29296875 995.400390625 642.393554688 991.400390625 c 2
 159.393554688 3.400390625 l 2xa0
EndSplineSet
Validated: 1
EndChar

StartChar: dollar
Encoding: 36 36 88
Width: 800
Flags: W
HStem: 0 100<50 350 450 650> 450 100<150 350 450 650> 900 100<150 350 450 750>
VStem: 50 100<550 900> 350 100<-100 -8.10038e-08 100 450 550 900 1000 1100> 650 100<100 450>
CounterMasks: 1 fc
LayerCount: 2
Fore
SplineSet
744 900 m 2
 456 900 l 2
 452.700195312 900 450 897.299804688 450 894 c 2
 450 556 l 2
 450 552.700195312 452.700195312 550 456 550 c 2
 675 550 l 2
 716.400390625 550 750 516.400390625 750 475 c 2
 750 75 l 2
 750 33.599609375 716.400390625 0 675 0 c 2
 456 0 l 2
 452.700195312 0 450 -2.7001953125 450 -6 c 2
 450 -94 l 2
 450 -97.2998046875 447.299804688 -100 444 -100 c 2
 356 -100 l 2
 352.700195312 -100 350 -97.2998046875 350 -94 c 2
 350 -6 l 2
 350 -2.7001953125 347.299804688 0 344 0 c 2
 56 0 l 2
 52.7001953125 0 50 2.7001953125 50 6 c 2
 50 94 l 2
 50 97.2998046875 52.7001953125 100 56 100 c 2
 344 100 l 2
 347.299804688 100 350 102.700195312 350 106 c 2
 350 444 l 2
 350 447.299804688 347.299804688 450 344 450 c 2
 125 450 l 2
 83.599609375 450 50 483.599609375 50 525 c 2
 50 925 l 2
 50 966.400390625 83.599609375 1000 125 1000 c 2
 344 1000 l 2
 347.299804688 1000 350 1002.70019531 350 1006 c 2
 350 1094 l 2
 350 1097.29980469 352.700195312 1100 356 1100 c 2
 444 1100 l 2
 447.299804688 1100 450 1097.29980469 450 1094 c 2
 450 1006 l 2
 450 1002.70019531 452.700195312 1000 456 1000 c 2
 744 1000 l 2
 747.299804688 1000 750 997.299804688 750 994 c 2
 750 906 l 2
 750 902.700195312 747.299804688 900 744 900 c 2
625 450 m 2
 456 450 l 2
 452.700195312 450 450 447.299804688 450 444 c 2
 450 106 l 2
 450 102.700195312 452.700195312 100 456 100 c 2
 625 100 l 2
 638.799804688 100 650 111.200195312 650 125 c 2
 650 425 l 2
 650 438.799804688 638.799804688 450 625 450 c 2
344 550 m 2
 347.299804688 550 350 552.700195312 350 556 c 2
 350 894 l 2
 350 897.299804688 347.299804688 900 344 900 c 2
 175 900 l 2
 161.200195312 900 150 888.799804688 150 875 c 2
 150 575 l 2
 150 561.200195312 161.200195312 550 175 550 c 2
 344 550 l 2
EndSplineSet
Validated: 1
EndChar

StartChar: percent
Encoding: 37 37 89
Width: 800
Flags: W
HStem: 0 100<500 650> 300 100<500 650> 600 100<150 300> 900 100<150 300>
VStem: 50 100<700 900> 300 100<700 900> 400 100<100 300> 650 100<100 300>
LayerCount: 2
Fore
SplineSet
400 900 m 2xfd
 400 700 l 2
 400 644.900390625 355.099609375 600 300 600 c 2
 150 600 l 2
 94.900390625 600 50 644.900390625 50 700 c 2
 50 900 l 2
 50 955.099609375 94.900390625 1000 150 1000 c 2
 300 1000 l 2
 355.099609375 1000 400 955.099609375 400 900 c 2xfd
275 900 m 2
 175 900 l 2
 161.200195312 900 150 888.799804688 150 875 c 2
 150 725 l 2
 150 711.200195312 161.200195312 700 175 700 c 2
 275 700 l 2
 288.799804688 700 300 711.200195312 300 725 c 2
 300 875 l 2
 300 888.799804688 288.799804688 900 275 900 c 2
650 400 m 2
 705.099609375 400 750 355.099609375 750 300 c 2
 750 100 l 2
 750 44.900390625 705.099609375 0 650 0 c 2
 500 0 l 2
 444.900390625 0 400 44.900390625 400 100 c 2
 400 300 l 2
 400 355.099609375 444.900390625 400 500 400 c 2xfb
 650 400 l 2
625 300 m 2
 525 300 l 2
 511.200195312 300 500 288.799804688 500 275 c 2
 500 125 l 2
 500 111.200195312 511.200195312 100 525 100 c 2
 625 100 l 2
 638.799804688 100 650 111.200195312 650 125 c 2
 650 275 l 2
 650 288.799804688 638.799804688 300 625 300 c 2
207.599609375 3.2998046875 m 2
 206.5 1.2998046875 204.5 0 202.200195312 0 c 2
 103.799804688 0 l 2
 99.2998046875 0 96.400390625 4.7001953125 98.400390625 8.7001953125 c 2
 592.400390625 996.700195312 l 2
 593.400390625 998.700195312 595.5 1000 597.799804688 1000 c 2
 696.200195312 1000 l 2
 700.700195312 1000 703.599609375 995.299804688 701.599609375 991.299804688 c 2
 207.599609375 3.2998046875 l 2
EndSplineSet
Validated: 1
EndChar

StartChar: ampersand
Encoding: 38 38 90
Width: 900
Flags: W
HStem: 0 100<212.708 382.48 696.3 850> 900 100<210.711 650>
VStem: 50 100<153.799 400.537> 100 100<703.706 889.289>
LayerCount: 2
Fore
SplineSet
708.700195312 118.400390625 m 2xd0
 718.200195312 106.799804688 732.5 100 747.5 100 c 2
 844 100 l 2
 847.299804688 100 850 97.2998046875 850 94 c 2
 850 6 l 2
 850 2.7001953125 847.299804688 0 844 0 c 2
 723.700195312 0 l 2
 693.5 0 665.299804688 13.400390625 646.200195312 36.7998046875 c 2
 546.900390625 158.700195312 l 2
 544.5 161.599609375 540.200195312 161.700195312 537.700195312 158.900390625 c 2
 427.400390625 33.7998046875 l 2
 408.400390625 12.2998046875 381.099609375 0 352.400390625 0 c 2
 265.099609375 0 l 2
 245.299804688 0 226 5.7998046875 209.599609375 16.7998046875 c 2
 94.5 93.599609375 l 2
 66.7001953125 112.099609375 50 143.400390625 50 176.799804688 c 2
 50 375 l 2xe0
 50 406.299804688 65 436.200195312 90 455 c 2
 218.700195312 551.5 l 2
 221.5 553.599609375 222 557.5 219.799804688 560.099609375 c 2
 122.5 679.599609375 l 2
 108 697.400390625 100 719.900390625 100 742.799804688 c 2
 100 879.299804688 l 2xd0
 100 906 110.400390625 931.099609375 129.299804688 950 c 2
 150 970.700195312 l 2xe0
 168.900390625 989.599609375 194 1000 220.700195312 1000 c 2
 644 1000 l 2
 647.299804688 1000 650 997.299804688 650 994 c 2
 650 906 l 2
 650 902.700195312 647.299804688 900 644 900 c 2
 235.400390625 900 l 2
 226 900 217 896.200195312 210.400390625 889.599609375 c 1
 203.700195312 883 200 874 200 864.599609375 c 2
 200 760.599609375 l 2
 200 749.099609375 203.900390625 737.900390625 211.200195312 729 c 2
 540.900390625 324.299804688 l 2
 543.299804688 321.400390625 547.599609375 321.299804688 550.099609375 324.099609375 c 2
 708.5 503.599609375 l 2
 710.700195312 506.099609375 714.5 506.299804688 717 504.099609375 c 2
 783 445.900390625 l 2
 785.5 443.700195312 785.700195312 439.900390625 783.5 437.400390625 c 2
 609.5 240.200195312 l 1
 708.700195312 118.400390625 l 2xd0
329.900390625 100 m 2
 344.200195312 100 357.900390625 106.200195312 367.400390625 117 c 2
 475.099609375 239 l 2
 477.099609375 241.200195312 477.200195312 244.5 475.299804688 246.799804688 c 2
 290.700195312 473.299804688 l 2
 288.599609375 475.799804688 285 476.200195312 282.400390625 474.299804688 c 2
 170 390 l 2
 157.400390625 380.599609375 150 365.700195312 150 350 c 2
 150 203.5 l 2
 150 186.799804688 158.400390625 171.200195312 172.299804688 161.900390625 c 2
 252.599609375 108.400390625 l 2
 260.799804688 102.900390625 270.400390625 100 280.299804688 100 c 2
 329.900390625 100 l 2
EndSplineSet
Validated: 1
EndChar

StartChar: quotesingle
Encoding: 39 39 91
Width: 300
Flags: W
HStem: 701.3 50<50 142.476> 800 200<50 149.671 192.803 250>
VStem: 50 200<800.229 1000>
LayerCount: 2
Fore
SplineSet
250 806 m 2
 250 802.700195312 247.299804688 800 244 800.200195312 c 2
 210.900390625 800.200195312 l 2
 208.400390625 800.200195312 206.200195312 798.700195312 205.299804688 796.400390625 c 2
 179.5 732.599609375 l 2
 171.799804688 713.700195312 153.5 701.299804688 133.099609375 701.299804688 c 2
 56 701.299804688 l 2
 52.7001953125 701.299804688 50 704 50 707.299804688 c 2
 50 745.299804688 l 2
 50 748.599609375 52.7001953125 751.299804688 56 751.299804688 c 2
 116.299804688 751.299804688 l 2
 126.5 751.299804688 135.700195312 757.400390625 139.5 766.900390625 c 2
 149.599609375 791.799804688 l 2
 151.200195312 795.700195312 148.299804688 800 144 800 c 2
 56 800 l 2
 52.7001953125 800 50 802.700195312 50 806 c 2
 50 994 l 2
 50 997.299804688 52.7001953125 1000 56 1000 c 2
 244 1000 l 2
 247.299804688 1000 250 997.299804688 250 994 c 2
 250 806 l 2
EndSplineSet
Validated: 1
EndChar

StartChar: parenleft
Encoding: 40 40 92
Width: 332
Flags: W
VStem: 50 99.2246<190.364 809.699> 174.2 107.992<-100 -20.1926 1020.27 1100.1>
LayerCount: 2
Fore
SplineSet
179.700195312 -100 m 6
 177.299804688 -100 175.099609375 -98.599609375 174.200195312 -96.400390625 c 4
 136.799804688 -10.400390625 107.5 79.099609375 86.7998046875 170.400390625 c 4
 62.400390625 278.400390625 50 389.299804688 50 500 c 4
 50 610.700195312 62.400390625 721.599609375 86.7998046875 829.700195312 c 4
 107.5 921 136.799804688 1010.5 174.200195312 1096.5 c 4
 175.099609375 1098.70019531 177.299804688 1100.09960938 179.700195312 1100.09960938 c 6
 276.200195312 1100.09960938 l 6
 279.659819636 1100.09960938 282.192450586 1097.25521929 282.192450586 1094.09480777 c 0
 282.192450586 1093.23629771 282.005565165 1092.3544681 281.599609375 1091.5 c 4
 193.349609375 903.149902344 149.224609375 701.574951172 149.224609375 500.012451172 c 0
 149.224609375 298.449951172 193.349609375 96.8999023438 281.599609375 -91.400390625 c 4
 282.005565165 -92.2548587208 282.192450586 -93.1366883313 282.192450586 -93.9951983986 c 0
 282.192450586 -97.1556099107 279.659819636 -100 276.200195312 -100 c 6
 179.700195312 -100 l 6
EndSplineSet
Validated: 1
EndChar

StartChar: parenright
Encoding: 41 41 93
Width: 332
Flags: W
VStem: 50.0003 107.993<-100 -20.1926 1020.27 1100.1> 182.968 99.2256<190.414 809.708>
LayerCount: 2
Fore
SplineSet
152.493164062 -100 m 6
 55.9931640625 -100 l 6
 52.5325996304 -100 50.0003287398 -97.1553268834 50.0003287398 -93.994726699 c 0
 50.0003287398 -93.1363653256 50.1871005691 -92.2547022287 50.5927734375 -91.400390625 c 4
 138.842773438 96.8999023438 182.967773438 298.449951172 182.967773438 500.012451172 c 0
 182.967773438 701.574951172 138.842773438 903.149902344 50.5927734375 1091.5 c 4
 50.1871005691 1092.3543116 50.0003287398 1093.2359747 50.0003287398 1094.09433607 c 0
 50.0003287398 1097.25493626 52.5325996304 1100.09960938 55.9931640625 1100.09960938 c 6
 152.493164062 1100.09960938 l 6
 154.893554688 1100.09960938 157.092773438 1098.70019531 157.993164062 1096.5 c 4
 195.393554688 1010.5 224.693359375 921 245.393554688 829.700195312 c 4
 269.79296875 721.700195312 282.193359375 610.799804688 282.193359375 500.099609375 c 4
 282.193359375 389.400390625 269.79296875 278.5 245.393554688 170.5 c 4
 224.693359375 79.2001953125 195.393554688 -10.2998046875 157.993164062 -96.2998046875 c 4
 157.092773438 -98.599609375 154.893554688 -100 152.493164062 -100 c 6
EndSplineSet
Validated: 1
EndChar

StartChar: plus
Encoding: 43 43 94
Width: 800
Flags: W
HStem: 450 100<50 350 450 750>
VStem: 350 100<150 450 550 850>
LayerCount: 2
Fore
SplineSet
744 550 m 2
 747.299804688 550 750 547.299804688 750 544 c 2
 750 456 l 2
 750 452.700195312 747.299804688 450 744 450 c 2
 456 450 l 2
 452.700195312 450 450 447.299804688 450 444 c 2
 450 156 l 2
 450 152.700195312 447.299804688 150 444 150 c 2
 356 150 l 2
 352.700195312 150 350 152.700195312 350 156 c 2
 350 444 l 2
 350 447.299804688 347.299804688 450 344 450 c 2
 56 450 l 2
 52.7001953125 450 50 452.700195312 50 456 c 2
 50 544 l 2
 50 547.299804688 52.7001953125 550 56 550 c 2
 344 550 l 2
 347.299804688 550 350 552.700195312 350 556 c 2
 350 844 l 2
 350 847.299804688 352.700195312 850 356 850 c 2
 444 850 l 2
 447.299804688 850 450 847.299804688 450 844 c 2
 450 556 l 2
 450 552.700195312 452.700195312 550 456 550 c 2
 744 550 l 2
EndSplineSet
Validated: 1
EndChar

StartChar: comma
Encoding: 44 44 95
Width: 300
Flags: W
HStem: -98.7002 50<50 142.476> 0 200<50 149.671 192.803 250>
VStem: 50 200<0.228634 200>
LayerCount: 2
Fore
SplineSet
250 6 m 2
 250 2.7001953125 247.299804688 0 244 0.2001953125 c 2
 210.900390625 0.2001953125 l 2
 208.400390625 0.2001953125 206.200195312 -1.2998046875 205.299804688 -3.599609375 c 2
 179.5 -67.400390625 l 2
 171.799804688 -86.2998046875 153.5 -98.7001953125 133.099609375 -98.7001953125 c 2
 56 -98.7001953125 l 2
 52.7001953125 -98.7001953125 50 -96 50 -92.7001953125 c 2
 50 -54.7001953125 l 2
 50 -51.400390625 52.7001953125 -48.7001953125 56 -48.7001953125 c 2
 116.299804688 -48.7001953125 l 2
 126.5 -48.7001953125 135.700195312 -42.599609375 139.5 -33.099609375 c 2
 149.599609375 -8.2001953125 l 2
 151.200195312 -4.2998046875 148.299804688 0 144 0 c 2
 56 0 l 2
 52.7001953125 0 50 2.7001953125 50 6 c 2
 50 194 l 2
 50 197.299804688 52.7001953125 200 56 200 c 2
 244 200 l 2
 247.299804688 200 250 197.299804688 250 194 c 2
 250 6 l 2
EndSplineSet
Validated: 1
EndChar

StartChar: period
Encoding: 46 46 96
Width: 300
Flags: W
HStem: 0 200<50 250>
VStem: 50 200<0 200>
LayerCount: 2
Fore
SplineSet
244 0 m 2
 56 0 l 2
 52.7001953125 0 50 2.7001953125 50 6 c 2
 50 194 l 2
 50 197.299804688 52.7001953125 200 56 200 c 2
 244 200 l 2
 247.299804688 200 250 197.299804688 250 194 c 2
 250 6 l 2
 250 2.7001953125 247.299804688 0 244 0 c 2
EndSplineSet
Validated: 1
EndChar

StartChar: hyphen
Encoding: 45 45 97
Width: 700
Flags: W
HStem: 450 100<50 650>
LayerCount: 2
Fore
SplineSet
644 450 m 2
 56 450 l 2
 52.7001953125 450 50 452.700195312 50 456 c 2
 50 544 l 2
 50 547.299804688 52.7001953125 550 56 550 c 2
 644 550 l 2
 647.299804688 550 650 547.299804688 650 544 c 2
 650 456 l 2
 650 452.700195312 647.299804688 450 644 450 c 2
EndSplineSet
Validated: 1
EndChar

StartChar: colon
Encoding: 58 58 98
Width: 400
Flags: W
HStem: 150 200<100 300> 650 200<100 300>
VStem: 100 200<150 350 650 850>
LayerCount: 2
Fore
SplineSet
294 150 m 2
 106 150 l 2
 102.700195312 150 100 152.700195312 100 156 c 2
 100 344 l 2
 100 347.299804688 102.700195312 350 106 350 c 2
 294 350 l 2
 297.299804688 350 300 347.299804688 300 344 c 2
 300 156 l 2
 300 152.700195312 297.299804688 150 294 150 c 2
294 650 m 2
 106 650 l 2
 102.700195312 650 100 652.700195312 100 656 c 2
 100 844 l 2
 100 847.299804688 102.700195312 850 106 850 c 2
 294 850 l 2
 297.299804688 850 300 847.299804688 300 844 c 2
 300 656 l 2
 300 652.700195312 297.299804688 650 294 650 c 2
EndSplineSet
Validated: 1
EndChar

StartChar: semicolon
Encoding: 59 59 99
Width: 400
Flags: W
HStem: 50.2998 50<100 192.476> 149 200<100 199.671 242.803 300> 650 200<100 300>
VStem: 100 200<149.229 349 650 850>
LayerCount: 2
Fore
SplineSet
300 155 m 2
 300 151.700195312 297.299804688 149 294 149.200195312 c 2
 260.900390625 149.200195312 l 2
 258.400390625 149.200195312 256.200195312 147.700195312 255.299804688 145.400390625 c 2
 229.5 81.599609375 l 2
 221.799804688 62.7001953125 203.5 50.2998046875 183.099609375 50.2998046875 c 2
 106 50.2998046875 l 2
 102.700195312 50.2998046875 100 53 100 56.2998046875 c 2
 100 94.2998046875 l 2
 100 97.599609375 102.700195312 100.299804688 106 100.299804688 c 2
 166.299804688 100.299804688 l 2
 176.5 100.299804688 185.700195312 106.400390625 189.5 115.900390625 c 2
 199.599609375 140.799804688 l 2
 201.200195312 144.700195312 198.299804688 149 194 149 c 2
 106 149 l 2
 102.700195312 149 100 151.700195312 100 155 c 2
 100 343 l 2
 100 346.299804688 102.700195312 349 106 349 c 2
 294 349 l 2
 297.299804688 349 300 346.299804688 300 343 c 2
 300 155 l 2
294 650 m 2
 106 650 l 2
 102.700195312 650 100 652.700195312 100 656 c 2
 100 844 l 2
 100 847.299804688 102.700195312 850 106 850 c 2
 294 850 l 2
 297.299804688 850 300 847.299804688 300 844 c 2
 300 656 l 2
 300 652.700195312 297.299804688 650 294 650 c 2
EndSplineSet
Validated: 1
EndChar

StartChar: less
Encoding: 60 60 100
Width: 730
Flags: W
HStem: -0.0996094 21G<549.175 677.075> -0.0996094 21G<549.175 677.075> 980 20G<549.125 677.075>
LayerCount: 2
Fore
SplineSet
678.625 10.2001953125 m 2xa0
 682.424804688 6.5 679.724609375 0 674.424804688 -0.099609375 c 2
 549.924804688 -0.099609375 l 2
 548.424804688 -0.099609375 546.825195312 0.599609375 545.724609375 1.7001953125 c 2
 51.724609375 495.700195312 l 2
 49.4248046875 498.099609375 49.4248046875 501.900390625 51.724609375 504.200195312 c 2
 545.724609375 998.200195312 l 2
 546.825195312 999.400390625 548.325195312 1000 549.924804688 1000 c 2
 674.424804688 1000 l 2
 679.724609375 1000 682.424804688 993.599609375 678.625 989.799804688 c 2
 193.125 504.299804688 l 2
 190.825195312 501.900390625 190.825195312 498.099609375 193.125 495.799804688 c 2
 678.625 10.2001953125 l 2xa0
EndSplineSet
Validated: 1
EndChar

StartChar: greater
Encoding: 62 62 101
Width: 730
Flags: W
HStem: -0.0996094 21G<53.3296 181.229> -0.0996094 21G<53.3296 181.229> 980 20G<53.3296 181.279>
LayerCount: 2
Fore
SplineSet
51.779296875 10.2001953125 m 2xa0
 537.279296875 495.700195312 l 2
 539.579101562 498 539.579101562 501.799804688 537.279296875 504.200195312 c 2
 51.779296875 989.799804688 l 2
 47.9794921875 993.5 50.6796875 1000 55.9794921875 1000 c 2
 180.479492188 1000 l 2
 182.079101562 1000 183.579101562 999.400390625 184.6796875 998.200195312 c 2
 678.6796875 504.200195312 l 2
 680.979492188 501.900390625 680.979492188 498.099609375 678.6796875 495.700195312 c 2
 184.6796875 1.7001953125 l 2
 183.579101562 0.599609375 181.979492188 -0.099609375 180.479492188 -0.099609375 c 2
 55.9794921875 -0.099609375 l 2
 50.6796875 0 47.9794921875 6.5 51.779296875 10.2001953125 c 2xa0
EndSplineSet
Validated: 1
EndChar

StartChar: equal
Encoding: 61 61 102
Width: 800
Flags: W
HStem: 300 100<50 750> 600 100<50 750>
LayerCount: 2
Fore
SplineSet
744 300 m 2
 56 300 l 2
 52.7001953125 300 50 302.700195312 50 306 c 2
 50 394 l 2
 50 397.299804688 52.7001953125 400 56 400 c 2
 744 400 l 2
 747.299804688 400 750 397.299804688 750 394 c 2
 750 306 l 2
 750 302.700195312 747.299804688 300 744 300 c 2
744 600 m 2
 56 600 l 2
 52.7001953125 600 50 602.700195312 50 606 c 2
 50 694 l 2
 50 697.299804688 52.7001953125 700 56 700 c 2
 744 700 l 2
 747.299804688 700 750 697.299804688 750 694 c 2
 750 606 l 2
 750 602.700195312 747.299804688 600 744 600 c 2
EndSplineSet
Validated: 1
EndChar

StartChar: question
Encoding: 63 63 103
Width: 800
Flags: W
HStem: 0 150<350 450> 900 100<150 650>
VStem: 50 100<600 900> 350 100<0 150 200 375.555> 650 100<599.416 900>
CounterMasks: 1 38
LayerCount: 2
Fore
SplineSet
444 200 m 2
 356 200 l 2
 352.700195312 200 350 202.700195312 350 206 c 2
 350 362.5 l 2
 350 386 361.200195312 408.400390625 380 422.5 c 2
 640 617.5 l 2
 646.299804688 622.200195312 650 629.599609375 650 637.5 c 2
 650 875 l 2
 650 888.799804688 638.799804688 900 625 900 c 2
 175 900 l 2
 161.200195312 900 150 888.799804688 150 875 c 2
 150 606 l 2
 150 602.700195312 147.299804688 600 144 600 c 2
 56 600 l 2
 52.7001953125 600 50 602.700195312 50 606 c 2
 50 925 l 2
 50 966.400390625 83.599609375 1000 125 1000 c 2
 675 1000 l 2
 716.400390625 1000 750 966.400390625 750 925 c 2
 750 612.5 l 2
 750 588.900390625 738.900390625 566.700195312 720 552.5 c 2
 460 357.5 l 2
 453.700195312 352.799804688 450 345.400390625 450 337.5 c 2
 450 206 l 2
 450 202.700195312 447.299804688 200 444 200 c 2
444 0 m 2
 356 0 l 2
 352.700195312 0 350 2.7001953125 350 6 c 2
 350 144 l 2
 350 147.299804688 352.700195312 150 356 150 c 2
 444 150 l 2
 447.299804688 150 450 147.299804688 450 144 c 2
 450 6 l 2
 450 2.7001953125 447.299804688 0 444 0 c 2
EndSplineSet
Validated: 1
EndChar

StartChar: bracketleft
Encoding: 91 91 104
Width: 400
Flags: W
HStem: -100 100<150 350> 1000 100<150 350>
VStem: 50 300<-88.1792 -8.10038e-08 1000 1088.18> 50 100<0 1000>
LayerCount: 2
Fore
SplineSet
344 -100 m 2xe0
 125 -100 l 2
 83.599609375 -100 50 -66.400390625 50 -25 c 2
 50 1025 l 2
 50 1066.40039062 83.599609375 1100 125 1100 c 2
 344 1100 l 2
 347.299804688 1100 350 1097.29980469 350 1094 c 2
 350 1006 l 2xe0
 350 1002.70019531 347.299804688 1000 344 1000 c 2
 175 1000 l 2
 161.200195312 1000 150 988.799804688 150 975 c 2
 150 25 l 2xd0
 150 11.2001953125 161.200195312 0 175 0 c 2
 344 0 l 2
 347.299804688 0 350 -2.7001953125 350 -6 c 2
 350 -94 l 2
 350 -97.2998046875 347.299804688 -100 344 -100 c 2xe0
EndSplineSet
Validated: 1
EndChar

StartChar: bracketright
Encoding: 93 93 105
Width: 400
Flags: W
HStem: -100 100<50 250> 1000 100<50 250>
VStem: 50 300<-88.1792 -8.10038e-08 1000 1088.18> 250 100<3.35997e-07 1000>
LayerCount: 2
Fore
SplineSet
56 -100 m 2xe0
 52.7001953125 -100 50 -97.2998046875 50 -94 c 2
 50 -6 l 2xe0
 50 -2.7001953125 52.7001953125 0 56 0 c 2
 225 0 l 2
 238.799804688 0 250 11.2001953125 250 25 c 2
 250 975 l 2xd0
 250 988.799804688 238.799804688 1000 225 1000 c 2
 56 1000 l 2
 52.7001953125 1000 50 1002.70019531 50 1006 c 2
 50 1094 l 2
 50 1097.29980469 52.7001953125 1100 56 1100 c 2
 275 1100 l 2
 316.400390625 1100 350 1066.40039062 350 1025 c 2
 350 -25 l 2
 350 -66.400390625 316.400390625 -100 275 -100 c 2
 56 -100 l 2xe0
EndSplineSet
Validated: 1
EndChar

StartChar: underscore
Encoding: 95 95 106
Width: 1000
Flags: W
HStem: 0 100<50 950>
LayerCount: 2
Fore
SplineSet
944 0 m 2
 56 0 l 2
 52.7001953125 0 50 2.7001953125 50 6 c 2
 50 94 l 2
 50 97.2998046875 52.7001953125 100 56 100 c 2
 944 100 l 2
 947.299804688 100 950 97.2998046875 950 94 c 2
 950 6 l 2
 950 2.7001953125 947.299804688 0 944 0 c 2
EndSplineSet
Validated: 1
EndChar

StartChar: grave
Encoding: 96 96 107
Width: 336
Flags: W
HStem: 800 300<176.868 203.489>
VStem: 51.3525 233.699
LayerCount: 2
Fore
SplineSet
189.852539062 806.900390625 m 2
 51.3525390625 1081.90039062 l 2
 47.15234375 1090.20019531 53.251953125 1100 62.5517578125 1100 c 2
 183.15234375 1100 l 2
 188.551757812 1100 193.352539062 1096.5 195.051757812 1091.40039062 c 2
 285.051757812 816.400390625 l 2
 287.65234375 808.299804688 281.65234375 800 273.15234375 800 c 2
 201.051757812 800 l 2
 196.251953125 800 191.952148438 802.700195312 189.852539062 806.900390625 c 2
EndSplineSet
Validated: 1
EndChar

StartChar: at
Encoding: 64 64 108
Width: 825
Flags: W
HStem: 0 100<150 775> 150 100<625 675> 250 100<300 513.055> 450 100<300 525> 650 100<250 525> 900 100<150 675>
VStem: 50 100<100 900> 200 100<350 450> 525 100<250 266.9 361.821 450 550 650> 675 100<250 900>
LayerCount: 2
Fore
SplineSet
600 150 m 2xdfc0
 558.599609375 150 525 183.599609375 525 225 c 2
 525 266.900390625 l 1
 502.299804688 256.099609375 476.799804688 250 450 250 c 2
 275 250 l 2xbfc0
 233.599609375 250 200 283.599609375 200 325 c 2
 200 475 l 2
 200 516.400390625 233.599609375 550 275 550 c 2
 525 550 l 1
 525 625 l 2
 525 638.799804688 513.799804688 650 500 650 c 2
 256 650 l 2
 252.700195312 650 250 652.700195312 250 656 c 2
 250 744 l 2
 250 747.299804688 252.700195312 750 256 750 c 2
 550 750 l 2
 591.400390625 750 625 716.400390625 625 675 c 2
 625 550 l 1
 625 425 l 1
 625 256 l 2
 625 252.700195312 627.700195312 250 631 250 c 2
 650 250 l 1
 669 250 l 2
 672.299804688 250 675 252.700195312 675 256 c 2
 675 875 l 2
 675 888.799804688 663.799804688 900 650 900 c 2
 625 900 l 1
 175 900 l 2
 161.200195312 900 150 888.799804688 150 875 c 2
 150 125 l 2
 150 111.200195312 161.200195312 100 175 100 c 2
 625 100 l 1
 650 100 l 1
 769 100 l 2
 772.299804688 100 775 97.2998046875 775 94 c 2
 775 6 l 2
 775 2.7001953125 772.299804688 0 769 0 c 2
 650 0 l 1
 625 0 l 1
 125 0 l 2
 83.599609375 0 50 33.599609375 50 75 c 2
 50 925 l 2
 50 966.400390625 83.599609375 1000 125 1000 c 2
 625 1000 l 1
 650 1000 l 1
 700 1000 l 2
 741.400390625 1000 775 966.400390625 775 925 c 2
 775 225 l 2
 775 183.599609375 741.400390625 150 700 150 c 2
 650 150 l 1
 625 150 l 1
 600 150 l 2xdfc0
450 350 m 2
 491.400390625 350 525 383.599609375 525 425 c 2
 525 450 l 1
 306 450 l 2
 302.700195312 450 300 447.299804688 300 444 c 2
 300 356 l 2
 300 352.700195312 302.700195312 350 306 350 c 2
 450 350 l 2
EndSplineSet
Validated: 1
EndChar

StartChar: bar
Encoding: 124 124 109
Width: 200
Flags: W
VStem: 50 100<-100 1100>
LayerCount: 2
Fore
SplineSet
144 -100 m 2
 56 -100 l 2
 52.7001953125 -100 50 -97.2998046875 50 -94 c 2
 50 1094 l 2
 50 1097.29980469 52.7001953125 1100 56 1100 c 2
 144 1100 l 2
 147.299804688 1100 150 1097.29980469 150 1094 c 2
 150 -94 l 2
 150 -97.2998046875 147.299804688 -100 144 -100 c 2
EndSplineSet
Validated: 1
EndChar

StartChar: braceleft
Encoding: 123 123 110
Width: 459
Flags: W
HStem: -100 100<223.5 408.65> 1000 100<223.5 408.65>
VStem: 50.0005 115.101<424.192 574.597> 108.65 100<14.8492 446.562 553.438 985.151>
LayerCount: 2
Fore
SplineSet
170.05078125 521.799804688 m 4xd0
 166.750976562 514.899902344 165.101074219 507.449951172 165.101074219 500 c 0xe0
 165.101074219 492.550048828 166.750976562 485.100097656 170.05078125 478.200195312 c 4
 173.150390625 471.5 176.25 464.799804688 179.05078125 457.900390625 c 4
 198.849609375 409.799804688 208.650390625 358.099609375 208.650390625 306.099609375 c 6
 208.650390625 75 l 6
 208.650390625 33.599609375 242.25 0 283.650390625 0 c 6
 402.650390625 0 l 6
 405.951171875 0 408.650390625 -2.7001953125 408.650390625 -6 c 6
 408.650390625 -94 l 6
 408.650390625 -97.2998046875 405.951171875 -100 402.650390625 -100 c 6
 283.650390625 -100 l 6
 187.05078125 -100 108.650390625 -21.599609375 108.650390625 75 c 6
 108.650390625 308.5 l 6xd0
 108.650390625 367.700195312 91.150390625 424.200195312 58.55078125 472.099609375 c 4
 52.8505859375 480.5 50.0004882812 490.225097656 50.0004882812 499.950073242 c 0xe0
 50.0004882812 509.675048828 52.8505859375 519.399902344 58.55078125 527.799804688 c 4
 91.150390625 575.700195312 108.650390625 632.200195312 108.650390625 691.400390625 c 6
 108.650390625 925 l 6
 108.650390625 1021.59960938 187.05078125 1100 283.650390625 1100 c 6
 402.650390625 1100 l 6
 405.951171875 1100 408.650390625 1097.29980469 408.650390625 1094 c 6
 408.650390625 1006 l 6
 408.650390625 1002.70019531 405.951171875 1000 402.650390625 1000 c 6
 283.650390625 1000 l 6
 242.25 1000 208.650390625 966.400390625 208.650390625 925 c 6
 208.650390625 693.900390625 l 6
 208.650390625 641.900390625 198.951171875 590.200195312 179.05078125 542.099609375 c 4
 176.25 535.200195312 173.25 528.5 170.05078125 521.799804688 c 4xd0
EndSplineSet
Validated: 1
EndChar

StartChar: braceright
Encoding: 125 125 111
Width: 459
Flags: W
HStem: -100 100<50 235.151> 1000 100<50 235.151>
VStem: 250 100<14.8492 446.562 553.438 985.151> 293.637 115.013<424.192 574.597>
LayerCount: 2
Fore
SplineSet
288.700195312 521.799804688 m 4xd0
 285.5 528.5 282.5 535.200195312 279.700195312 542.099609375 c 4
 259.799804688 590.200195312 250.099609375 641.900390625 250.099609375 693.900390625 c 6
 250.099609375 925 l 6
 250.099609375 966.400390625 216.5 1000 175.099609375 1000 c 6
 56 1000 l 6
 52.7001953125 1000 50 1002.70019531 50 1006 c 6
 50 1094 l 6
 50 1097.29980469 52.7001953125 1100 56 1100 c 6
 175 1100 l 6
 271.599609375 1100 350 1021.59960938 350 925 c 6
 350 691.400390625 l 6xe0
 350 632.200195312 367.5 575.700195312 400.099609375 527.799804688 c 4
 405.799804688 519.399902344 408.649902344 509.675048828 408.649902344 499.950073242 c 0xd0
 408.649902344 490.225097656 405.799804688 480.5 400.099609375 472.099609375 c 4
 367.5 424.200195312 350 367.700195312 350 308.5 c 6
 350 75 l 6
 350 -21.599609375 271.599609375 -100 175 -100 c 6
 56 -100 l 6
 52.7001953125 -100 50 -97.2998046875 50 -94 c 6
 50 -6 l 6
 50 -2.7001953125 52.7001953125 0 56 0 c 6
 175 0 l 6
 216.400390625 0 250 33.599609375 250 75 c 6
 250 306.099609375 l 6xe0
 250 358.099609375 259.799804688 409.799804688 279.599609375 457.900390625 c 4
 282.400390625 464.799804688 285.5 471.5 288.599609375 478.200195312 c 4
 291.962375546 485.126189884 293.63740042 492.606401208 293.63740042 500.084516742 c 0
 293.63740042 507.506287821 291.98752167 514.925994572 288.700195312 521.799804688 c 4xd0
EndSplineSet
Validated: 1
EndChar

StartChar: exclamdown
Encoding: 161 161 112
Width: 200
Flags: W
HStem: 0 21G<54.3501 145.65> 0 21G<54.3501 145.65> 861 139<50 150>
VStem: 50 100<0 639.7 861 1000>
LayerCount: 2
Fore
SplineSet
56 639.700195312 m 2xb0
 144 639.700195312 l 2
 147.299804688 639.700195312 150 637 150 633.700195312 c 2
 150 6 l 2
 150 2.7001953125 147.299804688 0 144 0 c 2
 56 0 l 2
 52.7001953125 0 50 2.7001953125 50 6 c 2
 50 633.700195312 l 2
 50 637 52.7001953125 639.700195312 56 639.700195312 c 2xb0
56 1000 m 2
 144 1000 l 2
 147.299804688 1000 150 997.299804688 150 994 c 2
 150 867 l 2
 150 863.700195312 147.299804688 861 144 861 c 2
 56 861 l 2
 52.7001953125 861 50 863.700195312 50 867 c 2
 50 994 l 2
 50 997.299804688 52.7001953125 1000 56 1000 c 2
EndSplineSet
Validated: 1
EndChar

StartChar: questiondown
Encoding: 191 191 113
Width: 800
Flags: W
HStem: 0 100<150 650> 850 150<350 450>
VStem: 50 100<100 400.584> 350 100<624.445 800 850 1000> 650 100<100 400>
CounterMasks: 1 38
LayerCount: 2
Fore
SplineSet
356 800 m 2
 444 800 l 2
 447.299804688 800 450 797.299804688 450 794 c 2
 450 637.5 l 2
 450 614 438.799804688 591.599609375 420 577.5 c 2
 160 382.5 l 2
 153.700195312 377.799804688 150 370.400390625 150 362.5 c 2
 150 125 l 2
 150 111.200195312 161.200195312 100 175 100 c 2
 625 100 l 2
 638.799804688 100 650 111.200195312 650 125 c 2
 650 394 l 2
 650 397.299804688 652.700195312 400 656 400 c 2
 744 400 l 2
 747.299804688 400 750 397.299804688 750 394 c 2
 750 75 l 2
 750 33.599609375 716.400390625 0 675 0 c 2
 125 0 l 2
 83.599609375 0 50 33.599609375 50 75 c 2
 50 387.5 l 2
 50 411.099609375 61.099609375 433.299804688 80 447.5 c 2
 340 642.5 l 2
 346.299804688 647.200195312 350 654.599609375 350 662.5 c 2
 350 794 l 2
 350 797.299804688 352.700195312 800 356 800 c 2
356 1000 m 2
 444 1000 l 2
 447.299804688 1000 450 997.299804688 450 994 c 2
 450 856 l 2
 450 852.700195312 447.299804688 850 444 850 c 2
 356 850 l 2
 352.700195312 850 350 852.700195312 350 856 c 2
 350 994 l 2
 350 997.299804688 352.700195312 1000 356 1000 c 2
EndSplineSet
Validated: 1
EndChar

StartChar: section
Encoding: 167 167 114
Width: 800
Flags: W
HStem: -100 100<150 500> 275 100<150 500 600 650> 625 100<150 200 300 650> 1000 100<300 650>
VStem: 50 100<0 125 375 625> 200 100<725 1000> 500 100<0 275> 650 100<375 625 875 1000>
LayerCount: 2
Fore
SplineSet
750 881 m 2
 750 877.700195312 747.299804688 875 744 875 c 2
 656 875 l 2
 652.700195312 875 650 877.700195312 650 881 c 2
 650 975 l 2
 650 988.799804688 638.799804688 1000 625 1000 c 2
 325 1000 l 2
 311.200195312 1000 300 988.799804688 300 975 c 2
 300 731 l 2
 300 727.700195312 302.700195312 725 306 725 c 2
 675 725 l 2
 716.400390625 725 750 691.400390625 750 650 c 2
 750 350 l 2
 750 308.599609375 716.400390625 275 675 275 c 2
 606 275 l 2
 602.700195312 275 600 272.299804688 600 269 c 2
 600 -25 l 2
 600 -66.400390625 566.400390625 -100 525 -100 c 2
 125 -100 l 2
 83.599609375 -100 50 -66.400390625 50 -25 c 2
 50 119 l 2
 50 122.299804688 52.7001953125 125 56 125 c 2
 144 125 l 2
 147.299804688 125 150 122.299804688 150 119 c 2
 150 25 l 2
 150 11.2001953125 161.200195312 0 175 0 c 2
 475 0 l 2
 488.799804688 0 500 11.2001953125 500 25 c 2
 500 269 l 2
 500 272.299804688 497.299804688 275 494 275 c 2
 125 275 l 2
 83.599609375 275 50 308.599609375 50 350 c 2
 50 650 l 2
 50 691.400390625 83.599609375 725 125 725 c 2
 194 725 l 2
 197.299804688 725 200 727.700195312 200 731 c 2
 200 1025 l 2
 200 1066.40039062 233.599609375 1100 275 1100 c 2
 675 1100 l 2
 716.400390625 1100 750 1066.40039062 750 1025 c 2
 750 881 l 2
644 375 m 2
 647.299804688 375 650 377.700195312 650 381 c 2
 650 619 l 2
 650 622.299804688 647.299804688 625 644 625 c 2
 156 625 l 2
 152.700195312 625 150 622.299804688 150 619 c 2
 150 381 l 2
 150 377.700195312 152.700195312 375 156 375 c 2
 644 375 l 2
EndSplineSet
Validated: 1
EndChar

StartChar: cent
Encoding: 162 162 115
Width: 800
Flags: W
HStem: 0 100<150 350 450 750> 600 100<150 350 450 750>
VStem: 50 100<100 600> 350 100<-200 0 100 600 700 900>
LayerCount: 2
Fore
SplineSet
750 606 m 2
 750 602.700195312 747.299804688 600 744 600 c 2
 456 600 l 2
 452.700195312 600 450 597.299804688 450 594 c 2
 450 106 l 2
 450 102.700195312 452.700195312 100 456 100 c 2
 744 100 l 2
 747.299804688 100 750 97.2998046875 750 94 c 2
 750 6 l 2
 750 2.7001953125 747.299804688 0 744 0 c 2
 450 0 l 1
 450 -194 l 2
 450 -197.299804688 447.299804688 -200 444 -200 c 2
 356 -200 l 2
 352.700195312 -200 350 -197.299804688 350 -194 c 2
 350 0 l 1
 125 0 l 2
 83.599609375 0 50 33.599609375 50 75 c 2
 50 625 l 2
 50 666.400390625 83.599609375 700 125 700 c 2
 344 700 l 2
 347.299804688 700 350 702.700195312 350 706 c 2
 350 894 l 2
 350 897.299804688 352.700195312 900 356 900 c 2
 444 900 l 2
 447.299804688 900 450 897.299804688 450 894 c 2
 450 706 l 2
 450 702.700195312 452.700195312 700 456 700 c 2
 744 700 l 2
 747.299804688 700 750 697.299804688 750 694 c 2
 750 606 l 2
344 100 m 2
 347.299804688 100 350 102.700195312 350 106 c 2
 350 594 l 2
 350 597.299804688 347.299804688 600 344 600 c 2
 175 600 l 2
 161.200195312 600 150 588.799804688 150 575 c 2
 150 125 l 2
 150 111.200195312 161.200195312 100 175 100 c 2
 344 100 l 2
EndSplineSet
Validated: 1
EndChar

StartChar: dieresis
Encoding: 168 168 116
Width: 500
Flags: W
HStem: 900 200<50 150 350 450>
VStem: 50 100<900 1100> 350 100<900 1100>
LayerCount: 2
Fore
SplineSet
144 1100 m 2
 147.299804688 1100 150 1097.29980469 150 1094 c 2
 150 906 l 2
 150 902.700195312 147.299804688 900 144 900 c 2
 56 900 l 2
 52.7001953125 900 50 902.700195312 50 906 c 2
 50 1094 l 2
 50 1097.29980469 52.7001953125 1100 56 1100 c 2
 144 1100 l 2
444 1100 m 2
 447.299804688 1100 450 1097.29980469 450 1094 c 2
 450 906 l 2
 450 902.700195312 447.299804688 900 444 900 c 2
 356 900 l 2
 352.700195312 900 350 902.700195312 350 906 c 2
 350 1094 l 2
 350 1097.29980469 352.700195312 1100 356 1100 c 2
 444 1100 l 2
EndSplineSet
Validated: 1
EndChar

StartChar: acute
Encoding: 180 180 117
Width: 336
Flags: W
HStem: 800 300<132.175 158.806>
VStem: 50.6123 233.801
LayerCount: 2
Fore
SplineSet
145.8125 806.900390625 m 2
 143.612304688 802.700195312 139.3125 800 134.612304688 800 c 2
 62.5126953125 800 l 2
 54.0126953125 800 48.0126953125 808.299804688 50.6123046875 816.400390625 c 2
 140.612304688 1091.40039062 l 2
 142.3125 1096.5 147.112304688 1100 152.512695312 1100 c 2
 273.212890625 1100 l 2
 282.512695312 1100 288.612304688 1090.20019531 284.413085938 1081.90039062 c 2
 145.8125 806.900390625 l 2
EndSplineSet
Validated: 1
EndChar

StartChar: adieresis
Encoding: 228 228 118
Width: 700
Flags: W
HStem: 0 100<150 538.055> 300 100<150 550> 600 100<50 550> 900 200<150 250 450 550>
VStem: 50 100<100 300> 150 100<900 1100> 450 100<900 1100> 550 100<0 16.9004 111.821 300 400 600>
LayerCount: 2
Fore
SplineSet
575 700 m 2xf9
 616.400390625 700 650 666.400390625 650 625 c 2
 650 400 l 1
 650 175 l 1
 650 6 l 2
 650 2.7001953125 647.299804688 0 644 0 c 2
 556 0 l 2
 552.700195312 0 550 2.7001953125 550 6 c 2
 550 16.900390625 l 1
 527.299804688 6.099609375 501.799804688 0 475 0 c 2
 125 0 l 2
 83.599609375 0 50 33.599609375 50 75 c 2
 50 325 l 2
 50 366.400390625 83.599609375 400 125 400 c 2
 544 400 l 2
 547.299804688 400 550 402.700195312 550 406 c 2
 550 575 l 2
 550 588.799804688 538.799804688 600 525 600 c 2
 56 600 l 2
 52.7001953125 600 50 602.700195312 50 606 c 2
 50 694 l 2
 50 697.299804688 52.7001953125 700 56 700 c 2
 575 700 l 2xf9
475 100 m 2
 516.400390625 100 550 133.599609375 550 175 c 2
 550 294 l 2
 550 297.299804688 547.299804688 300 544 300 c 2
 175 300 l 2
 161.200195312 300 150 288.799804688 150 275 c 2
 150 125 l 2
 150 111.200195312 161.200195312 100 175 100 c 2
 475 100 l 2
244 1100 m 2
 247.299804688 1100 250 1097.29980469 250 1094 c 2
 250 906 l 2
 250 902.700195312 247.299804688 900 244 900 c 2
 156 900 l 2
 152.700195312 900 150 902.700195312 150 906 c 2
 150 1094 l 2xf4
 150 1097.29980469 152.700195312 1100 156 1100 c 2
 244 1100 l 2
544 1100 m 2
 547.299804688 1100 550 1097.29980469 550 1094 c 2
 550 906 l 2
 550 902.700195312 547.299804688 900 544 900 c 2
 456 900 l 2
 452.700195312 900 450 902.700195312 450 906 c 2
 450 1094 l 2xf2
 450 1097.29980469 452.700195312 1100 456 1100 c 2
 544 1100 l 2
EndSplineSet
Validated: 1
EndChar

StartChar: edieresis
Encoding: 235 235 119
Width: 700
Flags: W
HStem: 0 100<150 600> 300 100<150 550> 600 100<150 550> 900 200<150 250 450 550>
VStem: 50 100<100 300 400 600> 150 100<900 1100> 450 100<900 1100> 550 100<400 600>
LayerCount: 2
Fore
SplineSet
594 0 m 2xf9
 125 0 l 2
 83.599609375 0 50 33.599609375 50 75 c 2
 50 625 l 2
 50 666.400390625 83.599609375 700 125 700 c 2
 575 700 l 2
 616.400390625 700 650 666.400390625 650 625 c 2
 650 306 l 2
 650 302.700195312 647.299804688 300 644 300 c 2
 156 300 l 2
 152.700195312 300 150 297.299804688 150 294 c 2
 150 125 l 2
 150 111.200195312 161.200195312 100 175 100 c 2
 594 100 l 2
 597.299804688 100 600 97.2998046875 600 94 c 2
 600 6 l 2
 600 2.7001953125 597.299804688 0 594 0 c 2xf9
156 400 m 2
 544 400 l 2
 547.299804688 400 550 402.700195312 550 406 c 2
 550 575 l 2
 550 588.799804688 538.799804688 600 525 600 c 2
 175 600 l 2
 161.200195312 600 150 588.799804688 150 575 c 2
 150 406 l 2
 150 402.700195312 152.700195312 400 156 400 c 2
244 1100 m 2
 247.299804688 1100 250 1097.29980469 250 1094 c 2
 250 906 l 2
 250 902.700195312 247.299804688 900 244 900 c 2
 156 900 l 2
 152.700195312 900 150 902.700195312 150 906 c 2
 150 1094 l 2xf4
 150 1097.29980469 152.700195312 1100 156 1100 c 2
 244 1100 l 2
544 1100 m 2
 547.299804688 1100 550 1097.29980469 550 1094 c 2
 550 906 l 2
 550 902.700195312 547.299804688 900 544 900 c 2
 456 900 l 2
 452.700195312 900 450 902.700195312 450 906 c 2
 450 1094 l 2xf2
 450 1097.29980469 452.700195312 1100 456 1100 c 2
 544 1100 l 2
EndSplineSet
Validated: 1
EndChar

StartChar: idieresis
Encoding: 239 239 120
Width: 450
Flags: W
HStem: 0 21G<179.35 270.65> 0 21G<179.35 270.65> 680 20G<179.35 270.65> 900 200<100 200 250 350>
VStem: 100 100<900 1100> 175 100<0 700> 250 100<900 1100>
LayerCount: 2
Fore
SplineSet
269 0 m 2xb4
 181 0 l 2
 177.700195312 0 175 2.7001953125 175 6 c 2
 175 694 l 2
 175 697.299804688 177.700195312 700 181 700 c 2
 269 700 l 2
 272.299804688 700 275 697.299804688 275 694 c 2
 275 6 l 2
 275 2.7001953125 272.299804688 0 269 0 c 2xb4
194 1100 m 2
 197.299804688 1100 200 1097.29980469 200 1094 c 2
 200 906 l 2
 200 902.700195312 197.299804688 900 194 900 c 2
 106 900 l 2
 102.700195312 900 100 902.700195312 100 906 c 2
 100 1094 l 2x38
 100 1097.29980469 102.700195312 1100 106 1100 c 2
 194 1100 l 2
344 1100 m 2
 347.299804688 1100 350 1097.29980469 350 1094 c 2
 350 906 l 2
 350 902.700195312 347.299804688 900 344 900 c 2
 256 900 l 2
 252.700195312 900 250 902.700195312 250 906 c 2
 250 1094 l 2x32
 250 1097.29980469 252.700195312 1100 256 1100 c 2
 344 1100 l 2
EndSplineSet
Validated: 1
EndChar

StartChar: odieresis
Encoding: 246 246 121
Width: 700
Flags: W
HStem: 0 100<150 550> 600 100<150 550> 900 200<150 250 450 550>
VStem: 50 100<100 600> 150 100<900 1100> 450 100<900 1100> 550 100<100 600>
LayerCount: 2
Fore
SplineSet
575 0 m 2xf2
 125 0 l 2
 83.599609375 0 50 33.599609375 50 75 c 2
 50 625 l 2
 50 666.400390625 83.599609375 700 125 700 c 2
 575 700 l 2
 616.400390625 700 650 666.400390625 650 625 c 2
 650 75 l 2
 650 33.599609375 616.400390625 0 575 0 c 2xf2
175 100 m 2
 525 100 l 2
 538.799804688 100 550 111.200195312 550 125 c 2
 550 575 l 2
 550 588.799804688 538.799804688 600 525 600 c 2
 175 600 l 2
 161.200195312 600 150 588.799804688 150 575 c 2
 150 125 l 2
 150 111.200195312 161.200195312 100 175 100 c 2
244 1100 m 2
 247.299804688 1100 250 1097.29980469 250 1094 c 2
 250 906 l 2
 250 902.700195312 247.299804688 900 244 900 c 2
 156 900 l 2
 152.700195312 900 150 902.700195312 150 906 c 2
 150 1094 l 2xe8
 150 1097.29980469 152.700195312 1100 156 1100 c 2
 244 1100 l 2
544 1100 m 2
 547.299804688 1100 550 1097.29980469 550 1094 c 2
 550 906 l 2
 550 902.700195312 547.299804688 900 544 900 c 2
 456 900 l 2
 452.700195312 900 450 902.700195312 450 906 c 2
 450 1094 l 2xe4
 450 1097.29980469 452.700195312 1100 456 1100 c 2
 544 1100 l 2
EndSplineSet
Validated: 1
EndChar

StartChar: udieresis
Encoding: 252 252 122
Width: 700
Flags: W
HStem: 0 100<150 538.055> 680 20G<54.3501 145.65 554.35 645.65> 900 200<150 250 450 550>
VStem: 50 100<100 700> 150 100<900 1100> 450 100<900 1100> 550 100<0 16.9004 111.821 700>
LayerCount: 2
Fore
SplineSet
550 694 m 2xf2
 550 697.299804688 552.700195312 700 556 700 c 2
 644 700 l 2
 647.299804688 700 650 697.299804688 650 694 c 2
 650 175 l 1
 650 6 l 2
 650 2.7001953125 647.299804688 0 644 0 c 2
 556 0 l 2
 552.700195312 0 550 2.7001953125 550 6 c 2
 550 16.900390625 l 1
 527.299804688 6.099609375 501.799804688 0 475 0 c 2
 125 0 l 2
 83.599609375 0 50 33.599609375 50 75 c 2
 50 694 l 2
 50 697.299804688 52.7001953125 700 56 700 c 2
 144 700 l 2
 147.299804688 700 150 697.299804688 150 694 c 2
 150 125 l 2
 150 111.200195312 161.200195312 100 175 100 c 2
 475 100 l 2
 516.400390625 100 550 133.599609375 550 175 c 2
 550 694 l 2xf2
244 1100 m 2
 247.299804688 1100 250 1097.29980469 250 1094 c 2
 250 906 l 2
 250 902.700195312 247.299804688 900 244 900 c 2
 156 900 l 2
 152.700195312 900 150 902.700195312 150 906 c 2
 150 1094 l 2xe8
 150 1097.29980469 152.700195312 1100 156 1100 c 2
 244 1100 l 2
544 1100 m 2
 547.299804688 1100 550 1097.29980469 550 1094 c 2
 550 906 l 2
 550 902.700195312 547.299804688 900 544 900 c 2
 456 900 l 2
 452.700195312 900 450 902.700195312 450 906 c 2
 450 1094 l 2xe4
 450 1097.29980469 452.700195312 1100 456 1100 c 2
 544 1100 l 2
EndSplineSet
Validated: 1
EndChar

StartChar: ydieresis
Encoding: 255 255 123
Width: 728
Flags: W
HStem: -200 100<63.7998 305.356> 680 20G<28.8999 126.05 601.6 698.65> 900 200<163.8 263.8 463.8 563.8>
VStem: 163.8 100<900 1100> 463.8 100<900 1100>
LayerCount: 2
Fore
SplineSet
597.299804688 696.099609375 m 2
 598.099609375 698.400390625 600.400390625 700 602.799804688 700 c 2
 696.599609375 700 l 2
 700.700195312 700 703.599609375 695.799804688 702.200195312 691.900390625 c 2
 417 -82.2001953125 l 1
 391.700195312 -151 l 2
 386.299804688 -165.799804688 376.299804688 -178.200195312 363.799804688 -186.799804688 c 0
 351.599609375 -195.200195312 336.900390625 -200 321.400390625 -200 c 2
 69.7998046875 -200 l 2
 66.5 -200 63.7998046875 -197.299804688 63.7998046875 -194 c 2
 63.7998046875 -106 l 2
 63.7998046875 -102.700195312 66.5 -100 69.7998046875 -100 c 2
 299.799804688 -100 l 2
 302.299804688 -100 304.5 -98.5 305.400390625 -96.099609375 c 2
 309.799804688 -84.2001953125 l 2
 310.299804688 -82.900390625 310.299804688 -81.400390625 309.799804688 -80.099609375 c 2
 25.400390625 691.900390625 l 2
 23.900390625 695.799804688 26.7998046875 700 31 700 c 2
 124.799804688 700 l 2
 127.299804688 700 129.5 698.5 130.400390625 696.099609375 c 2
 352.099609375 94.2998046875 l 2
 356.200195312 83.400390625 371.599609375 83.400390625 375.599609375 94.2998046875 c 2
 597.299804688 696.099609375 l 2
257.799804688 1100 m 2
 261.200195312 1100 263.799804688 1097.29980469 263.799804688 1094 c 2
 263.799804688 906 l 2
 263.799804688 902.700195312 261.099609375 900 257.799804688 900 c 2
 169.799804688 900 l 2
 166.5 900 163.799804688 902.700195312 163.799804688 906 c 2
 163.799804688 1094 l 2
 163.799804688 1097.29980469 166.5 1100 169.799804688 1100 c 2
 257.799804688 1100 l 2
557.799804688 1100 m 2
 561.200195312 1100 563.799804688 1097.29980469 563.799804688 1094 c 2
 563.799804688 906 l 2
 563.799804688 902.700195312 561.099609375 900 557.799804688 900 c 2
 469.799804688 900 l 2
 466.5 900 463.799804688 902.700195312 463.799804688 906 c 2
 463.799804688 1094 l 2
 463.799804688 1097.29980469 466.5 1100 469.799804688 1100 c 2
 557.799804688 1100 l 2
EndSplineSet
Validated: 1
EndChar

StartChar: Ccedilla
Encoding: 199 199 124
Width: 800
Flags: W
HStem: -200 100<250 450> 0 100<150 450 550 750> 900 100<150 750>
VStem: 50 100<100 900> 450 100<-100 -8.10038e-08>
LayerCount: 2
Fore
SplineSet
175 900 m 2
 161.200195312 900 150 888.799804688 150 875 c 2
 150 125 l 2
 150 111.200195312 161.200195312 100 175 100 c 2
 744 100 l 2
 747.299804688 100 750 97.2998046875 750 94 c 2
 750 6 l 2
 750 2.7001953125 747.299804688 0 744 0 c 2
 556 0 l 2
 552.700195312 0 550 -2.7001953125 550 -6 c 2
 550 -100 l 2
 550 -155.200195312 505.200195312 -200 450 -200 c 2
 256 -200 l 2
 252.700195312 -200 250 -197.299804688 250 -194 c 2
 250 -106 l 2
 250 -102.700195312 252.700195312 -100 256 -100 c 2
 425 -100 l 2
 438.799804688 -100 450 -88.7998046875 450 -75 c 2
 450 -6 l 2
 450 -2.7001953125 447.299804688 0 444 0 c 2
 125 0 l 2
 83.599609375 0 50 33.599609375 50 75 c 2
 50 925 l 2
 50 966.400390625 83.599609375 1000 125 1000 c 2
 744 1000 l 2
 747.299804688 1000 750 997.299804688 750 994 c 2
 750 906 l 2
 750 902.700195312 747.299804688 900 744 900 c 2
 175 900 l 2
EndSplineSet
Validated: 1
EndChar

StartChar: Ydiaeresis
Encoding: 256 376 125
Width: 790
Flags: W
HStem: 0 21G<349.256 440.556> 0 21G<349.256 440.556> 980 20G<53.7061 159.006 630.856 736.106> 1200 200<194.906 294.906 494.906 594.906>
VStem: 194.906 100<1200 1400> 344.906 100<0 542.927> 494.906 100<1200 1400>
CounterMasks: 1 0e
LayerCount: 2
Fore
SplineSet
626.706054688 997 m 2xbe
 627.805664062 998.900390625 629.805664062 1000 631.90625 1000 c 2
 733.805664062 1000 l 2
 738.40625 1000 741.305664062 995 739.005859375 991 c 2
 445.706054688 487.900390625 l 2
 445.206054688 487 444.90625 486 444.90625 484.900390625 c 2
 444.90625 6 l 2
 444.90625 2.7001953125 442.206054688 0 438.90625 0 c 2
 350.90625 0 l 2
 347.60546875 0 344.90625 2.7001953125 344.90625 6 c 2
 344.90625 484.900390625 l 2
 344.90625 485.900390625 344.60546875 487 344.10546875 487.900390625 c 2
 50.8056640625 991 l 2
 48.505859375 995 51.40625 1000 56.005859375 1000 c 2
 157.90625 1000 l 2
 160.10546875 1000 162.005859375 998.799804688 163.10546875 997 c 2
 389.706054688 608.200195312 l 2
 392.005859375 604.200195312 397.805664062 604.200195312 400.10546875 608.200195312 c 2
 626.706054688 997 l 2xbe
288.90625 1400 m 2
 292.206054688 1400 294.90625 1397.29980469 294.90625 1394 c 2
 294.90625 1206 l 2
 294.90625 1202.70019531 292.206054688 1200 288.90625 1200 c 2
 200.90625 1200 l 2
 197.60546875 1200 194.90625 1202.70019531 194.90625 1206 c 2
 194.90625 1394 l 2
 194.90625 1397.29980469 197.60546875 1400 200.90625 1400 c 2
 288.90625 1400 l 2
588.90625 1400 m 2
 592.206054688 1400 594.90625 1397.29980469 594.90625 1394 c 2
 594.90625 1206 l 2
 594.90625 1202.70019531 592.206054688 1200 588.90625 1200 c 2
 500.90625 1200 l 2
 497.60546875 1200 494.90625 1202.70019531 494.90625 1206 c 2
 494.90625 1394 l 2
 494.90625 1397.29980469 497.60546875 1400 500.90625 1400 c 2
 588.90625 1400 l 2
EndSplineSet
Validated: 1
EndChar

StartChar: Adieresis
Encoding: 196 196 126
Width: 800
Flags: W
HStem: 0 21G<54.3501 145.65 654.35 745.65> 0 21G<54.3501 145.65 654.35 745.65> 450 100<150 650> 900 100<150 650> 1200 200<200 300 500 600>
VStem: 50 100<0 450 550 900> 200 100<1200 1400> 500 100<1200 1400> 650 100<0 450 550 900>
LayerCount: 2
Fore
SplineSet
675 1000 m 2xbf80
 716.400390625 1000 750 966.400390625 750 925 c 2
 750 6 l 2
 750 2.7001953125 747.299804688 0 744 0 c 2
 656 0 l 2
 652.700195312 0 650 2.7001953125 650 6 c 2
 650 444 l 2
 650 447.299804688 647.299804688 450 644 450 c 2
 156 450 l 2
 152.700195312 450 150 447.299804688 150 444 c 2
 150 6 l 2
 150 2.7001953125 147.299804688 0 144 0 c 2
 56 0 l 2
 52.7001953125 0 50 2.7001953125 50 6 c 2
 50 925 l 2
 50 966.400390625 83.599609375 1000 125 1000 c 2
 675 1000 l 2xbf80
150 556 m 2
 150 552.700195312 152.700195312 550 156 550 c 2
 644 550 l 2
 647.299804688 550 650 552.700195312 650 556 c 2
 650 875 l 2
 650 888.799804688 638.799804688 900 625 900 c 2
 175 900 l 2
 161.200195312 900 150 888.799804688 150 875 c 2
 150 556 l 2
294 1400 m 2
 297.299804688 1400 300 1397.29980469 300 1394 c 2
 300 1206 l 2
 300 1202.70019531 297.299804688 1200 294 1200 c 2
 206 1200 l 2
 202.700195312 1200 200 1202.70019531 200 1206 c 2
 200 1394 l 2
 200 1397.29980469 202.700195312 1400 206 1400 c 2
 294 1400 l 2
594 1400 m 2
 597.299804688 1400 600 1397.29980469 600 1394 c 2
 600 1206 l 2
 600 1202.70019531 597.299804688 1200 594 1200 c 2
 506 1200 l 2
 502.700195312 1200 500 1202.70019531 500 1206 c 2
 500 1394 l 2
 500 1397.29980469 502.700195312 1400 506 1400 c 2
 594 1400 l 2
EndSplineSet
Validated: 1
EndChar

StartChar: Edieresis
Encoding: 203 203 127
Width: 800
Flags: W
HStem: 0 100<150 750> 450 100<150 700> 900 100<150 750> 1200 200<200 300 500 600>
VStem: 50 100<100 450 550 900> 200 100<1200 1400> 500 100<1200 1400>
LayerCount: 2
Fore
SplineSet
750 906 m 2
 750 902.700195312 747.299804688 900 744 900 c 2
 156 900 l 2
 152.700195312 900 150 897.299804688 150 894 c 2
 150 556 l 2
 150 552.700195312 152.700195312 550 156 550 c 2
 694 550 l 2
 697.299804688 550 700 547.299804688 700 544 c 2
 700 456 l 2
 700 452.700195312 697.299804688 450 694 450 c 2
 156 450 l 2
 152.700195312 450 150 447.299804688 150 444 c 2
 150 125 l 2
 150 111.200195312 161.200195312 100 175 100 c 2
 744 100 l 2
 747.299804688 100 750 97.2998046875 750 94 c 2
 750 6 l 2
 750 2.7001953125 747.299804688 0 744 0 c 2
 125 0 l 2
 83.599609375 0 50 33.599609375 50 75 c 2
 50 994 l 2
 50 997.299804688 52.7001953125 1000 56 1000 c 2
 744 1000 l 2
 747.299804688 1000 750 997.299804688 750 994 c 2
 750 906 l 2
294 1400 m 2
 297.299804688 1400 300 1397.29980469 300 1394 c 2
 300 1206 l 2
 300 1202.70019531 297.299804688 1200 294 1200 c 2
 206 1200 l 2
 202.700195312 1200 200 1202.70019531 200 1206 c 2
 200 1394 l 2
 200 1397.29980469 202.700195312 1400 206 1400 c 2
 294 1400 l 2
594 1400 m 2
 597.299804688 1400 600 1397.29980469 600 1394 c 2
 600 1206 l 2
 600 1202.70019531 597.299804688 1200 594 1200 c 2
 506 1200 l 2
 502.700195312 1200 500 1202.70019531 500 1206 c 2
 500 1394 l 2
 500 1397.29980469 502.700195312 1400 506 1400 c 2
 594 1400 l 2
EndSplineSet
Validated: 1
EndChar

StartChar: Idieresis
Encoding: 207 207 128
Width: 500
Flags: W
HStem: 0 100<100 200.5 300.5 400> 900 100<100 200.5 300.5 400> 1200 200<50 150 350 450>
VStem: 50 100<1200 1400> 100 300<0 100 900 1000> 200.5 100<100 900> 350 100<1200 1400>
LayerCount: 2
Fore
SplineSet
400 906 m 2xe8
 400 902.700195312 397.299804688 900 394 900 c 2
 306.5 900 l 2
 303.200195312 900 300.5 897.299804688 300.5 894 c 2
 300.5 106 l 2xe4
 300.5 102.700195312 303.200195312 100 306.5 100 c 2
 394 100 l 2
 397.299804688 100 400 97.2998046875 400 94 c 2
 400 6 l 2
 400 2.7001953125 397.299804688 0 394 0 c 2
 106 0 l 2
 102.700195312 0 100 2.7001953125 100 6 c 2
 100 94 l 2xe8
 100 97.2998046875 102.700195312 100 106 100 c 2
 194.5 100 l 2
 197.799804688 100 200.5 102.700195312 200.5 106 c 2
 200.5 894 l 2xe4
 200.5 897.299804688 197.799804688 900 194.5 900 c 2
 106 900 l 2
 102.700195312 900 100 902.700195312 100 906 c 2
 100 994 l 2
 100 997.299804688 102.700195312 1000 106 1000 c 2
 394 1000 l 2
 397.299804688 1000 400 997.299804688 400 994 c 2
 400 906 l 2xe8
144 1400 m 2
 147.299804688 1400 150 1397.29980469 150 1394 c 2
 150 1206 l 2
 150 1202.70019531 147.299804688 1200 144 1200 c 2
 56 1200 l 2
 52.7001953125 1200 50 1202.70019531 50 1206 c 2
 50 1394 l 2xf0
 50 1397.29980469 52.7001953125 1400 56 1400 c 2
 144 1400 l 2
444 1400 m 2
 447.299804688 1400 450 1397.29980469 450 1394 c 2
 450 1206 l 2
 450 1202.70019531 447.299804688 1200 444 1200 c 2
 356 1200 l 2
 352.700195312 1200 350 1202.70019531 350 1206 c 2
 350 1394 l 2xe2
 350 1397.29980469 352.700195312 1400 356 1400 c 2
 444 1400 l 2
EndSplineSet
Validated: 1
EndChar

StartChar: Odieresis
Encoding: 214 214 129
Width: 800
Flags: W
HStem: 0 100<150 650> 900 100<150 650> 1200 200<200 300 500 600>
VStem: 50 100<100 900> 200 100<1200 1400> 500 100<1200 1400> 650 100<100 900>
LayerCount: 2
Fore
SplineSet
675 0 m 2
 125 0 l 2
 83.599609375 0 50 33.599609375 50 75 c 2
 50 925 l 2
 50 966.400390625 83.599609375 1000 125 1000 c 2
 675 1000 l 2
 716.400390625 1000 750 966.400390625 750 925 c 2
 750 75 l 2
 750 33.599609375 716.400390625 0 675 0 c 2
175 100 m 2
 625 100 l 2
 638.799804688 100 650 111.200195312 650 125 c 2
 650 875 l 2
 650 888.799804688 638.799804688 900 625 900 c 2
 175 900 l 2
 161.200195312 900 150 888.799804688 150 875 c 2
 150 125 l 2
 150 111.200195312 161.200195312 100 175 100 c 2
294 1400 m 2
 297.299804688 1400 300 1397.29980469 300 1394 c 2
 300 1206 l 2
 300 1202.70019531 297.299804688 1200 294 1200 c 2
 206 1200 l 2
 202.700195312 1200 200 1202.70019531 200 1206 c 2
 200 1394 l 2
 200 1397.29980469 202.700195312 1400 206 1400 c 2
 294 1400 l 2
594 1400 m 2
 597.299804688 1400 600 1397.29980469 600 1394 c 2
 600 1206 l 2
 600 1202.70019531 597.299804688 1200 594 1200 c 2
 506 1200 l 2
 502.700195312 1200 500 1202.70019531 500 1206 c 2
 500 1394 l 2
 500 1397.29980469 502.700195312 1400 506 1400 c 2
 594 1400 l 2
EndSplineSet
Validated: 1
EndChar

StartChar: Udieresis
Encoding: 220 220 130
Width: 800
Flags: W
HStem: 0 100<150 650> 980 20G<54.3501 145.65 654.35 745.65> 1200 200<200 300 500 600>
VStem: 50 100<100 1000> 200 100<1200 1400> 500 100<1200 1400> 650 100<100 1000>
LayerCount: 2
Fore
SplineSet
675 0 m 2
 125 0 l 2
 83.599609375 0 50 33.599609375 50 75 c 2
 50 994 l 2
 50 997.299804688 52.7001953125 1000 56 1000 c 2
 144 1000 l 2
 147.299804688 1000 150 997.299804688 150 994 c 2
 150 125 l 2
 150 111.200195312 161.200195312 100 175 100 c 2
 625 100 l 2
 638.799804688 100 650 111.200195312 650 125 c 2
 650 994 l 2
 650 997.299804688 652.700195312 1000 656 1000 c 2
 744 1000 l 2
 747.299804688 1000 750 997.299804688 750 994 c 2
 750 75 l 2
 750 33.599609375 716.400390625 0 675 0 c 2
294 1400 m 2
 297.299804688 1400 300 1397.29980469 300 1394 c 2
 300 1206 l 2
 300 1202.70019531 297.299804688 1200 294 1200 c 2
 206 1200 l 2
 202.700195312 1200 200 1202.70019531 200 1206 c 2
 200 1394 l 2
 200 1397.29980469 202.700195312 1400 206 1400 c 2
 294 1400 l 2
594 1400 m 2
 597.299804688 1400 600 1397.29980469 600 1394 c 2
 600 1206 l 2
 600 1202.70019531 597.299804688 1200 594 1200 c 2
 506 1200 l 2
 502.700195312 1200 500 1202.70019531 500 1206 c 2
 500 1394 l 2
 500 1397.29980469 502.700195312 1400 506 1400 c 2
 594 1400 l 2
EndSplineSet
Validated: 1
EndChar

StartChar: Yacute
Encoding: 221 221 131
Width: 790
Flags: W
HStem: 0 21G<349.256 440.556> 0 21G<349.256 440.556> 980 20G<53.7061 159.006 630.856 736.106>
VStem: 344.906 100<0 542.927>
LayerCount: 2
Fore
SplineSet
626.706054688 997 m 2xb0
 627.805664062 998.900390625 629.805664062 1000 631.90625 1000 c 2
 733.805664062 1000 l 2
 738.40625 1000 741.305664062 995 739.005859375 991 c 2
 445.706054688 487.900390625 l 2
 445.206054688 487 444.90625 486 444.90625 484.900390625 c 2
 444.90625 6 l 2
 444.90625 2.7001953125 442.206054688 0 438.90625 0 c 2
 350.90625 0 l 2
 347.60546875 0 344.90625 2.7001953125 344.90625 6 c 2
 344.90625 484.900390625 l 2
 344.90625 485.900390625 344.60546875 487 344.10546875 487.900390625 c 2
 50.8056640625 991 l 2
 48.505859375 995 51.40625 1000 56.005859375 1000 c 2
 157.90625 1000 l 2
 160.10546875 1000 162.005859375 998.799804688 163.10546875 997 c 2
 389.706054688 608.200195312 l 2
 392.005859375 604.200195312 397.805664062 604.200195312 400.10546875 608.200195312 c 2
 626.706054688 997 l 2xb0
440.805664062 1106.90039062 m 2
 438.706054688 1102.70019531 434.40625 1100 429.706054688 1100 c 2
 357.60546875 1100 l 2
 349.10546875 1100 343.10546875 1108.29980469 345.706054688 1116.40039062 c 2
 435.706054688 1391.40039062 l 2
 437.40625 1396.5 442.206054688 1400 447.60546875 1400 c 2
 568.206054688 1400 l 2
 577.505859375 1400 583.60546875 1390.20019531 579.40625 1381.90039062 c 2
 440.805664062 1106.90039062 l 2
EndSplineSet
Validated: 1
EndChar

StartChar: yacute
Encoding: 253 253 132
Width: 728
Flags: W
HStem: -200 100<63.7998 305.356> 680 20G<28.8999 126.05 601.6 698.65>
LayerCount: 2
Fore
SplineSet
597.299804688 696.099609375 m 2
 598.099609375 698.400390625 600.400390625 700 602.799804688 700 c 2
 696.599609375 700 l 2
 700.700195312 700 703.599609375 695.799804688 702.200195312 691.900390625 c 2
 417 -82.2001953125 l 1
 391.700195312 -151 l 2
 386.299804688 -165.799804688 376.299804688 -178.200195312 363.799804688 -186.799804688 c 0
 351.599609375 -195.200195312 336.900390625 -200 321.400390625 -200 c 2
 69.7998046875 -200 l 2
 66.5 -200 63.7998046875 -197.299804688 63.7998046875 -194 c 2
 63.7998046875 -106 l 2
 63.7998046875 -102.700195312 66.5 -100 69.7998046875 -100 c 2
 299.799804688 -100 l 2
 302.299804688 -100 304.5 -98.5 305.400390625 -96.099609375 c 2
 309.799804688 -84.2001953125 l 2
 310.299804688 -82.900390625 310.299804688 -81.400390625 309.799804688 -80.099609375 c 2
 25.400390625 691.900390625 l 2
 23.900390625 695.799804688 26.7998046875 700 31 700 c 2
 124.799804688 700 l 2
 127.299804688 700 129.5 698.5 130.400390625 696.099609375 c 2
 352.099609375 94.2998046875 l 2
 356.200195312 83.400390625 371.599609375 83.400390625 375.599609375 94.2998046875 c 2
 597.299804688 696.099609375 l 2
409.799804688 806.900390625 m 2
 407.599609375 802.700195312 403.299804688 800 398.599609375 800 c 2
 326.5 800 l 2
 318 800 312 808.299804688 314.599609375 816.400390625 c 2
 404.599609375 1091.40039062 l 2
 406.299804688 1096.5 411.099609375 1100 416.5 1100 c 2
 537.200195312 1100 l 2
 546.5 1100 552.599609375 1090.20019531 548.400390625 1081.90039062 c 2
 409.799804688 806.900390625 l 2
EndSplineSet
Validated: 1
EndChar

StartChar: cedilla
Encoding: 184 184 133
Width: 406
Flags: W
HStem: -200 100<50 250>
VStem: 250 100<-100 -0.00196967>
LayerCount: 2
Fore
SplineSet
250 -6 m 6
 250 -2.7001953125 247.299804688 0 244 0 c 5
 356 0 l 5
 352.700195312 0 350 -2.7001953125 350 -6 c 6
 350 -100 l 6
 350 -155.200195312 305.200195312 -200 250 -200 c 6
 56 -200 l 6
 52.7001953125 -200 50 -197.299804688 50 -194 c 6
 50 -106 l 6
 50 -102.700195312 52.7001953125 -100 56 -100 c 6
 225 -100 l 6
 238.799804688 -100 250 -88.7998046875 250 -75 c 6
 250 -6 l 6
EndSplineSet
Validated: 1
EndChar

StartChar: periodcentered
Encoding: 183 183 134
Width: 300
Flags: W
HStem: 400 200<50 250>
VStem: 50 200<400 600>
LayerCount: 2
Fore
SplineSet
244 400 m 2
 56 400 l 2
 52.7001953125 400 50 402.700195312 50 406 c 2
 50 594 l 2
 50 597.299804688 52.7001953125 600 56 600 c 2
 244 600 l 2
 247.299804688 600 250 597.299804688 250 594 c 2
 250 406 l 2
 250 402.700195312 247.299804688 400 244 400 c 2
EndSplineSet
Validated: 1
EndChar

StartChar: brokenbar
Encoding: 166 166 135
Width: 200
Flags: W
VStem: 50 100<-150 450 550 1150>
LayerCount: 2
Fore
SplineSet
50 444 m 2
 50 447.299804688 52.7001953125 450 56 450 c 2
 144 450 l 2
 147.299804688 450 150 447.299804688 150 444 c 2
 150 -144 l 2
 150 -147.299804688 147.299804688 -150 144 -150 c 2
 56 -150 l 2
 52.7001953125 -150 50 -147.299804688 50 -144 c 2
 50 444 l 2
150 556 m 2
 150 552.700195312 147.299804688 550 144 550 c 2
 56 550 l 2
 52.7001953125 550 50 552.700195312 50 556 c 2
 50 1144 l 2
 50 1147.29980469 52.7001953125 1150 56 1150 c 2
 144 1150 l 2
 147.299804688 1150 150 1147.29980469 150 1144 c 2
 150 556 l 2
EndSplineSet
Validated: 1
EndChar

StartChar: ccedilla
Encoding: 231 231 136
Width: 700
Flags: W
HStem: -200 100<200 400> 0 100<150 650> 600 100<150 650>
VStem: 50 100<100 600> 400 100<-100 -0.00196967>
LayerCount: 2
Fore
SplineSet
644 0 m 2
 125 0 l 2
 83.599609375 0 50 33.599609375 50 75 c 2
 50 625 l 2
 50 666.400390625 83.599609375 700 125 700 c 2
 644 700 l 2
 647.299804688 700 650 697.299804688 650 694 c 2
 650 606 l 2
 650 602.700195312 647.299804688 600 644 600 c 2
 175 600 l 2
 161.200195312 600 150 588.799804688 150 575 c 2
 150 125 l 2
 150 111.200195312 161.200195312 100 175 100 c 2
 644 100 l 2
 647.299804688 100 650 97.2998046875 650 94 c 2
 650 6 l 2
 650 2.7001953125 647.299804688 0 644 0 c 2
400 -6 m 2
 400 -2.7001953125 397.299804688 0 394 0 c 1
 506 0 l 1
 502.700195312 0 500 -2.7001953125 500 -6 c 2
 500 -100 l 2
 500 -155.200195312 455.200195312 -200 400 -200 c 2
 206 -200 l 2
 202.700195312 -200 200 -197.299804688 200 -194 c 2
 200 -106 l 2
 200 -102.700195312 202.700195312 -100 206 -100 c 2
 375 -100 l 2
 388.799804688 -100 400 -88.7998046875 400 -75 c 2
 400 -6 l 2
EndSplineSet
Validated: 5
EndChar

StartChar: asciicircum
Encoding: 94 94 137
Width: 547
Flags: W
HStem: 755.2 342.5
VStem: 51.7568 444.8
LayerCount: 2
Fore
SplineSet
273.65625 974.200195312 m 1
 103.756835938 755.200195312 l 2
 101.556640625 752.299804688 97.3564453125 752.099609375 94.7568359375 754.599609375 c 2
 51.7568359375 797.400390625 l 2
 49.8564453125 799.299804688 49.45703125 802.299804688 50.7568359375 804.700195312 c 2
 221.056640625 1097.70019531 l 2
 222.15625 1099.59960938 224.15625 1100.70019531 226.256835938 1100.70019531 c 2
 273.65625 1100.5 l 1
 321.056640625 1100.70019531 l 2
 323.15625 1100.70019531 325.15625 1099.59960938 326.256835938 1097.70019531 c 2
 496.556640625 804.700195312 l 2
 497.95703125 802.299804688 497.556640625 799.400390625 495.556640625 797.400390625 c 2
 452.556640625 754.599609375 l 2
 449.95703125 752.099609375 445.756835938 752.299804688 443.556640625 755.200195312 c 2
 273.65625 974.200195312 l 1
EndSplineSet
Validated: 1
EndChar

StartChar: acircumflex
Encoding: 226 226 138
Width: 700
Flags: W
HStem: 0 100<150 538.055> 300 100<150 550> 600 100<50 550>
VStem: 50 100<100 300> 550 100<0 16.9004 111.821 300 400 600>
CounterMasks: 1 e0
LayerCount: 2
Fore
SplineSet
575 700 m 2
 616.400390625 700 650 666.400390625 650 625 c 2
 650 400 l 1
 650 175 l 1
 650 6 l 2
 650 2.7001953125 647.299804688 0 644 0 c 2
 556 0 l 2
 552.700195312 0 550 2.7001953125 550 6 c 2
 550 16.900390625 l 1
 527.299804688 6.099609375 501.799804688 0 475 0 c 2
 125 0 l 2
 83.599609375 0 50 33.599609375 50 75 c 2
 50 325 l 2
 50 366.400390625 83.599609375 400 125 400 c 2
 544 400 l 2
 547.299804688 400 550 402.700195312 550 406 c 2
 550 575 l 2
 550 588.799804688 538.799804688 600 525 600 c 2
 56 600 l 2
 52.7001953125 600 50 602.700195312 50 606 c 2
 50 694 l 2
 50 697.299804688 52.7001953125 700 56 700 c 2
 575 700 l 2
475 100 m 2
 516.400390625 100 550 133.599609375 550 175 c 2
 550 294 l 2
 550 297.299804688 547.299804688 300 544 300 c 2
 175 300 l 2
 161.200195312 300 150 288.799804688 150 275 c 2
 150 125 l 2
 150 111.200195312 161.200195312 100 175 100 c 2
 475 100 l 2
350 974.200195312 m 1
 180.099609375 755.200195312 l 2
 177.900390625 752.299804688 173.700195312 752.099609375 171.099609375 754.599609375 c 2
 128.099609375 797.400390625 l 2
 126.200195312 799.299804688 125.799804688 802.299804688 127.099609375 804.700195312 c 2
 297.400390625 1097.70019531 l 2
 298.5 1099.59960938 300.5 1100.70019531 302.599609375 1100.70019531 c 2
 350 1100.5 l 1
 397.400390625 1100.70019531 l 2
 399.5 1100.70019531 401.5 1099.59960938 402.599609375 1097.70019531 c 2
 572.900390625 804.700195312 l 2
 574.299804688 802.299804688 573.900390625 799.400390625 571.900390625 797.400390625 c 2
 528.900390625 754.599609375 l 2
 526.299804688 752.099609375 522.099609375 752.299804688 519.900390625 755.200195312 c 2
 350 974.200195312 l 1
EndSplineSet
Validated: 1
EndChar

StartChar: ecircumflex
Encoding: 234 234 139
Width: 700
Flags: W
HStem: 0 100<150 600> 300 100<150 550> 600 100<150 550>
VStem: 50 100<100 300 400 600> 550 100<400 600>
CounterMasks: 1 e0
LayerCount: 2
Fore
SplineSet
594 0 m 2
 125 0 l 2
 83.599609375 0 50 33.599609375 50 75 c 2
 50 625 l 2
 50 666.400390625 83.599609375 700 125 700 c 2
 575 700 l 2
 616.400390625 700 650 666.400390625 650 625 c 2
 650 306 l 2
 650 302.700195312 647.299804688 300 644 300 c 2
 156 300 l 2
 152.700195312 300 150 297.299804688 150 294 c 2
 150 125 l 2
 150 111.200195312 161.200195312 100 175 100 c 2
 594 100 l 2
 597.299804688 100 600 97.2998046875 600 94 c 2
 600 6 l 2
 600 2.7001953125 597.299804688 0 594 0 c 2
156 400 m 2
 544 400 l 2
 547.299804688 400 550 402.700195312 550 406 c 2
 550 575 l 2
 550 588.799804688 538.799804688 600 525 600 c 2
 175 600 l 2
 161.200195312 600 150 588.799804688 150 575 c 2
 150 406 l 2
 150 402.700195312 152.700195312 400 156 400 c 2
350 974.200195312 m 1
 180.099609375 755.200195312 l 2
 177.900390625 752.299804688 173.700195312 752.099609375 171.099609375 754.599609375 c 2
 128.099609375 797.400390625 l 2
 126.200195312 799.299804688 125.799804688 802.299804688 127.099609375 804.700195312 c 2
 297.400390625 1097.70019531 l 2
 298.5 1099.59960938 300.5 1100.70019531 302.599609375 1100.70019531 c 2
 350 1100.5 l 1
 397.400390625 1100.70019531 l 2
 399.5 1100.70019531 401.5 1099.59960938 402.599609375 1097.70019531 c 2
 572.900390625 804.700195312 l 2
 574.299804688 802.299804688 573.900390625 799.400390625 571.900390625 797.400390625 c 2
 528.900390625 754.599609375 l 2
 526.299804688 752.099609375 522.099609375 752.299804688 519.900390625 755.200195312 c 2
 350 974.200195312 l 1
EndSplineSet
Validated: 1
EndChar

StartChar: ocircumflex
Encoding: 244 244 140
Width: 700
Flags: W
HStem: 0 100<150 550> 600 100<150 550>
VStem: 50 100<100 600> 550 100<100 600>
LayerCount: 2
Fore
SplineSet
575 0 m 2
 125 0 l 2
 83.599609375 0 50 33.599609375 50 75 c 2
 50 625 l 2
 50 666.400390625 83.599609375 700 125 700 c 2
 575 700 l 2
 616.400390625 700 650 666.400390625 650 625 c 2
 650 75 l 2
 650 33.599609375 616.400390625 0 575 0 c 2
175 100 m 2
 525 100 l 2
 538.799804688 100 550 111.200195312 550 125 c 2
 550 575 l 2
 550 588.799804688 538.799804688 600 525 600 c 2
 175 600 l 2
 161.200195312 600 150 588.799804688 150 575 c 2
 150 125 l 2
 150 111.200195312 161.200195312 100 175 100 c 2
350 974.200195312 m 1
 180.099609375 755.200195312 l 2
 177.900390625 752.299804688 173.700195312 752.099609375 171.099609375 754.599609375 c 2
 128.099609375 797.400390625 l 2
 126.200195312 799.299804688 125.799804688 802.299804688 127.099609375 804.700195312 c 2
 297.400390625 1097.70019531 l 2
 298.5 1099.59960938 300.5 1100.70019531 302.599609375 1100.70019531 c 2
 350 1100.5 l 1
 397.400390625 1100.70019531 l 2
 399.5 1100.70019531 401.5 1099.59960938 402.599609375 1097.70019531 c 2
 572.900390625 804.700195312 l 2
 574.299804688 802.299804688 573.900390625 799.400390625 571.900390625 797.400390625 c 2
 528.900390625 754.599609375 l 2
 526.299804688 752.099609375 522.099609375 752.299804688 519.900390625 755.200195312 c 2
 350 974.200195312 l 1
EndSplineSet
Validated: 1
EndChar

StartChar: ucircumflex
Encoding: 251 251 141
Width: 700
Flags: W
HStem: 0 100<150 538.055> 680 20G<54.3501 145.65 554.35 645.65>
VStem: 50 100<100 700> 550 100<0 16.9004 111.821 700>
LayerCount: 2
Fore
SplineSet
550 694 m 2
 550 697.299804688 552.700195312 700 556 700 c 2
 644 700 l 2
 647.299804688 700 650 697.299804688 650 694 c 2
 650 175 l 1
 650 6 l 2
 650 2.7001953125 647.299804688 0 644 0 c 2
 556 0 l 2
 552.700195312 0 550 2.7001953125 550 6 c 2
 550 16.900390625 l 1
 527.299804688 6.099609375 501.799804688 0 475 0 c 2
 125 0 l 2
 83.599609375 0 50 33.599609375 50 75 c 2
 50 694 l 2
 50 697.299804688 52.7001953125 700 56 700 c 2
 144 700 l 2
 147.299804688 700 150 697.299804688 150 694 c 2
 150 125 l 2
 150 111.200195312 161.200195312 100 175 100 c 2
 475 100 l 2
 516.400390625 100 550 133.599609375 550 175 c 2
 550 694 l 2
350 974.200195312 m 1
 180.099609375 755.200195312 l 2
 177.900390625 752.299804688 173.700195312 752.099609375 171.099609375 754.599609375 c 2
 128.099609375 797.400390625 l 2
 126.200195312 799.299804688 125.799804688 802.299804688 127.099609375 804.700195312 c 2
 297.400390625 1097.70019531 l 2
 298.5 1099.59960938 300.5 1100.70019531 302.599609375 1100.70019531 c 2
 350 1100.5 l 1
 397.400390625 1100.70019531 l 2
 399.5 1100.70019531 401.5 1099.59960938 402.599609375 1097.70019531 c 2
 572.900390625 804.700195312 l 2
 574.299804688 802.299804688 573.900390625 799.400390625 571.900390625 797.400390625 c 2
 528.900390625 754.599609375 l 2
 526.299804688 752.099609375 522.099609375 752.299804688 519.900390625 755.200195312 c 2
 350 974.200195312 l 1
EndSplineSet
Validated: 1
EndChar

StartChar: icircumflex
Encoding: 238 238 142
Width: 522
Flags: W
HStem: 0 21G<215.006 306.356> 0 21G<215.006 306.356> 680 20G<215.006 306.307>
VStem: 210.656 100<0 700>
LayerCount: 2
Fore
SplineSet
304.65625 0 m 2xb0
 216.65625 0 l 2
 213.356445312 0 210.65625 2.7001953125 210.65625 6 c 2
 210.65625 694 l 2
 210.65625 697.299804688 213.356445312 700 216.65625 700 c 2
 304.65625 700 l 2
 307.95703125 700 310.65625 697.299804688 310.65625 694 c 2
 310.65625 6 l 2
 310.65625 2.7001953125 308.056640625 0 304.65625 0 c 2xb0
260.65625 974.200195312 m 1
 90.7568359375 755.200195312 l 2
 88.556640625 752.299804688 84.3564453125 752.099609375 81.7568359375 754.599609375 c 2
 38.7568359375 797.400390625 l 2
 36.8564453125 799.299804688 36.45703125 802.299804688 37.7568359375 804.700195312 c 2
 208.056640625 1097.70019531 l 2
 209.15625 1099.59960938 211.15625 1100.70019531 213.256835938 1100.70019531 c 2
 260.65625 1100.5 l 1
 308.056640625 1100.70019531 l 2
 310.15625 1100.70019531 312.15625 1099.59960938 313.256835938 1097.70019531 c 2
 483.556640625 804.700195312 l 2
 484.95703125 802.299804688 484.556640625 799.400390625 482.556640625 797.400390625 c 2
 439.556640625 754.599609375 l 2
 436.95703125 752.099609375 432.756835938 752.299804688 430.556640625 755.200195312 c 2
 260.65625 974.200195312 l 1
EndSplineSet
Validated: 1
EndChar

StartChar: Acircumflex
Encoding: 194 194 143
Width: 800
Flags: W
HStem: 451.2 100<150 650> 901.2 100<150 650>
VStem: 50 100<1.2002 451.2 551.2 901.2> 650 100<1.2002 451.2 551.2 901.2>
LayerCount: 2
Fore
SplineSet
675 1001.20019531 m 2
 716.400390625 1001.20019531 750 967.700195312 750 926.200195312 c 2
 750 7.2001953125 l 2
 750 3.900390625 747.299804688 1.2001953125 744 1.2001953125 c 2
 656 1.2001953125 l 2
 652.700195312 1.2001953125 650 3.900390625 650 7.2001953125 c 2
 650 445.200195312 l 2
 650 448.5 647.299804688 451.200195312 644 451.200195312 c 2
 156 451.200195312 l 2
 152.700195312 451.200195312 150 448.5 150 445.200195312 c 2
 150 7.2001953125 l 2
 150 3.900390625 147.299804688 1.2001953125 144 1.2001953125 c 2
 56 1.2001953125 l 2
 52.7001953125 1.2001953125 50 3.900390625 50 7.2001953125 c 2
 50 926.200195312 l 2
 50 967.599609375 83.599609375 1001.20019531 125 1001.20019531 c 2
 675 1001.20019531 l 2
150 557.200195312 m 2
 150 553.900390625 152.700195312 551.200195312 156 551.200195312 c 2
 644 551.200195312 l 2
 647.299804688 551.200195312 650 553.900390625 650 557.200195312 c 2
 650 876.200195312 l 2
 650 890 638.799804688 901.200195312 625 901.200195312 c 2
 175 901.200195312 l 2
 161.200195312 901.200195312 150 890 150 876.200195312 c 2
 150 557.200195312 l 2
400 1273.40039062 m 1
 230.099609375 1054.40039062 l 2
 227.900390625 1051.5 223.700195312 1051.29980469 221.099609375 1053.79980469 c 2
 178.099609375 1096.59960938 l 2
 176.200195312 1098.5 175.799804688 1101.5 177.099609375 1103.90039062 c 2
 347.400390625 1397 l 2
 348.5 1398.90039062 350.5 1400 352.599609375 1400 c 2
 400 1399.79980469 l 1
 447.400390625 1400 l 2
 449.5 1400 451.5 1398.90039062 452.599609375 1397 c 2
 622.900390625 1104 l 2
 624.299804688 1101.59960938 623.900390625 1098.70019531 621.900390625 1096.70019531 c 2
 578.900390625 1053.90039062 l 2
 576.299804688 1051.40039062 572.099609375 1051.59960938 569.900390625 1054.5 c 2
 400 1273.40039062 l 1
EndSplineSet
Validated: 1
EndChar

StartChar: Ecircumflex
Encoding: 202 202 144
Width: 800
Flags: W
HStem: 1.2002 100<150 750> 451.2 100<150 700> 901.2 100<150 750>
VStem: 50 100<101.2 451.2 551.2 901.2>
CounterMasks: 1 e0
LayerCount: 2
Fore
SplineSet
750 907.200195312 m 2
 750 903.900390625 747.299804688 901.200195312 744 901.200195312 c 2
 156 901.200195312 l 2
 152.700195312 901.200195312 150 898.5 150 895.200195312 c 2
 150 557.200195312 l 2
 150 553.900390625 152.700195312 551.200195312 156 551.200195312 c 2
 694 551.200195312 l 2
 697.299804688 551.200195312 700 548.5 700 545.200195312 c 2
 700 457.200195312 l 2
 700 453.900390625 697.299804688 451.200195312 694 451.200195312 c 2
 156 451.200195312 l 2
 152.700195312 451.200195312 150 448.5 150 445.200195312 c 2
 150 126.200195312 l 2
 150 112.400390625 161.200195312 101.200195312 175 101.200195312 c 2
 744 101.200195312 l 2
 747.299804688 101.200195312 750 98.5 750 95.2001953125 c 2
 750 7.2001953125 l 2
 750 3.900390625 747.299804688 1.2001953125 744 1.2001953125 c 2
 125 1.2001953125 l 2
 83.599609375 1.2001953125 50 34.7998046875 50 76.2001953125 c 2
 50 995.200195312 l 2
 50 998.5 52.7001953125 1001.20019531 56 1001.20019531 c 2
 744 1001.20019531 l 2
 747.299804688 1001.20019531 750 998.5 750 995.200195312 c 2
 750 907.200195312 l 2
400 1273.40039062 m 1
 230.099609375 1054.40039062 l 2
 227.900390625 1051.5 223.700195312 1051.29980469 221.099609375 1053.79980469 c 2
 178.099609375 1096.59960938 l 2
 176.200195312 1098.5 175.799804688 1101.5 177.099609375 1103.90039062 c 2
 347.400390625 1397 l 2
 348.5 1398.90039062 350.5 1400 352.599609375 1400 c 2
 400 1399.79980469 l 1
 447.400390625 1400 l 2
 449.5 1400 451.5 1398.90039062 452.599609375 1397 c 2
 622.900390625 1104 l 2
 624.299804688 1101.59960938 623.900390625 1098.70019531 621.900390625 1096.70019531 c 2
 578.900390625 1053.90039062 l 2
 576.299804688 1051.40039062 572.099609375 1051.59960938 569.900390625 1054.5 c 2
 400 1273.40039062 l 1
EndSplineSet
Validated: 1
EndChar

StartChar: Icircumflex
Encoding: 206 206 145
Width: 472
Flags: W
HStem: 1.2002 100<85.6562 186.156 286.156 385.656> 901.2 100<85.6562 186.156 286.156 385.656>
VStem: 85.6562 300<1.2002 101.2 901.2 1001.2> 186.156 100<101.2 901.2>
LayerCount: 2
Fore
SplineSet
385.65625 907.200195312 m 2xe0
 385.65625 903.900390625 383.056640625 901.200195312 379.65625 901.200195312 c 2
 292.15625 901.200195312 l 2
 288.856445312 901.200195312 286.15625 898.5 286.15625 895.200195312 c 2
 286.15625 107.200195312 l 2xd0
 286.15625 103.900390625 288.856445312 101.200195312 292.15625 101.200195312 c 2
 379.65625 101.200195312 l 2
 382.95703125 101.200195312 385.65625 98.5 385.65625 95.2001953125 c 2
 385.65625 7.2001953125 l 2
 385.65625 3.900390625 382.95703125 1.2001953125 379.65625 1.2001953125 c 2
 91.65625 1.2001953125 l 2
 88.3564453125 1.2001953125 85.65625 3.900390625 85.65625 7.2001953125 c 2
 85.65625 95.2001953125 l 2xe0
 85.65625 98.5 88.3564453125 101.200195312 91.65625 101.200195312 c 2
 180.15625 101.200195312 l 2
 183.45703125 101.200195312 186.15625 103.900390625 186.15625 107.200195312 c 2
 186.15625 895.200195312 l 2xd0
 186.15625 898.5 183.45703125 901.200195312 180.15625 901.200195312 c 2
 91.65625 901.200195312 l 2
 88.3564453125 901.200195312 85.65625 903.900390625 85.65625 907.200195312 c 2
 85.65625 995.200195312 l 2
 85.65625 998.5 88.3564453125 1001.20019531 91.65625 1001.20019531 c 2
 379.65625 1001.20019531 l 2
 382.95703125 1001.20019531 385.65625 998.5 385.65625 995.200195312 c 2
 385.65625 907.200195312 l 2xe0
235.65625 1273.40039062 m 1
 65.7568359375 1054.40039062 l 2
 63.556640625 1051.5 59.3564453125 1051.29980469 56.7568359375 1053.79980469 c 2
 13.7568359375 1096.59960938 l 2
 11.8564453125 1098.5 11.45703125 1101.5 12.7568359375 1103.90039062 c 2
 183.15625 1397 l 2
 184.256835938 1398.90039062 186.256835938 1400 188.356445312 1400 c 2
 235.756835938 1399.79980469 l 1
 283.056640625 1400 l 2
 285.15625 1400 287.15625 1398.90039062 288.256835938 1397 c 2
 458.556640625 1104 l 2
 459.95703125 1101.59960938 459.556640625 1098.70019531 457.556640625 1096.70019531 c 2
 414.556640625 1053.90039062 l 2
 411.95703125 1051.40039062 407.756835938 1051.59960938 405.556640625 1054.5 c 2
 235.65625 1273.40039062 l 1
EndSplineSet
Validated: 1
EndChar

StartChar: Ocircumflex
Encoding: 212 212 146
Width: 800
Flags: W
HStem: 1.2002 100<150 650> 901.2 100<150 650>
VStem: 50 100<101.2 901.2> 650 100<101.2 901.2>
LayerCount: 2
Fore
SplineSet
675 1.2001953125 m 2
 125 1.2001953125 l 2
 83.599609375 1.2001953125 50 34.7998046875 50 76.2001953125 c 2
 50 926.200195312 l 2
 50 967.599609375 83.599609375 1001.20019531 125 1001.20019531 c 2
 675 1001.20019531 l 2
 716.400390625 1001.20019531 750 967.599609375 750 926.200195312 c 2
 750 76.2001953125 l 2
 750 34.7998046875 716.400390625 1.2001953125 675 1.2001953125 c 2
175 101.200195312 m 2
 625 101.200195312 l 2
 638.799804688 101.200195312 650 112.400390625 650 126.200195312 c 2
 650 876.200195312 l 2
 650 890 638.799804688 901.200195312 625 901.200195312 c 2
 175 901.200195312 l 2
 161.200195312 901.200195312 150 890 150 876.200195312 c 2
 150 126.200195312 l 2
 150 112.400390625 161.200195312 101.200195312 175 101.200195312 c 2
400 1273.40039062 m 1
 230.099609375 1054.40039062 l 2
 227.900390625 1051.5 223.700195312 1051.29980469 221.099609375 1053.79980469 c 2
 178.099609375 1096.59960938 l 2
 176.200195312 1098.5 175.799804688 1101.5 177.099609375 1103.90039062 c 2
 347.400390625 1397 l 2
 348.5 1398.90039062 350.5 1400 352.599609375 1400 c 2
 400 1399.79980469 l 1
 447.400390625 1400 l 2
 449.5 1400 451.5 1398.90039062 452.599609375 1397 c 2
 622.900390625 1104 l 2
 624.299804688 1101.59960938 623.900390625 1098.70019531 621.900390625 1096.70019531 c 2
 578.900390625 1053.90039062 l 2
 576.299804688 1051.40039062 572.099609375 1051.59960938 569.900390625 1054.5 c 2
 400 1273.40039062 l 1
EndSplineSet
Validated: 1
EndChar

StartChar: Ucircumflex
Encoding: 219 219 147
Width: 800
Flags: W
HStem: 1.2002 100<150 650>
VStem: 50 100<101.2 1001.2> 650 100<101.2 1001.2>
LayerCount: 2
Fore
SplineSet
675 1.2001953125 m 2
 125 1.2001953125 l 2
 83.599609375 1.2001953125 50 34.7998046875 50 76.2001953125 c 2
 50 995.200195312 l 2
 50 998.5 52.7001953125 1001.20019531 56 1001.20019531 c 2
 144 1001.20019531 l 2
 147.299804688 1001.20019531 150 998.5 150 995.200195312 c 2
 150 126.200195312 l 2
 150 112.400390625 161.200195312 101.200195312 175 101.200195312 c 2
 625 101.200195312 l 2
 638.799804688 101.200195312 650 112.400390625 650 126.200195312 c 2
 650 995.200195312 l 2
 650 998.5 652.700195312 1001.20019531 656 1001.20019531 c 2
 744 1001.20019531 l 2
 747.299804688 1001.20019531 750 998.5 750 995.200195312 c 2
 750 76.2001953125 l 2
 750 34.7998046875 716.400390625 1.2001953125 675 1.2001953125 c 2
400 1273.40039062 m 1
 230.099609375 1054.40039062 l 2
 227.900390625 1051.5 223.700195312 1051.29980469 221.099609375 1053.79980469 c 2
 178.099609375 1096.59960938 l 2
 176.200195312 1098.5 175.799804688 1101.5 177.099609375 1103.90039062 c 2
 347.400390625 1397 l 2
 348.5 1398.90039062 350.5 1400 352.599609375 1400 c 2
 400 1399.79980469 l 1
 447.400390625 1400 l 2
 449.5 1400 451.5 1398.90039062 452.599609375 1397 c 2
 622.900390625 1104 l 2
 624.299804688 1101.59960938 623.900390625 1098.70019531 621.900390625 1096.70019531 c 2
 578.900390625 1053.90039062 l 2
 576.299804688 1051.40039062 572.099609375 1051.59960938 569.900390625 1054.5 c 2
 400 1273.40039062 l 1
EndSplineSet
Validated: 1
EndChar

StartChar: Atilde
Encoding: 195 195 148
Width: 800
Flags: W
HStem: 0 21G<54.3501 145.65 654.35 745.65> 0 21G<54.3501 145.65 654.35 745.65> 450 100<150 650> 900 100<150 650> 1210.08 88.3482<429.837 595.104> 1300.13 88.2936<204.513 370.24>
VStem: 50 100<0 450 550 900> 650 100<0 450 550 900>
LayerCount: 2
Fore
SplineSet
675 1000 m 2xbf
 716.400390625 1000 750 966.400390625 750 925 c 2
 750 6 l 2
 750 2.7001953125 747.299804688 0 744 0 c 2
 656 0 l 2
 652.700195312 0 650 2.7001953125 650 6 c 2
 650 444 l 2
 650 447.299804688 647.299804688 450 644 450 c 2
 156 450 l 2
 152.700195312 450 150 447.299804688 150 444 c 2
 150 6 l 2
 150 2.7001953125 147.299804688 0 144 0 c 2
 56 0 l 2
 52.7001953125 0 50 2.7001953125 50 6 c 2
 50 925 l 2
 50 966.400390625 83.599609375 1000 125 1000 c 2
 675 1000 l 2xbf
150 556 m 2
 150 552.700195312 152.700195312 550 156 550 c 2
 644 550 l 2
 647.299804688 550 650 552.700195312 650 556 c 2
 650 875 l 2
 650 888.799804688 638.799804688 900 625 900 c 2
 175 900 l 2
 161.200195312 900 150 888.799804688 150 875 c 2
 150 556 l 2
148.900390625 1200.79980469 m 2
 147.692058465 1199.23356148 145.923052782 1198.46833633 144.157921159 1198.46833633 c 0
 141.978607462 1198.46833633 139.805199195 1199.63480893 138.700195312 1201.90039062 c 2
 117.099609375 1247.09960938 l 1
 101.599609375 1278.70019531 l 2
 101.189973791 1279.56027003 100.981732554 1280.47081623 100.981732554 1281.36987629 c 0
 100.981732554 1282.66559641 101.414258064 1283.93745936 102.299804688 1285 c 0
 150.599609375 1346.40039062 204.5 1380.79980469 262.599609375 1387.29980469 c 0
 269.433033597 1388.06139672 276.09381683 1388.41946682 282.593077756 1388.41946682 c 0
 339.247142335 1388.41946682 383.627755414 1361.21111389 423.099609375 1336.90039062 c 0
 456.334814452 1316.46923918 485.776574479 1298.42881972 517.789178572 1298.42881972 c 0
 521.030759446 1298.42881972 524.298700444 1298.61379698 527.599609375 1299 c 0
 561.900390625 1302.79980469 596.400390625 1326.90039062 630.099609375 1370.5 c 2
 651.099609375 1397.70019531 l 2
 652.307941535 1399.26643852 654.076947218 1400.03166367 655.842078841 1400.03166367 c 0
 658.021392538 1400.03166367 660.194800805 1398.86519107 661.299804688 1396.59960938 c 2
 682.799804688 1351.40039062 l 1
 698.299804688 1319.79980469 l 2
 698.709440272 1318.93972997 698.917681508 1318.02918377 698.917681508 1317.13012371 c 0
 698.917681508 1315.83440359 698.485155999 1314.56254064 697.599609375 1313.5 c 0
 649.299804688 1252.09960938 595.400390625 1217.70019531 537.299804688 1211.20019531 c 0
 530.457176781 1210.43871983 523.788191663 1210.08064279 517.281627236 1210.08064279 c 0
 460.554220692 1210.08064279 416.172742262 1237.29880926 376.700195312 1261.70019531 c 0
 343.445053832 1282.19994006 314.256929608 1300.12587979 281.876314702 1300.12587979 c 0
 278.716787799 1300.12587979 275.526865797 1299.95521031 272.299804688 1299.59960938 c 0
 238 1295.79980469 203.5 1271.70019531 169.799804688 1228.09960938 c 2
 148.900390625 1200.79980469 l 2
EndSplineSet
Validated: 1
EndChar

StartChar: atilde
Encoding: 227 227 149
Width: 700
Flags: W
HStem: 0 100<150 538.055> 300 100<150 550> 600 100<50 550> 909.98 88.3489<379.938 545.204> 1000.03 88.3931<154.613 320.353>
VStem: 50 100<100 300> 550 100<0 16.9004 111.821 300 400 600>
LayerCount: 2
Fore
SplineSet
575 700 m 2
 616.400390625 700 650 666.400390625 650 625 c 2
 650 400 l 1
 650 175 l 1
 650 6 l 2
 650 2.7001953125 647.299804688 0 644 0 c 2
 556 0 l 2
 552.700195312 0 550 2.7001953125 550 6 c 2
 550 16.900390625 l 1
 527.299804688 6.099609375 501.799804688 0 475 0 c 2
 125 0 l 2
 83.599609375 0 50 33.599609375 50 75 c 2
 50 325 l 2
 50 366.400390625 83.599609375 400 125 400 c 2
 544 400 l 2
 547.299804688 400 550 402.700195312 550 406 c 2
 550 575 l 2
 550 588.799804688 538.799804688 600 525 600 c 2
 56 600 l 2
 52.7001953125 600 50 602.700195312 50 606 c 2
 50 694 l 2
 50 697.299804688 52.7001953125 700 56 700 c 2
 575 700 l 2
475 100 m 2
 516.400390625 100 550 133.599609375 550 175 c 2
 550 294 l 2
 550 297.299804688 547.299804688 300 544 300 c 2
 175 300 l 2
 161.200195312 300 150 288.799804688 150 275 c 2
 150 125 l 2
 150 111.200195312 161.200195312 100 175 100 c 2
 475 100 l 2
98.900390625 900.799804688 m 6
 97.692058465 899.233561483 95.9230527824 898.468336327 94.1579211595 898.468336327 c 0
 91.9786074619 898.468336327 89.8051991954 899.634808933 88.7001953125 901.900390625 c 6
 67.099609375 947.099609375 l 5
 51.7001953125 978.700195312 l 6
 51.2905597282 979.560270026 51.0823184919 980.470816227 51.0823184919 981.36987629 c 0
 51.0823184919 982.665596412 51.5148440014 983.937459357 52.400390625 985 c 4
 100.700195312 1046.40039062 154.599609375 1080.79980469 212.700195312 1087.29980469 c 4
 219.542823219 1088.06128017 226.210753701 1088.41935721 232.715425892 1088.41935721 c 0
 289.426335001 1088.41935721 333.727648363 1061.20119074 373.200195312 1036.79980469 c 4
 406.434377217 1016.3687371 435.875950437 998.329187089 467.889125723 998.329187089 c 0
 471.130909131 998.329187089 474.399062791 998.514171949 477.700195312 998.900390625 c 4
 512 1002.70019531 546.5 1026.79980469 580.200195312 1070.40039062 c 6
 601.200195312 1097.59960938 l 6
 602.408596575 1099.16594215 604.177735489 1099.93116526 605.942967611 1099.93116526 c 0
 608.122179815 1099.93116526 610.295437925 1098.76493722 611.400390625 1096.5 c 6
 632.900390625 1051.29980469 l 5
 648.400390625 1019.70019531 l 6
 648.810026209 1018.83972056 649.018267446 1017.92910207 649.018267446 1017.03009606 c 0
 649.018267446 1015.73445385 648.585741936 1014.46293127 647.700195312 1013.40039062 c 4
 599.400390625 952 545.5 917.599609375 487.400390625 911.099609375 c 4
 480.558525256 910.338319227 473.890253638 909.980327277 467.384359553 909.980327277 c 0
 410.655750582 909.980327277 366.272856172 937.19878751 326.799804688 961.599609375 c 4
 293.544529518 982.099436534 264.357114959 1000.02624863 231.97648834 1000.02624863 c 0
 228.817103169 1000.02624863 225.627318779 999.855586283 222.400390625 999.5 c 4
 188.099609375 995.700195312 153.599609375 971.599609375 119.900390625 928 c 6
 98.900390625 900.799804688 l 6
EndSplineSet
Validated: 1
EndChar

StartChar: ntilde
Encoding: 241 241 150
Width: 700
Flags: W
HStem: 0 21G<54.3501 145.65 554.35 645.65> 0 21G<54.3501 145.65 554.35 645.65> 600 100<161.945 550> 909.98 88.3489<379.938 545.204> 1000.03 88.3931<154.613 320.353>
VStem: 50 100<0 588.179 683.1 700> 550 100<0 600>
LayerCount: 2
Fore
SplineSet
575 700 m 2xbe
 616.400390625 700 650 666.400390625 650 625 c 2
 650 6 l 2
 650 2.7001953125 647.299804688 0 644 0 c 2
 556 0 l 2
 552.700195312 0 550 2.7001953125 550 6 c 2
 550 575 l 2
 550 588.799804688 538.799804688 600 525 600 c 2
 225 600 l 2
 183.599609375 600 150 566.400390625 150 525 c 2
 150 6 l 2
 150 2.7001953125 147.299804688 0 144 0 c 2
 56 0 l 2
 52.7001953125 0 50 2.7001953125 50 6 c 2
 50 525 l 1
 50 694 l 2
 50 697.299804688 52.7001953125 700 56 700 c 2
 144 700 l 2
 147.299804688 700 150 697.299804688 150 694 c 2
 150 683.099609375 l 1
 172.700195312 693.900390625 198.200195312 700 225 700 c 2
 575 700 l 2xbe
98.900390625 900.799804688 m 6
 97.692058465 899.233561483 95.9230527824 898.468336327 94.1579211595 898.468336327 c 0
 91.9786074619 898.468336327 89.8051991954 899.634808933 88.7001953125 901.900390625 c 6
 67.099609375 947.099609375 l 5
 51.7001953125 978.700195312 l 6
 51.2905597282 979.560270026 51.0823184919 980.470816227 51.0823184919 981.36987629 c 0
 51.0823184919 982.665596412 51.5148440014 983.937459357 52.400390625 985 c 4
 100.700195312 1046.40039062 154.599609375 1080.79980469 212.700195312 1087.29980469 c 4
 219.542823219 1088.06128017 226.210753701 1088.41935721 232.715425892 1088.41935721 c 0
 289.426335001 1088.41935721 333.727648363 1061.20119074 373.200195312 1036.79980469 c 4
 406.434377217 1016.3687371 435.875950437 998.329187089 467.889125723 998.329187089 c 0
 471.130909131 998.329187089 474.399062791 998.514171949 477.700195312 998.900390625 c 4
 512 1002.70019531 546.5 1026.79980469 580.200195312 1070.40039062 c 6
 601.200195312 1097.59960938 l 6
 602.408596575 1099.16594215 604.177735489 1099.93116526 605.942967611 1099.93116526 c 0
 608.122179815 1099.93116526 610.295437925 1098.76493722 611.400390625 1096.5 c 6
 632.900390625 1051.29980469 l 5
 648.400390625 1019.70019531 l 6
 648.810026209 1018.83972056 649.018267446 1017.92910207 649.018267446 1017.03009606 c 0
 649.018267446 1015.73445385 648.585741936 1014.46293127 647.700195312 1013.40039062 c 4
 599.400390625 952 545.5 917.599609375 487.400390625 911.099609375 c 4
 480.558525256 910.338319227 473.890253638 909.980327277 467.384359553 909.980327277 c 0
 410.655750582 909.980327277 366.272856172 937.19878751 326.799804688 961.599609375 c 4
 293.544529518 982.099436534 264.357114959 1000.02624863 231.97648834 1000.02624863 c 0
 228.817103169 1000.02624863 225.627318779 999.855586283 222.400390625 999.5 c 4
 188.099609375 995.700195312 153.599609375 971.599609375 119.900390625 928 c 6
 98.900390625 900.799804688 l 6
EndSplineSet
Validated: 1
EndChar

StartChar: otilde
Encoding: 245 245 151
Width: 700
Flags: W
HStem: 0 100<150 550> 600 100<150 550> 909.98 88.3489<379.938 545.204> 1000.03 88.3931<154.613 320.353>
VStem: 50 100<100 600> 550 100<100 600>
LayerCount: 2
Fore
SplineSet
575 0 m 2
 125 0 l 2
 83.599609375 0 50 33.599609375 50 75 c 2
 50 625 l 2
 50 666.400390625 83.599609375 700 125 700 c 2
 575 700 l 2
 616.400390625 700 650 666.400390625 650 625 c 2
 650 75 l 2
 650 33.599609375 616.400390625 0 575 0 c 2
175 100 m 2
 525 100 l 2
 538.799804688 100 550 111.200195312 550 125 c 2
 550 575 l 2
 550 588.799804688 538.799804688 600 525 600 c 2
 175 600 l 2
 161.200195312 600 150 588.799804688 150 575 c 2
 150 125 l 2
 150 111.200195312 161.200195312 100 175 100 c 2
98.900390625 900.799804688 m 6
 97.692058465 899.233561483 95.9230527824 898.468336327 94.1579211595 898.468336327 c 0
 91.9786074619 898.468336327 89.8051991954 899.634808933 88.7001953125 901.900390625 c 6
 67.099609375 947.099609375 l 5
 51.7001953125 978.700195312 l 6
 51.2905597282 979.560270026 51.0823184919 980.470816227 51.0823184919 981.36987629 c 0
 51.0823184919 982.665596412 51.5148440014 983.937459357 52.400390625 985 c 4
 100.700195312 1046.40039062 154.599609375 1080.79980469 212.700195312 1087.29980469 c 4
 219.542823219 1088.06128017 226.210753701 1088.41935721 232.715425892 1088.41935721 c 0
 289.426335001 1088.41935721 333.727648363 1061.20119074 373.200195312 1036.79980469 c 4
 406.434377217 1016.3687371 435.875950437 998.329187089 467.889125723 998.329187089 c 0
 471.130909131 998.329187089 474.399062791 998.514171949 477.700195312 998.900390625 c 4
 512 1002.70019531 546.5 1026.79980469 580.200195312 1070.40039062 c 6
 601.200195312 1097.59960938 l 6
 602.408596575 1099.16594215 604.177735489 1099.93116526 605.942967611 1099.93116526 c 0
 608.122179815 1099.93116526 610.295437925 1098.76493722 611.400390625 1096.5 c 6
 632.900390625 1051.29980469 l 5
 648.400390625 1019.70019531 l 6
 648.810026209 1018.83972056 649.018267446 1017.92910207 649.018267446 1017.03009606 c 0
 649.018267446 1015.73445385 648.585741936 1014.46293127 647.700195312 1013.40039062 c 4
 599.400390625 952 545.5 917.599609375 487.400390625 911.099609375 c 4
 480.558525256 910.338319227 473.890253638 909.980327277 467.384359553 909.980327277 c 0
 410.655750582 909.980327277 366.272856172 937.19878751 326.799804688 961.599609375 c 4
 293.544529518 982.099436534 264.357114959 1000.02624863 231.97648834 1000.02624863 c 0
 228.817103169 1000.02624863 225.627318779 999.855586283 222.400390625 999.5 c 4
 188.099609375 995.700195312 153.599609375 971.599609375 119.900390625 928 c 6
 98.900390625 900.799804688 l 6
EndSplineSet
Validated: 1
EndChar

StartChar: Ntilde
Encoding: 209 209 152
Width: 800
Flags: W
HStem: 0 21G<54.3501 145.65 626.45 745.55> 0 21G<54.3501 145.65 626.45 745.55> 980 20G<54.3501 177.35 654.25 745.55> 1210.08 88.3482<429.837 595.104> 1300.13 88.2936<204.513 370.24>
VStem: 50 100<0 828.347> 649.9 100<178.352 1000>
LayerCount: 2
Fore
SplineSet
622.299804688 3.099609375 m 2xbe
 161.200195312 828.099609375 l 2
 158.200195312 833.5 150 831.400390625 150 825.200195312 c 2
 150 6 l 2
 150 2.7001953125 147.299804688 0 144 0 c 2
 56 0 l 2
 52.7001953125 0 50 2.7001953125 50 6 c 2
 50 994 l 2
 50 997.299804688 52.7001953125 1000 56 1000 c 2
 65.2998046875 1000 l 1
 176.299804688 1000 l 2
 178.400390625 1000 180.400390625 998.799804688 181.5 996.900390625 c 2
 638.700195312 178.599609375 l 2
 641.700195312 173.200195312 649.900390625 175.299804688 649.900390625 181.5 c 2
 649.900390625 994 l 2
 649.900390625 997.299804688 652.599609375 1000 655.900390625 1000 c 2
 743.900390625 1000 l 2
 747.200195312 1000 749.900390625 997.299804688 749.900390625 994 c 2
 749.900390625 6 l 2
 749.900390625 2.7001953125 747.200195312 0 743.900390625 0 c 2
 738.5 0 l 1
 627.5 0 l 2
 625.400390625 0 623.400390625 1.2001953125 622.299804688 3.099609375 c 2xbe
148.900390625 1200.79980469 m 6
 147.692058465 1199.23356148 145.923052782 1198.46833633 144.157921159 1198.46833633 c 0
 141.978607462 1198.46833633 139.805199195 1199.63480893 138.700195312 1201.90039062 c 6
 117.099609375 1247.09960938 l 5
 101.599609375 1278.70019531 l 6
 101.189973791 1279.56027003 100.981732554 1280.47081623 100.981732554 1281.36987629 c 0
 100.981732554 1282.66559641 101.414258064 1283.93745936 102.299804688 1285 c 4
 150.599609375 1346.40039062 204.5 1380.79980469 262.599609375 1387.29980469 c 4
 269.433033597 1388.06139672 276.09381683 1388.41946682 282.593077756 1388.41946682 c 0
 339.247142335 1388.41946682 383.627755414 1361.21111389 423.099609375 1336.90039062 c 4
 456.334814452 1316.46923918 485.776574479 1298.42881972 517.789178572 1298.42881972 c 0
 521.030759446 1298.42881972 524.298700444 1298.61379698 527.599609375 1299 c 4
 561.900390625 1302.79980469 596.400390625 1326.90039062 630.099609375 1370.5 c 6
 651.099609375 1397.70019531 l 6
 652.307941535 1399.26643852 654.076947218 1400.03166367 655.842078841 1400.03166367 c 0
 658.021392538 1400.03166367 660.194800805 1398.86519107 661.299804688 1396.59960938 c 6
 682.799804688 1351.40039062 l 5
 698.299804688 1319.79980469 l 6
 698.709440272 1318.93972997 698.917681508 1318.02918377 698.917681508 1317.13012371 c 0
 698.917681508 1315.83440359 698.485155999 1314.56254064 697.599609375 1313.5 c 4
 649.299804688 1252.09960938 595.400390625 1217.70019531 537.299804688 1211.20019531 c 4
 530.457176781 1210.43871983 523.788191663 1210.08064279 517.281627236 1210.08064279 c 0
 460.554220692 1210.08064279 416.172742262 1237.29880926 376.700195312 1261.70019531 c 4
 343.445053832 1282.19994006 314.256929608 1300.12587979 281.876314702 1300.12587979 c 0
 278.716787799 1300.12587979 275.526865797 1299.95521031 272.299804688 1299.59960938 c 4
 238 1295.79980469 203.5 1271.70019531 169.799804688 1228.09960938 c 6
 148.900390625 1200.79980469 l 6
EndSplineSet
Validated: 1
EndChar

StartChar: Otilde
Encoding: 213 213 153
Width: 800
Flags: W
HStem: 0 100<150 650> 900 100<150 650> 1210.08 88.3482<429.837 595.104> 1300.13 88.2936<204.513 370.24>
VStem: 50 100<100 900> 650 100<100 900>
LayerCount: 2
Fore
SplineSet
675 0 m 2
 125 0 l 2
 83.599609375 0 50 33.599609375 50 75 c 2
 50 925 l 2
 50 966.400390625 83.599609375 1000 125 1000 c 2
 675 1000 l 2
 716.400390625 1000 750 966.400390625 750 925 c 2
 750 75 l 2
 750 33.599609375 716.400390625 0 675 0 c 2
175 100 m 2
 625 100 l 2
 638.799804688 100 650 111.200195312 650 125 c 2
 650 875 l 2
 650 888.799804688 638.799804688 900 625 900 c 2
 175 900 l 2
 161.200195312 900 150 888.799804688 150 875 c 2
 150 125 l 2
 150 111.200195312 161.200195312 100 175 100 c 2
148.900390625 1200.79980469 m 6
 147.692058465 1199.23356148 145.923052782 1198.46833633 144.157921159 1198.46833633 c 0
 141.978607462 1198.46833633 139.805199195 1199.63480893 138.700195312 1201.90039062 c 6
 117.099609375 1247.09960938 l 5
 101.599609375 1278.70019531 l 6
 101.189973791 1279.56027003 100.981732554 1280.47081623 100.981732554 1281.36987629 c 0
 100.981732554 1282.66559641 101.414258064 1283.93745936 102.299804688 1285 c 4
 150.599609375 1346.40039062 204.5 1380.79980469 262.599609375 1387.29980469 c 4
 269.433033597 1388.06139672 276.09381683 1388.41946682 282.593077756 1388.41946682 c 0
 339.247142335 1388.41946682 383.627755414 1361.21111389 423.099609375 1336.90039062 c 4
 456.334814452 1316.46923918 485.776574479 1298.42881972 517.789178572 1298.42881972 c 0
 521.030759446 1298.42881972 524.298700444 1298.61379698 527.599609375 1299 c 4
 561.900390625 1302.79980469 596.400390625 1326.90039062 630.099609375 1370.5 c 6
 651.099609375 1397.70019531 l 6
 652.307941535 1399.26643852 654.076947218 1400.03166367 655.842078841 1400.03166367 c 0
 658.021392538 1400.03166367 660.194800805 1398.86519107 661.299804688 1396.59960938 c 6
 682.799804688 1351.40039062 l 5
 698.299804688 1319.79980469 l 6
 698.709440272 1318.93972997 698.917681508 1318.02918377 698.917681508 1317.13012371 c 0
 698.917681508 1315.83440359 698.485155999 1314.56254064 697.599609375 1313.5 c 4
 649.299804688 1252.09960938 595.400390625 1217.70019531 537.299804688 1211.20019531 c 4
 530.457176781 1210.43871983 523.788191663 1210.08064279 517.281627236 1210.08064279 c 0
 460.554220692 1210.08064279 416.172742262 1237.29880926 376.700195312 1261.70019531 c 4
 343.445053832 1282.19994006 314.256929608 1300.12587979 281.876314702 1300.12587979 c 0
 278.716787799 1300.12587979 275.526865797 1299.95521031 272.299804688 1299.59960938 c 4
 238 1295.79980469 203.5 1271.70019531 169.799804688 1228.09960938 c 6
 148.900390625 1200.79980469 l 6
EndSplineSet
Validated: 1
EndChar

StartChar: asciitilde
Encoding: 126 126 154
Width: 698
Flags: W
HStem: 910.081 88.3482<378.856 544.123> 1000.13 88.2936<153.532 319.237>
LayerCount: 2
Fore
SplineSet
97.818359375 900.799804688 m 6
 96.610027215 899.233561483 94.8410215324 898.468336327 93.0758899095 898.468336327 c 0
 90.8965762119 898.468336327 88.7231679454 899.634808933 87.6181640625 901.900390625 c 6
 66.0185546875 947.099609375 l 5
 50.6181640625 978.700195312 l 6
 50.2085284782 979.560270026 50.0002872419 980.470816227 50.0002872419 981.36987629 c 0
 50.0002872419 982.665596412 50.4328127514 983.937459357 51.318359375 985 c 4
 99.6181640625 1046.40039062 153.518554688 1080.79980469 211.618164062 1087.29980469 c 4
 218.451588285 1088.06139672 225.111316558 1088.41946682 231.60879327 1088.41946682 c 0
 288.247304859 1088.41946682 332.556951767 1061.21111389 372.118164062 1036.90039062 c 4
 405.353369139 1016.46923918 434.795129167 998.428819716 466.807733259 998.428819716 c 0
 470.049314133 998.428819716 473.317255131 998.613796977 476.618164062 999 c 4
 510.918945312 1002.79980469 545.418945312 1026.90039062 579.118164062 1070.5 c 6
 600.118164062 1097.70019531 l 6
 601.326496223 1099.26643852 603.095501905 1100.03166367 604.860633528 1100.03166367 c 0
 607.039947226 1100.03166367 609.213355492 1098.86519107 610.318359375 1096.59960938 c 6
 631.818359375 1051.40039062 l 5
 647.318359375 1019.79980469 l 6
 647.727994959 1018.93972997 647.936236196 1018.02918377 647.936236196 1017.13012371 c 0
 647.936236196 1015.83440359 647.503710686 1014.56254064 646.618164062 1013.5 c 4
 598.318359375 952.099609375 544.418945312 917.700195312 486.318359375 911.200195312 c 4
 479.475731469 910.438719833 472.80674635 910.080642791 466.300181924 910.080642791 c 0
 409.572775379 910.080642791 365.191296949 937.298809256 325.71875 961.700195312 c 4
 292.46360852 982.199940061 263.275484296 1000.12587979 230.894869389 1000.12587979 c 0
 227.735342487 1000.12587979 224.545420485 999.955210309 221.318359375 999.599609375 c 4
 187.018554688 995.799804688 152.518554688 971.700195312 118.818359375 928.099609375 c 6
 97.818359375 900.799804688 l 6
EndSplineSet
Validated: 1
EndChar

StartChar: eth
Encoding: 240 240 155
Width: 700
Flags: W
HStem: 0 100<152.882 547.118> 600 100<152.882 444.2> 980.1 20G<54.3501 204.35>
VStem: 50 100<102.882 597.118> 550 100<102.882 597.858>
LayerCount: 2
Fore
SplineSet
600.900390625 674.200195312 m 1
 630.700195312 651.400390625 650 615.400390625 650 575 c 2
 650 561.900390625 l 1
 650 175 l 1
 650 125 l 2
 650 56 594 0 525 0 c 2
 175 0 l 2
 106 0 50 56 50 125 c 2
 50 575 l 2
 50 644 106 700 175 700 c 2
 444.200195312 700 l 1
 421.099609375 726 l 2
 396.200195312 754.099609375 368.299804688 779.299804688 338.099609375 801.400390625 c 0
 336.400390625 802.599609375 334.200195312 802.799804688 332.200195312 802 c 2
 165.5 729.5 l 2
 162.5 728.200195312 158.900390625 729.599609375 157.599609375 732.599609375 c 2
 142.400390625 767.400390625 l 2
 141.099609375 770.400390625 142.5 774 145.5 775.299804688 c 2
 274 831.400390625 l 2
 278.5 833.299804688 278.900390625 839.5 274.700195312 842 c 2
 52.900390625 975.099609375 l 2
 51.099609375 976.099609375 50 978.099609375 50 980.200195312 c 2
 50 994.099609375 l 2
 50 997.400390625 52.7001953125 1000.09960938 56 1000.09960938 c 2
 203.799804688 1000.09960938 l 2
 204.900390625 1000.09960938 206 999.799804688 206.900390625 999.200195312 c 2
 350.200195312 913.200195312 l 2
 364.5 904.599609375 378.5 895.400390625 392 885.700195312 c 0
 393.700195312 884.5 396 884.299804688 397.900390625 885.099609375 c 2
 534.5 944.5 l 2
 537.5 945.799804688 541.099609375 944.400390625 542.400390625 941.400390625 c 2
 557.599609375 906.599609375 l 2
 558.900390625 903.599609375 557.5 900 554.5 898.700195312 c 2
 447.799804688 852.299804688 l 2
 443.799804688 850.5 442.900390625 845.200195312 446.200195312 842.299804688 c 0
 463.700195312 826.700195312 480.299804688 810 495.900390625 792.400390625 c 2
 600.900390625 674.200195312 l 1
550 175 m 1
 550 561.900390625 l 2
 550 574.200195312 545.5 586 537.299804688 595.200195312 c 2
 534.900390625 597.900390625 l 2
 531.900390625 599.299804688 528.5 600 525 600 c 2
 175 600 l 2
 161.200195312 600 150 588.799804688 150 575 c 2
 150 125 l 2
 150 111.200195312 161.200195312 100 175 100 c 2
 525 100 l 2
 538.799804688 100 550 111.200195312 550 125 c 2
 550 175 l 1
EndSplineSet
Validated: 1
EndChar

StartChar: Eth
Encoding: 208 208 156
Width: 875
Flags: W
HStem: 0 100<225 725> 0 50<75 125> 450 100<50 125 225 475> 900 100<225 583.944> 950 50<75 125>
VStem: 125 100<100 450 550 900> 725 100<100 751.037>
LayerCount: 2
Fore
SplineSet
804.900390625 776.299804688 m 2x36
 817.900390625 762.299804688 825 744.200195312 825 725.200195312 c 2
 825 100 l 2
 825 44.7998046875 780.200195312 0 725 0 c 2xb6
 175 0 l 1
 131 0 l 1
 81 0 l 2
 77.7001953125 0 75 2.7001953125 75 6 c 2
 75 44 l 2
 75 47.2998046875 77.7001953125 50 81 50 c 2
 119 50 l 2
 122.299804688 50 125 52.7001953125 125 56 c 2
 125 444 l 2
 125 447.299804688 122.299804688 450 119 450 c 2
 56 450 l 2
 52.7001953125 450 50 452.700195312 50 456 c 2
 50 544 l 2
 50 547.299804688 52.7001953125 550 56 550 c 2
 119 550 l 2
 122.299804688 550 125 552.700195312 125 556 c 2
 125 944 l 2
 125 947.299804688 122.299804688 950 119 950 c 2
 81 950 l 2
 77.7001953125 950 75 952.700195312 75 956 c 2
 75 994 l 2
 75 997.299804688 77.7001953125 1000 81 1000 c 2
 131 1000 l 1
 175 1000 l 1x6e
 564.099609375 1000 l 2
 584.799804688 1000 604.900390625 991.299804688 619 976.099609375 c 2
 804.900390625 776.299804688 l 2x36
725 125 m 2
 725 713 l 2
 725 714.5 724.400390625 716 723.400390625 717.099609375 c 2
 555 898.099609375 l 2
 553.900390625 899.299804688 552.299804688 900 550.599609375 900 c 2
 231 900 l 2
 227.700195312 900 225 897.299804688 225 894 c 2
 225 556 l 2
 225 552.700195312 227.700195312 550 231 550 c 2
 469 550 l 2
 472.299804688 550 475 547.299804688 475 544 c 2
 475 456 l 2
 475 452.700195312 472.299804688 450 469 450 c 2
 231 450 l 2
 227.700195312 450 225 447.299804688 225 444 c 2
 225 106 l 2
 225 102.700195312 227.700195312 100 231 100 c 2
 700 100 l 2
 713.799804688 100 725 111.200195312 725 125 c 2
EndSplineSet
Validated: 1
EndChar

StartChar: Aring
Encoding: 197 197 157
Width: 800
Flags: W
HStem: 0 21G<54.3501 145.65 654.35 745.65> 0 21G<54.3501 145.65 654.35 745.65> 450 100<150 650> 900 100<150 650> 1225 50<362.5 437.5> 1350 50<362.5 437.5>
VStem: 50 100<0 450 550 900> 312.5 50<1275 1350> 437.5 50<1275 1350> 650 100<0 450 550 900>
LayerCount: 2
Fore
SplineSet
675 1000 m 2xbfc0
 716.400390625 1000 750 966.400390625 750 925 c 2
 750 6 l 2
 750 2.7001953125 747.299804688 0 744 0 c 2
 656 0 l 2
 652.700195312 0 650 2.7001953125 650 6 c 2
 650 444 l 2
 650 447.299804688 647.299804688 450 644 450 c 2
 156 450 l 2
 152.700195312 450 150 447.299804688 150 444 c 2
 150 6 l 2
 150 2.7001953125 147.299804688 0 144 0 c 2
 56 0 l 2
 52.7001953125 0 50 2.7001953125 50 6 c 2
 50 925 l 2
 50 966.400390625 83.599609375 1000 125 1000 c 2
 675 1000 l 2xbfc0
150 556 m 2
 150 552.700195312 152.700195312 550 156 550 c 2
 644 550 l 2
 647.299804688 550 650 552.700195312 650 556 c 2
 650 875 l 2
 650 888.799804688 638.799804688 900 625 900 c 2
 175 900 l 2
 161.200195312 900 150 888.799804688 150 875 c 2
 150 556 l 2
437.5 1225 m 2
 362.5 1225 l 2
 334.900390625 1225 312.5 1247.40039062 312.5 1275 c 2
 312.5 1350 l 2
 312.5 1377.59960938 334.900390625 1400 362.5 1400 c 2
 437.5 1400 l 2
 465.099609375 1400 487.5 1377.59960938 487.5 1350 c 2
 487.5 1275 l 2
 487.5 1247.40039062 465.099609375 1225 437.5 1225 c 2
362.5 1325 m 2
 362.5 1300 l 2
 362.5 1286.20019531 373.700195312 1275 387.5 1275 c 2
 412.5 1275 l 2
 426.299804688 1275 437.5 1286.20019531 437.5 1300 c 2
 437.5 1325 l 2
 437.5 1338.79980469 426.299804688 1350 412.5 1350 c 2
 387.5 1350 l 2
 373.700195312 1350 362.5 1338.79980469 362.5 1325 c 2
EndSplineSet
Validated: 1
EndChar

StartChar: aring
Encoding: 229 229 158
Width: 700
Flags: W
HStem: 0 100<150 538.055> 300 100<150 550> 600 100<50 550> 925 50<312.5 387.5> 1050 50<312.5 387.5>
VStem: 50 100<100 300> 262.5 50<975 1050> 387.5 50<975 1050> 550 100<0 16.9004 111.821 300 400 600>
LayerCount: 2
Fore
SplineSet
575 700 m 2
 616.400390625 700 650 666.400390625 650 625 c 2
 650 400 l 1
 650 175 l 1
 650 6 l 2
 650 2.7001953125 647.299804688 0 644 0 c 2
 556 0 l 2
 552.700195312 0 550 2.7001953125 550 6 c 2
 550 16.900390625 l 1
 527.299804688 6.099609375 501.799804688 0 475 0 c 2
 125 0 l 2
 83.599609375 0 50 33.599609375 50 75 c 2
 50 325 l 2
 50 366.400390625 83.599609375 400 125 400 c 2
 544 400 l 2
 547.299804688 400 550 402.700195312 550 406 c 2
 550 575 l 2
 550 588.799804688 538.799804688 600 525 600 c 2
 56 600 l 2
 52.7001953125 600 50 602.700195312 50 606 c 2
 50 694 l 2
 50 697.299804688 52.7001953125 700 56 700 c 2
 575 700 l 2
475 100 m 2
 516.400390625 100 550 133.599609375 550 175 c 2
 550 294 l 2
 550 297.299804688 547.299804688 300 544 300 c 2
 175 300 l 2
 161.200195312 300 150 288.799804688 150 275 c 2
 150 125 l 2
 150 111.200195312 161.200195312 100 175 100 c 2
 475 100 l 2
387.5 925 m 2
 312.5 925 l 2
 284.900390625 925 262.5 947.400390625 262.5 975 c 2
 262.5 1050 l 2
 262.5 1077.59960938 284.900390625 1100 312.5 1100 c 2
 387.5 1100 l 2
 415.099609375 1100 437.5 1077.59960938 437.5 1050 c 2
 437.5 975 l 2
 437.5 947.400390625 415.099609375 925 387.5 925 c 2
312.5 1025 m 2
 312.5 1000 l 2
 312.5 986.200195312 323.700195312 975 337.5 975 c 2
 362.5 975 l 2
 376.299804688 975 387.5 986.200195312 387.5 1000 c 2
 387.5 1025 l 2
 387.5 1038.79980469 376.299804688 1050 362.5 1050 c 2
 337.5 1050 l 2
 323.700195312 1050 312.5 1038.79980469 312.5 1025 c 2
EndSplineSet
Validated: 1
EndChar

StartChar: sterling
Encoding: 163 163 159
Width: 900
Flags: W
HStem: 0 100<250 850> 450 100<50 150 250 800> 900 100<250 775>
VStem: 150 100<100 450 550 900> 775 75<800 900>
CounterMasks: 1 e0
LayerCount: 2
Fore
SplineSet
844 1000 m 1
 850 1000 l 1
 850 994 l 1
 850 906 l 1
 850 806 l 2
 850 802.700195312 847.299804688 800 844 800 c 2
 781 800 l 2
 777.700195312 800 775 802.700195312 775 806 c 2
 775 894 l 2
 775 897.299804688 772.299804688 900 769 900 c 2
 256 900 l 2
 252.700195312 900 250 897.299804688 250 894 c 2
 250 556 l 2
 250 552.700195312 252.700195312 550 256 550 c 2
 550 550 l 1
 794 550 l 2
 797.299804688 550 800 547.299804688 800 544 c 2
 800 456 l 2
 800 452.700195312 797.299804688 450 794 450 c 2
 550 450 l 1
 256 450 l 2
 252.700195312 450 250 447.299804688 250 444 c 2
 250 125 l 2
 250 111.200195312 261.200195312 100 275 100 c 2
 844 100 l 2
 847.299804688 100 850 97.2998046875 850 94 c 2
 850 6 l 2
 850 2.7001953125 847.299804688 0 844 0 c 2
 225 0 l 2
 183.599609375 0 150 33.599609375 150 75 c 2
 150 450 l 1
 56 450 l 2
 52.7001953125 450 50 452.700195312 50 456 c 2
 50 544 l 2
 50 547.299804688 52.7001953125 550 56 550 c 2
 150 550 l 1
 150 994 l 2
 150 997.299804688 152.700195312 1000 156 1000 c 2
 775 1000 l 1
 844 1000 l 1
EndSplineSet
Validated: 1
EndChar

StartChar: currency
Encoding: 164 164 160
Width: 561
Flags: W
HStem: 349.9 100.1<230.875 329.976> 550 100<230.875 329.976>
VStem: 130.426 100<450.35 549.995> 330.426 100<450.465 549.551>
LayerCount: 2
Fore
SplineSet
430.42578125 470 m 2
 430.42578125 457.799804688 428.625 446.099609375 425.125 435.099609375 c 0
 423.825195312 430.799804688 424.92578125 426.200195312 428.125 423 c 2
 507.325195312 343.700195312 l 2
 512.025390625 339 512.025390625 331.400390625 507.325195312 326.700195312 c 2
 453.625 273 l 2
 448.92578125 268.299804688 441.325195312 268.299804688 436.625 273 c 2
 357.525390625 352.099609375 l 2
 354.325195312 355.299804688 349.725585938 356.400390625 345.42578125 355.099609375 c 0
 334.325195312 351.700195312 322.625 349.900390625 310.42578125 349.900390625 c 2
 250.42578125 349.900390625 l 2
 238.225585938 349.900390625 226.525390625 351.700195312 215.42578125 355.099609375 c 0
 211.125 356.400390625 206.525390625 355.299804688 203.325195312 352.099609375 c 2
 124.225585938 273 l 2
 119.525390625 268.299804688 111.92578125 268.299804688 107.225585938 273 c 2
 53.525390625 326.700195312 l 2
 48.8251953125 331.400390625 48.8251953125 339 53.525390625 343.700195312 c 2
 132.625 422.799804688 l 2
 135.825195312 426 136.92578125 430.599609375 135.625 434.900390625 c 0
 132.225585938 446 130.42578125 457.700195312 130.42578125 469.900390625 c 2
 130.42578125 529.900390625 l 2
 130.42578125 542.099609375 132.225585938 553.799804688 135.625 564.900390625 c 0
 136.92578125 569.200195312 135.825195312 573.799804688 132.625 577 c 2
 53.525390625 656.099609375 l 2
 48.8251953125 660.799804688 48.8251953125 668.400390625 53.525390625 673.099609375 c 2
 107.225585938 726.900390625 l 2
 111.92578125 731.599609375 119.525390625 731.599609375 124.225585938 726.900390625 c 2
 203.325195312 647.799804688 l 2
 206.525390625 644.599609375 211.125 643.5 215.42578125 644.799804688 c 0
 226.525390625 648.200195312 238.225585938 650 250.42578125 650 c 2
 310.42578125 650 l 2
 322.625 650 334.325195312 648.200195312 345.42578125 644.799804688 c 0
 349.725585938 643.5 354.325195312 644.599609375 357.525390625 647.799804688 c 2
 436.625 726.900390625 l 2
 441.325195312 731.599609375 448.92578125 731.599609375 453.625 726.900390625 c 2
 507.325195312 673.200195312 l 2
 512.025390625 668.5 512.025390625 660.900390625 507.325195312 656.200195312 c 2
 428.225585938 577.099609375 l 2
 425.025390625 573.900390625 423.92578125 569.299804688 425.225585938 565 c 0
 428.625 553.900390625 430.42578125 542.200195312 430.42578125 530 c 2
 430.42578125 470 l 2
330.42578125 470 m 2
 330.42578125 530 l 2
 330.42578125 541 321.42578125 550 310.42578125 550 c 2
 250.42578125 550 l 2
 239.42578125 550 230.42578125 541 230.42578125 530 c 2
 230.42578125 470 l 2
 230.42578125 459 239.42578125 450 250.42578125 450 c 2
 310.42578125 450 l 2
 321.42578125 450 330.42578125 459 330.42578125 470 c 2
EndSplineSet
Validated: 1
EndChar

StartChar: yen
Encoding: 165 165 161
Width: 825
Flags: W
HStem: 0.0996094 21G<367.03 458.33> 0.0996094 21G<367.03 458.33> 300.1 100<62.6797 362.68 462.68 762.68> 600.1 100<62.6797 331.453 494.006 762.68> 980 20G<53.3296 181.229 644.18 772.129>
VStem: 362.68 100<0.0996094 300.1 400.1 599.977>
LayerCount: 2
Fore
SplineSet
769.479492188 1000 m 2xbc
 774.779296875 1000 777.479492188 993.5 773.6796875 989.700195312 c 2
 494.1796875 710.200195312 l 2
 490.379882812 706.5 493.079101562 700 498.379882812 700 c 2
 756.6796875 700 l 2
 759.979492188 700 762.6796875 697.299804688 762.6796875 694 c 2
 762.6796875 606 l 2
 762.6796875 602.700195312 759.979492188 600 756.6796875 600 c 2
 468.6796875 600 l 2
 465.379882812 600 462.6796875 597.299804688 462.6796875 594 c 2
 462.6796875 406.099609375 l 2
 462.6796875 402.799804688 465.379882812 400.099609375 468.6796875 400.099609375 c 2
 756.6796875 400.099609375 l 2
 759.979492188 400.099609375 762.6796875 397.400390625 762.6796875 394.099609375 c 2
 762.6796875 306.099609375 l 2
 762.6796875 302.799804688 759.979492188 300.099609375 756.6796875 300.099609375 c 2
 468.6796875 300.099609375 l 2
 465.379882812 300.099609375 462.6796875 297.400390625 462.6796875 294.099609375 c 2
 462.6796875 6.099609375 l 2
 462.6796875 2.7998046875 459.979492188 0.099609375 456.6796875 0.099609375 c 2
 368.6796875 0.099609375 l 2
 365.379882812 0.099609375 362.6796875 2.7998046875 362.6796875 6.099609375 c 2
 362.6796875 294.099609375 l 2
 362.6796875 297.400390625 359.979492188 300.099609375 356.6796875 300.099609375 c 2
 68.6796875 300.099609375 l 2
 65.3798828125 300.099609375 62.6796875 302.799804688 62.6796875 306.099609375 c 2
 62.6796875 394.099609375 l 2
 62.6796875 397.400390625 65.3798828125 400.099609375 68.6796875 400.099609375 c 2
 356.6796875 400.099609375 l 2
 359.979492188 400.099609375 362.6796875 402.799804688 362.6796875 406.099609375 c 2
 362.6796875 594.099609375 l 2
 362.6796875 597.400390625 359.979492188 600.099609375 356.6796875 600.099609375 c 2
 68.6796875 600.099609375 l 2
 65.3798828125 600.099609375 62.6796875 602.799804688 62.6796875 606.099609375 c 2
 62.6796875 694.099609375 l 2
 62.6796875 697.400390625 65.3798828125 700.099609375 68.6796875 700.099609375 c 2
 327.079101562 700.099609375 l 2
 332.379882812 700.099609375 335.079101562 706.5 331.279296875 710.299804688 c 2
 51.779296875 989.799804688 l 2
 47.9794921875 993.5 50.6796875 1000 55.9794921875 1000 c 2
 180.479492188 1000 l 2
 181.979492188 1000 183.579101562 999.299804688 184.6796875 998.200195312 c 2
 408.479492188 774.5 l 2
 410.879882812 772.200195312 414.6796875 772.200195312 416.979492188 774.5 c 2
 640.779296875 998.200195312 l 2
 641.879882812 999.400390625 643.379882812 1000 644.979492188 1000 c 2
 769.479492188 1000 l 2xbc
EndSplineSet
Validated: 1
EndChar

StartChar: guillemotleft
Encoding: 171 171 162
Width: 880
Flags: W
HStem: 0.0996094 21G<399.125 527.075 699.125 827.075> 0.0996094 21G<399.125 527.075 699.125 827.075> 680.2 20G<399.175 527.075 699.175 827.075>
LayerCount: 2
Fore
SplineSet
828.625 689.799804688 m 2xa0
 493.125 354.299804688 l 2
 490.825195312 352 490.825195312 348.200195312 493.125 345.799804688 c 2
 828.625 10.2998046875 l 2
 832.424804688 6.5 829.724609375 0.099609375 824.424804688 0.099609375 c 2
 699.924804688 0.099609375 l 2
 698.325195312 0.099609375 696.825195312 0.7001953125 695.724609375 1.900390625 c 2
 351.724609375 345.900390625 l 2
 349.424804688 348.200195312 349.424804688 352 351.724609375 354.400390625 c 2
 695.724609375 698.400390625 l 2
 696.825195312 699.5 698.424804688 700.200195312 699.924804688 700.200195312 c 2
 824.424804688 700.200195312 l 2
 829.724609375 700 832.424804688 693.5 828.625 689.799804688 c 2xa0
528.625 689.799804688 m 2
 193.125 354.299804688 l 2
 190.825195312 352 190.825195312 348.200195312 193.125 345.799804688 c 2
 528.625 10.2998046875 l 2
 532.424804688 6.5 529.724609375 0.099609375 524.424804688 0.099609375 c 2
 399.924804688 0.099609375 l 2
 398.325195312 0.099609375 396.825195312 0.7001953125 395.724609375 1.900390625 c 2
 51.724609375 345.900390625 l 2
 49.4248046875 348.200195312 49.4248046875 352 51.724609375 354.400390625 c 2
 395.724609375 698.400390625 l 2
 396.825195312 699.5 398.424804688 700.200195312 399.924804688 700.200195312 c 2
 524.424804688 700.200195312 l 2
 529.724609375 700 532.424804688 693.5 528.625 689.799804688 c 2
EndSplineSet
Validated: 1
EndChar

StartChar: guillemotright
Encoding: 187 187 163
Width: 880
Flags: W
HStem: 0 21G<53.3296 181.279 353.33 481.279> 0 21G<53.3296 181.279 353.33 481.279> 680.1 20G<53.3296 181.229 353.33 481.229>
LayerCount: 2
Fore
SplineSet
51.779296875 689.799804688 m 2xa0
 47.9794921875 693.5 50.6796875 700 55.9794921875 700.099609375 c 2
 180.479492188 700.099609375 l 2
 181.979492188 700.099609375 183.579101562 699.400390625 184.6796875 698.299804688 c 2
 528.6796875 354.299804688 l 2
 530.979492188 351.900390625 530.979492188 348.099609375 528.6796875 345.799804688 c 2
 184.6796875 1.7998046875 l 2
 183.579101562 0.599609375 182.079101562 0 180.479492188 0 c 2
 55.9794921875 0 l 2
 50.6796875 0 47.9794921875 6.5 51.779296875 10.2001953125 c 2
 387.279296875 345.799804688 l 2
 389.579101562 348.200195312 389.579101562 352 387.279296875 354.299804688 c 2
 51.779296875 689.799804688 l 2xa0
351.779296875 689.799804688 m 2
 347.979492188 693.5 350.6796875 700 355.979492188 700.200195312 c 2
 480.479492188 700.200195312 l 2
 481.979492188 700.200195312 483.579101562 699.5 484.6796875 698.400390625 c 2
 828.6796875 354.400390625 l 2
 830.979492188 352 830.979492188 348.200195312 828.6796875 345.900390625 c 2
 484.6796875 1.900390625 l 2
 483.579101562 0.7001953125 482.079101562 0.099609375 480.479492188 0.099609375 c 2
 355.979492188 0.099609375 l 2
 350.6796875 0.099609375 347.979492188 6.5 351.779296875 10.2998046875 c 2
 687.279296875 345.799804688 l 2
 689.579101562 348.200195312 689.579101562 352 687.279296875 354.299804688 c 2
 351.779296875 689.799804688 l 2
EndSplineSet
Validated: 1
EndChar

StartChar: plusminus
Encoding: 177 177 164
Width: 800
Flags: W
HStem: 0 100<50 750> 500 100<50 350 450 750>
VStem: 350 100<200 500 600 900>
LayerCount: 2
Fore
SplineSet
56 0 m 2
 52.7001953125 0 50 2.7001953125 50 6 c 2
 50 94 l 2
 50 97.2998046875 52.7001953125 100 56 100 c 2
 744 100 l 2
 747.299804688 100 750 97.2998046875 750 94 c 2
 750 6 l 2
 750 2.7001953125 747.299804688 0 744 0 c 2
 56 0 l 2
450 606 m 2
 450 602.700195312 452.700195312 600 456 600 c 2
 744 600 l 2
 747.299804688 600 750 597.299804688 750 594 c 2
 750 506 l 2
 750 502.700195312 747.299804688 500 744 500 c 2
 456 500 l 2
 452.700195312 500 450 497.299804688 450 494 c 2
 450 206 l 2
 450 202.700195312 447.299804688 200 444 200 c 2
 356 200 l 2
 352.700195312 200 350 202.700195312 350 206 c 2
 350 494 l 2
 350 497.299804688 347.299804688 500 344 500 c 2
 56 500 l 2
 52.7001953125 500 50 502.700195312 50 506 c 2
 50 594 l 2
 50 597.299804688 52.7001953125 600 56 600 c 2
 344 600 l 2
 347.299804688 600 350 602.700195312 350 606 c 2
 350 894 l 2
 350 897.299804688 352.700195312 900 356 900 c 2
 444 900 l 2
 447.299804688 900 450 897.299804688 450 894 c 2
 450 606 l 2
EndSplineSet
Validated: 1
EndChar

